<?xml version="1.0" encoding="UTF-8" standalone="no"?><svg xmlns="http://www.w3.org/2000/svg" xmlns:xlink="http://www.w3.org/1999/xlink" contentScriptType="application/ecmascript" contentStyleType="text/css" height="398px" preserveAspectRatio="none" style="width:623px;height:398px;" version="1.1" viewBox="0 0 623 398" width="623px" zoomAndPan="magnify"><defs><filter height="300%" id="fik16o05rxavn" width="300%" x="-1" y="-1"><feGaussianBlur result="blurOut" stdDeviation="2.0"/><feColorMatrix in="blurOut" result="blurOut2" type="matrix" values="0 0 0 0 0 0 0 0 0 0 0 0 0 0 0 0 0 0 .4 0"/><feOffset dx="4.0" dy="4.0" in="blurOut2" result="blurOut3"/><feBlend in="SourceGraphic" in2="blurOut3" mode="normal"/></filter></defs><g><!--MD5=[f60b16cb516bc977f3d142e48df51d7a]
class Unknown--><rect fill="#FEFECE" filter="url(#fik16o05rxavn)" height="48" id="Unknown" style="stroke: #A80036; stroke-width: 1.5;" width="87" x="364.5" y="7"/><ellipse cx="379.5" cy="23" fill="#ADD1B2" rx="11" ry="11" style="stroke: #A80036; stroke-width: 1.0;"/><path d="M381.8438,18.6719 C380.9063,18.2344 380.3125,18.0938 379.4375,18.0938 C376.8125,18.0938 374.8125,20.1719 374.8125,22.8906 L374.8125,24.0156 C374.8125,26.5938 376.9219,28.4844 379.8125,28.4844 C381.0313,28.4844 382.1875,28.1875 382.9375,27.6406 C383.5156,27.2344 383.8438,26.7813 383.8438,26.3906 C383.8438,25.9375 383.4531,25.5469 382.9844,25.5469 C382.7656,25.5469 382.5625,25.625 382.375,25.8125 C381.9219,26.2969 381.9219,26.2969 381.7344,26.3906 C381.3125,26.6563 380.625,26.7813 379.8594,26.7813 C377.8125,26.7813 376.5156,25.6875 376.5156,23.9844 L376.5156,22.8906 C376.5156,21.1094 377.7656,19.7969 379.5,19.7969 C380.0781,19.7969 380.6875,19.9531 381.1563,20.2031 C381.6406,20.4844 381.8125,20.7031 381.9063,21.1094 C381.9688,21.5156 382,21.6406 382.1406,21.7656 C382.2813,21.9063 382.5156,22.0156 382.7344,22.0156 C383,22.0156 383.2656,21.875 383.4375,21.6563 C383.5469,21.5 383.5781,21.3125 383.5781,20.8906 L383.5781,19.4688 C383.5781,19.0313 383.5625,18.9063 383.4688,18.75 C383.3125,18.4844 383.0313,18.3438 382.7344,18.3438 C382.4375,18.3438 382.2344,18.4375 382.0156,18.75 L381.8438,18.6719 Z "/><text fill="#000000" font-family="sans-serif" font-size="12" lengthAdjust="spacingAndGlyphs" textLength="55" x="393.5" y="27.1543">Unknown</text><line style="stroke: #A80036; stroke-width: 1.5;" x1="365.5" x2="450.5" y1="39" y2="39"/><line style="stroke: #A80036; stroke-width: 1.5;" x1="365.5" x2="450.5" y1="47" y2="47"/><!--MD5=[aa7f586532e18719e6cefa70fc650583]
class Object--><rect fill="#FEFECE" filter="url(#fik16o05rxavn)" height="48" id="Object" style="stroke: #A80036; stroke-width: 1.5;" width="72" x="178" y="115"/><ellipse cx="193" cy="131" fill="#ADD1B2" rx="11" ry="11" style="stroke: #A80036; stroke-width: 1.0;"/><path d="M195.3438,126.6719 C194.4063,126.2344 193.8125,126.0938 192.9375,126.0938 C190.3125,126.0938 188.3125,128.1719 188.3125,130.8906 L188.3125,132.0156 C188.3125,134.5938 190.4219,136.4844 193.3125,136.4844 C194.5313,136.4844 195.6875,136.1875 196.4375,135.6406 C197.0156,135.2344 197.3438,134.7813 197.3438,134.3906 C197.3438,133.9375 196.9531,133.5469 196.4844,133.5469 C196.2656,133.5469 196.0625,133.625 195.875,133.8125 C195.4219,134.2969 195.4219,134.2969 195.2344,134.3906 C194.8125,134.6563 194.125,134.7813 193.3594,134.7813 C191.3125,134.7813 190.0156,133.6875 190.0156,131.9844 L190.0156,130.8906 C190.0156,129.1094 191.2656,127.7969 193,127.7969 C193.5781,127.7969 194.1875,127.9531 194.6563,128.2031 C195.1406,128.4844 195.3125,128.7031 195.4063,129.1094 C195.4688,129.5156 195.5,129.6406 195.6406,129.7656 C195.7813,129.9063 196.0156,130.0156 196.2344,130.0156 C196.5,130.0156 196.7656,129.875 196.9375,129.6563 C197.0469,129.5 197.0781,129.3125 197.0781,128.8906 L197.0781,127.4688 C197.0781,127.0313 197.0625,126.9063 196.9688,126.75 C196.8125,126.4844 196.5313,126.3438 196.2344,126.3438 C195.9375,126.3438 195.7344,126.4375 195.5156,126.75 L195.3438,126.6719 Z "/><text fill="#000000" font-family="sans-serif" font-size="12" lengthAdjust="spacingAndGlyphs" textLength="40" x="207" y="135.1543">Object</text><line style="stroke: #A80036; stroke-width: 1.5;" x1="179" x2="249" y1="147" y2="147"/><line style="stroke: #A80036; stroke-width: 1.5;" x1="179" x2="249" y1="155" y2="155"/><!--MD5=[b0642ef3ba9344d759537d73172f5b8e]
class State(*)--><rect fill="#FEFECE" filter="url(#fik16o05rxavn)" height="48" id="State(*)" style="stroke: #A80036; stroke-width: 1.5;" width="80" x="7" y="223"/><ellipse cx="22" cy="239" fill="#ADD1B2" rx="11" ry="11" style="stroke: #A80036; stroke-width: 1.0;"/><path d="M24.3438,234.6719 C23.4063,234.2344 22.8125,234.0938 21.9375,234.0938 C19.3125,234.0938 17.3125,236.1719 17.3125,238.8906 L17.3125,240.0156 C17.3125,242.5938 19.4219,244.4844 22.3125,244.4844 C23.5313,244.4844 24.6875,244.1875 25.4375,243.6406 C26.0156,243.2344 26.3438,242.7813 26.3438,242.3906 C26.3438,241.9375 25.9531,241.5469 25.4844,241.5469 C25.2656,241.5469 25.0625,241.625 24.875,241.8125 C24.4219,242.2969 24.4219,242.2969 24.2344,242.3906 C23.8125,242.6563 23.125,242.7813 22.3594,242.7813 C20.3125,242.7813 19.0156,241.6875 19.0156,239.9844 L19.0156,238.8906 C19.0156,237.1094 20.2656,235.7969 22,235.7969 C22.5781,235.7969 23.1875,235.9531 23.6563,236.2031 C24.1406,236.4844 24.3125,236.7031 24.4063,237.1094 C24.4688,237.5156 24.5,237.6406 24.6406,237.7656 C24.7813,237.9063 25.0156,238.0156 25.2344,238.0156 C25.5,238.0156 25.7656,237.875 25.9375,237.6563 C26.0469,237.5 26.0781,237.3125 26.0781,236.8906 L26.0781,235.4688 C26.0781,235.0313 26.0625,234.9063 25.9688,234.75 C25.8125,234.4844 25.5313,234.3438 25.2344,234.3438 C24.9375,234.3438 24.7344,234.4375 24.5156,234.75 L24.3438,234.6719 Z "/><text fill="#000000" font-family="sans-serif" font-size="12" lengthAdjust="spacingAndGlyphs" textLength="48" x="36" y="243.1543">State(*)</text><line style="stroke: #A80036; stroke-width: 1.5;" x1="8" x2="86" y1="255" y2="255"/><line style="stroke: #A80036; stroke-width: 1.5;" x1="8" x2="86" y1="263" y2="263"/><!--MD5=[6e201656357d2a267ccc7b2b5517d677]
class Ended--><rect fill="#FEFECE" filter="url(#fik16o05rxavn)" height="48" id="Ended" style="stroke: #A80036; stroke-width: 1.5;" width="70" x="122" y="223"/><ellipse cx="137" cy="239" fill="#ADD1B2" rx="11" ry="11" style="stroke: #A80036; stroke-width: 1.0;"/><path d="M139.3438,234.6719 C138.4063,234.2344 137.8125,234.0938 136.9375,234.0938 C134.3125,234.0938 132.3125,236.1719 132.3125,238.8906 L132.3125,240.0156 C132.3125,242.5938 134.4219,244.4844 137.3125,244.4844 C138.5313,244.4844 139.6875,244.1875 140.4375,243.6406 C141.0156,243.2344 141.3438,242.7813 141.3438,242.3906 C141.3438,241.9375 140.9531,241.5469 140.4844,241.5469 C140.2656,241.5469 140.0625,241.625 139.875,241.8125 C139.4219,242.2969 139.4219,242.2969 139.2344,242.3906 C138.8125,242.6563 138.125,242.7813 137.3594,242.7813 C135.3125,242.7813 134.0156,241.6875 134.0156,239.9844 L134.0156,238.8906 C134.0156,237.1094 135.2656,235.7969 137,235.7969 C137.5781,235.7969 138.1875,235.9531 138.6563,236.2031 C139.1406,236.4844 139.3125,236.7031 139.4063,237.1094 C139.4688,237.5156 139.5,237.6406 139.6406,237.7656 C139.7813,237.9063 140.0156,238.0156 140.2344,238.0156 C140.5,238.0156 140.7656,237.875 140.9375,237.6563 C141.0469,237.5 141.0781,237.3125 141.0781,236.8906 L141.0781,235.4688 C141.0781,235.0313 141.0625,234.9063 140.9688,234.75 C140.8125,234.4844 140.5313,234.3438 140.2344,234.3438 C139.9375,234.3438 139.7344,234.4375 139.5156,234.75 L139.3438,234.6719 Z "/><text fill="#000000" font-family="sans-serif" font-size="12" lengthAdjust="spacingAndGlyphs" textLength="38" x="151" y="243.1543">Ended</text><line style="stroke: #A80036; stroke-width: 1.5;" x1="123" x2="191" y1="255" y2="255"/><line style="stroke: #A80036; stroke-width: 1.5;" x1="123" x2="191" y1="263" y2="263"/><!--MD5=[8cdc72c3d96bf0a01515a4149faeac21]
class NoProtocol--><rect fill="#FEFECE" filter="url(#fik16o05rxavn)" height="48" id="NoProtocol" style="stroke: #A80036; stroke-width: 1.5;" width="97" x="227.5" y="223"/><ellipse cx="242.5" cy="239" fill="#ADD1B2" rx="11" ry="11" style="stroke: #A80036; stroke-width: 1.0;"/><path d="M244.8438,234.6719 C243.9063,234.2344 243.3125,234.0938 242.4375,234.0938 C239.8125,234.0938 237.8125,236.1719 237.8125,238.8906 L237.8125,240.0156 C237.8125,242.5938 239.9219,244.4844 242.8125,244.4844 C244.0313,244.4844 245.1875,244.1875 245.9375,243.6406 C246.5156,243.2344 246.8438,242.7813 246.8438,242.3906 C246.8438,241.9375 246.4531,241.5469 245.9844,241.5469 C245.7656,241.5469 245.5625,241.625 245.375,241.8125 C244.9219,242.2969 244.9219,242.2969 244.7344,242.3906 C244.3125,242.6563 243.625,242.7813 242.8594,242.7813 C240.8125,242.7813 239.5156,241.6875 239.5156,239.9844 L239.5156,238.8906 C239.5156,237.1094 240.7656,235.7969 242.5,235.7969 C243.0781,235.7969 243.6875,235.9531 244.1563,236.2031 C244.6406,236.4844 244.8125,236.7031 244.9063,237.1094 C244.9688,237.5156 245,237.6406 245.1406,237.7656 C245.2813,237.9063 245.5156,238.0156 245.7344,238.0156 C246,238.0156 246.2656,237.875 246.4375,237.6563 C246.5469,237.5 246.5781,237.3125 246.5781,236.8906 L246.5781,235.4688 C246.5781,235.0313 246.5625,234.9063 246.4688,234.75 C246.3125,234.4844 246.0313,234.3438 245.7344,234.3438 C245.4375,234.3438 245.2344,234.4375 245.0156,234.75 L244.8438,234.6719 Z "/><text fill="#000000" font-family="sans-serif" font-size="12" lengthAdjust="spacingAndGlyphs" textLength="65" x="256.5" y="243.1543">NoProtocol</text><line style="stroke: #A80036; stroke-width: 1.5;" x1="228.5" x2="323.5" y1="255" y2="255"/><line style="stroke: #A80036; stroke-width: 1.5;" x1="228.5" x2="323.5" y1="263" y2="263"/><!--MD5=[c330aa171b4ae5600de6569adaab31c4]
class Null--><rect fill="#FEFECE" filter="url(#fik16o05rxavn)" height="48" id="Null" style="stroke: #A80036; stroke-width: 1.5;" width="53" x="359.5" y="223"/><ellipse cx="374.5" cy="239" fill="#ADD1B2" rx="11" ry="11" style="stroke: #A80036; stroke-width: 1.0;"/><path d="M376.8438,234.6719 C375.9063,234.2344 375.3125,234.0938 374.4375,234.0938 C371.8125,234.0938 369.8125,236.1719 369.8125,238.8906 L369.8125,240.0156 C369.8125,242.5938 371.9219,244.4844 374.8125,244.4844 C376.0313,244.4844 377.1875,244.1875 377.9375,243.6406 C378.5156,243.2344 378.8438,242.7813 378.8438,242.3906 C378.8438,241.9375 378.4531,241.5469 377.9844,241.5469 C377.7656,241.5469 377.5625,241.625 377.375,241.8125 C376.9219,242.2969 376.9219,242.2969 376.7344,242.3906 C376.3125,242.6563 375.625,242.7813 374.8594,242.7813 C372.8125,242.7813 371.5156,241.6875 371.5156,239.9844 L371.5156,238.8906 C371.5156,237.1094 372.7656,235.7969 374.5,235.7969 C375.0781,235.7969 375.6875,235.9531 376.1563,236.2031 C376.6406,236.4844 376.8125,236.7031 376.9063,237.1094 C376.9688,237.5156 377,237.6406 377.1406,237.7656 C377.2813,237.9063 377.5156,238.0156 377.7344,238.0156 C378,238.0156 378.2656,237.875 378.4375,237.6563 C378.5469,237.5 378.5781,237.3125 378.5781,236.8906 L378.5781,235.4688 C378.5781,235.0313 378.5625,234.9063 378.4688,234.75 C378.3125,234.4844 378.0313,234.3438 377.7344,234.3438 C377.4375,234.3438 377.2344,234.4375 377.0156,234.75 L376.8438,234.6719 Z "/><text fill="#000000" font-family="sans-serif" font-size="12" lengthAdjust="spacingAndGlyphs" textLength="21" x="388.5" y="243.1543">Null</text><line style="stroke: #A80036; stroke-width: 1.5;" x1="360.5" x2="411.5" y1="255" y2="255"/><line style="stroke: #A80036; stroke-width: 1.5;" x1="360.5" x2="411.5" y1="263" y2="263"/><!--MD5=[204a995c784cbe6b3a7450752a2139a2]
class Primitive--><rect fill="#FEFECE" filter="url(#fik16o05rxavn)" height="48" id="Primitive" style="stroke: #A80036; stroke-width: 1.5;" width="82" x="414" y="115"/><ellipse cx="429" cy="131" fill="#ADD1B2" rx="11" ry="11" style="stroke: #A80036; stroke-width: 1.0;"/><path d="M431.3438,126.6719 C430.4063,126.2344 429.8125,126.0938 428.9375,126.0938 C426.3125,126.0938 424.3125,128.1719 424.3125,130.8906 L424.3125,132.0156 C424.3125,134.5938 426.4219,136.4844 429.3125,136.4844 C430.5313,136.4844 431.6875,136.1875 432.4375,135.6406 C433.0156,135.2344 433.3438,134.7813 433.3438,134.3906 C433.3438,133.9375 432.9531,133.5469 432.4844,133.5469 C432.2656,133.5469 432.0625,133.625 431.875,133.8125 C431.4219,134.2969 431.4219,134.2969 431.2344,134.3906 C430.8125,134.6563 430.125,134.7813 429.3594,134.7813 C427.3125,134.7813 426.0156,133.6875 426.0156,131.9844 L426.0156,130.8906 C426.0156,129.1094 427.2656,127.7969 429,127.7969 C429.5781,127.7969 430.1875,127.9531 430.6563,128.2031 C431.1406,128.4844 431.3125,128.7031 431.4063,129.1094 C431.4688,129.5156 431.5,129.6406 431.6406,129.7656 C431.7813,129.9063 432.0156,130.0156 432.2344,130.0156 C432.5,130.0156 432.7656,129.875 432.9375,129.6563 C433.0469,129.5 433.0781,129.3125 433.0781,128.8906 L433.0781,127.4688 C433.0781,127.0313 433.0625,126.9063 432.9688,126.75 C432.8125,126.4844 432.5313,126.3438 432.2344,126.3438 C431.9375,126.3438 431.7344,126.4375 431.5156,126.75 L431.3438,126.6719 Z "/><text fill="#000000" font-family="sans-serif" font-size="12" lengthAdjust="spacingAndGlyphs" textLength="50" x="443" y="135.1543">Primitive</text><line style="stroke: #A80036; stroke-width: 1.5;" x1="415" x2="495" y1="147" y2="147"/><line style="stroke: #A80036; stroke-width: 1.5;" x1="415" x2="495" y1="155" y2="155"/><!--MD5=[a25e85bdbd154cdfe48ea638e97861a8]
class Moved--><rect fill="#FEFECE" filter="url(#fik16o05rxavn)" height="48" id="Moved" style="stroke: #A80036; stroke-width: 1.5;" width="73" x="531.5" y="115"/><ellipse cx="546.5" cy="131" fill="#ADD1B2" rx="11" ry="11" style="stroke: #A80036; stroke-width: 1.0;"/><path d="M548.8438,126.6719 C547.9063,126.2344 547.3125,126.0938 546.4375,126.0938 C543.8125,126.0938 541.8125,128.1719 541.8125,130.8906 L541.8125,132.0156 C541.8125,134.5938 543.9219,136.4844 546.8125,136.4844 C548.0313,136.4844 549.1875,136.1875 549.9375,135.6406 C550.5156,135.2344 550.8438,134.7813 550.8438,134.3906 C550.8438,133.9375 550.4531,133.5469 549.9844,133.5469 C549.7656,133.5469 549.5625,133.625 549.375,133.8125 C548.9219,134.2969 548.9219,134.2969 548.7344,134.3906 C548.3125,134.6563 547.625,134.7813 546.8594,134.7813 C544.8125,134.7813 543.5156,133.6875 543.5156,131.9844 L543.5156,130.8906 C543.5156,129.1094 544.7656,127.7969 546.5,127.7969 C547.0781,127.7969 547.6875,127.9531 548.1563,128.2031 C548.6406,128.4844 548.8125,128.7031 548.9063,129.1094 C548.9688,129.5156 549,129.6406 549.1406,129.7656 C549.2813,129.9063 549.5156,130.0156 549.7344,130.0156 C550,130.0156 550.2656,129.875 550.4375,129.6563 C550.5469,129.5 550.5781,129.3125 550.5781,128.8906 L550.5781,127.4688 C550.5781,127.0313 550.5625,126.9063 550.4688,126.75 C550.3125,126.4844 550.0313,126.3438 549.7344,126.3438 C549.4375,126.3438 549.2344,126.4375 549.0156,126.75 L548.8438,126.6719 Z "/><text fill="#000000" font-family="sans-serif" font-size="12" lengthAdjust="spacingAndGlyphs" textLength="41" x="560.5" y="135.1543">Moved</text><line style="stroke: #A80036; stroke-width: 1.5;" x1="532.5" x2="603.5" y1="147" y2="147"/><line style="stroke: #A80036; stroke-width: 1.5;" x1="532.5" x2="603.5" y1="155" y2="155"/><!--MD5=[eab4c3e00336c089e0e39f4232e82faa]
class Bottom--><rect fill="#FEFECE" filter="url(#fik16o05rxavn)" height="48" id="Bottom" style="stroke: #A80036; stroke-width: 1.5;" width="75" x="293.5" y="331"/><ellipse cx="308.5" cy="347" fill="#ADD1B2" rx="11" ry="11" style="stroke: #A80036; stroke-width: 1.0;"/><path d="M310.8438,342.6719 C309.9063,342.2344 309.3125,342.0938 308.4375,342.0938 C305.8125,342.0938 303.8125,344.1719 303.8125,346.8906 L303.8125,348.0156 C303.8125,350.5938 305.9219,352.4844 308.8125,352.4844 C310.0313,352.4844 311.1875,352.1875 311.9375,351.6406 C312.5156,351.2344 312.8438,350.7813 312.8438,350.3906 C312.8438,349.9375 312.4531,349.5469 311.9844,349.5469 C311.7656,349.5469 311.5625,349.625 311.375,349.8125 C310.9219,350.2969 310.9219,350.2969 310.7344,350.3906 C310.3125,350.6563 309.625,350.7813 308.8594,350.7813 C306.8125,350.7813 305.5156,349.6875 305.5156,347.9844 L305.5156,346.8906 C305.5156,345.1094 306.7656,343.7969 308.5,343.7969 C309.0781,343.7969 309.6875,343.9531 310.1563,344.2031 C310.6406,344.4844 310.8125,344.7031 310.9063,345.1094 C310.9688,345.5156 311,345.6406 311.1406,345.7656 C311.2813,345.9063 311.5156,346.0156 311.7344,346.0156 C312,346.0156 312.2656,345.875 312.4375,345.6563 C312.5469,345.5 312.5781,345.3125 312.5781,344.8906 L312.5781,343.4688 C312.5781,343.0313 312.5625,342.9063 312.4688,342.75 C312.3125,342.4844 312.0313,342.3438 311.7344,342.3438 C311.4375,342.3438 311.2344,342.4375 311.0156,342.75 L310.8438,342.6719 Z "/><text fill="#000000" font-family="sans-serif" font-size="12" lengthAdjust="spacingAndGlyphs" textLength="43" x="322.5" y="351.1543">Bottom</text><line style="stroke: #A80036; stroke-width: 1.5;" x1="294.5" x2="367.5" y1="363" y2="363"/><line style="stroke: #A80036; stroke-width: 1.5;" x1="294.5" x2="367.5" y1="371" y2="371"/><!--MD5=[af556f6dbe1d20f31b58037e755ce967]
reverse link Unknown to Object--><path d="M347.913,64.831 C315.897,82.324 277.575,103.263 250.145,118.251 " fill="none" id="Unknown&lt;-Object" style="stroke: #A80036; stroke-width: 1.0;"/><polygon fill="none" points="344.997,58.447,365.905,55,351.71,70.733,344.997,58.447" style="stroke: #A80036; stroke-width: 1.0;"/><!--MD5=[673deccc18a1cd95a14ac61d13e1dcbe]
reverse link Object to State(*)--><path d="M160.726,173.815 C135.522,189.813 106.0701,208.506 83.4538,222.862 " fill="none" id="Object&lt;-State(*)" style="stroke: #A80036; stroke-width: 1.0;"/><polygon fill="none" points="157.126,167.808,177.763,163,164.629,179.628,157.126,167.808" style="stroke: #A80036; stroke-width: 1.0;"/><!--MD5=[6b3de51fbafe63b005cc2483bf9865c2]
reverse link Object to Ended--><path d="M191.902,181.094 C184.319,195.196 176.098,210.484 169.541,222.678 " fill="none" id="Object&lt;-Ended" style="stroke: #A80036; stroke-width: 1.0;"/><polygon fill="none" points="185.995,177.3,201.632,163,198.325,183.93,185.995,177.3" style="stroke: #A80036; stroke-width: 1.0;"/><!--MD5=[02bb02c6793cfb8ea7b6380833ce73db]
reverse link Object to NoProtocol--><path d="M237.755,180.613 C246.081,194.848 255.145,210.345 262.359,222.678 " fill="none" id="Object&lt;-NoProtocol" style="stroke: #A80036; stroke-width: 1.0;"/><polygon fill="none" points="231.508,183.798,227.453,163,243.593,176.73,231.508,183.798" style="stroke: #A80036; stroke-width: 1.0;"/><!--MD5=[36c6fe05f1da7a550e5e2b418971f02a]
reverse link Unknown to Null--><path d="M401.2,75.142 C399.334,87.948 397.432,102.021 396,115 C391.848,152.635 388.876,196.544 387.299,222.766 " fill="none" id="Unknown&lt;-Null" style="stroke: #A80036; stroke-width: 1.0;"/><polygon fill="none" points="394.304,73.928,404.218,55.201,408.146,76.024,394.304,73.928" style="stroke: #A80036; stroke-width: 1.0;"/><!--MD5=[cb3a835a5e4fe842011864b8cffdf713]
reverse link Unknown to Primitive--><path d="M426.434,73.575 C432.627,87.543 439.314,102.622 444.659,114.678 " fill="none" id="Unknown&lt;-Primitive" style="stroke: #A80036; stroke-width: 1.0;"/><polygon fill="none" points="419.906,76.121,418.198,55,432.704,70.446,419.906,76.121" style="stroke: #A80036; stroke-width: 1.0;"/><!--MD5=[2a9063048e7fae28cfb3be70fd590ce1]
reverse link Unknown to Moved--><path d="M459.391,66.047 C483.461,81.993 511.511,100.576 533.074,114.862 " fill="none" id="Unknown&lt;-Moved" style="stroke: #A80036; stroke-width: 1.0;"/><polygon fill="none" points="455.525,71.882,442.718,55,463.257,60.211,455.525,71.882" style="stroke: #A80036; stroke-width: 1.0;"/><!--MD5=[49d89471c5a385e8f205353173bb51c9]
reverse link State(*) to Bottom--><path d="M105.9871,271.631 C181.844,300.6473 251.359,325.6952 293.102,340.5747 " fill="none" id="State(*)&lt;-Bottom" style="stroke: #A80036; stroke-width: 1.0;"/><polygon fill="none" points="103.2646,278.084,87.1061,264.376,108.286,265.015,103.2646,278.084" style="stroke: #A80036; stroke-width: 1.0;"/><!--MD5=[9500c0da0a6804154d8d3cffe54c1eb3]
reverse link Ended to Bottom--><path d="M209.505,279.9861 C236.555,296.4646 268.913,316.1771 293.432,331.1138 " fill="none" id="Ended&lt;-Bottom" style="stroke: #A80036; stroke-width: 1.0;"/><polygon fill="none" points="205.65,285.834,192.211,269.451,212.934,273.878,205.65,285.834" style="stroke: #A80036; stroke-width: 1.0;"/><!--MD5=[9ae127a742fa27c40681b7eba80f2b58]
reverse link NoProtocol to Bottom--><path d="M297.322,289.0936 C304.639,303.1958 312.572,318.4838 318.899,330.6784 " fill="none" id="NoProtocol&lt;-Bottom" style="stroke: #A80036; stroke-width: 1.0;"/><polygon fill="none" points="290.932,291.9769,287.934,271,303.359,285.529,290.932,291.9769" style="stroke: #A80036; stroke-width: 1.0;"/><!--MD5=[6a4d73ce24d4ff267dae6195406cbacb]
reverse link Null to Bottom--><path d="M364.678,289.0936 C357.361,303.1958 349.428,318.4838 343.101,330.6784 " fill="none" id="Null&lt;-Bottom" style="stroke: #A80036; stroke-width: 1.0;"/><polygon fill="none" points="358.641,285.529,374.066,271,371.068,291.9769,358.641,285.529" style="stroke: #A80036; stroke-width: 1.0;"/><!--MD5=[cd9badb11c20d0cf57b028737f23ea73]
reverse link Primitive to Bottom--><path d="M454.012,183.459 C451.7,210.282 445.553,244.505 430,271 C415.239,296.145 389.94,317.1556 368.613,331.7466 " fill="none" id="Primitive&lt;-Bottom" style="stroke: #A80036; stroke-width: 1.0;"/><polygon fill="none" points="447.028,182.979,455.164,163.414,461.005,183.782,447.028,182.979" style="stroke: #A80036; stroke-width: 1.0;"/><!--MD5=[f9bf0ed0bb15454d68c33cf45b541b72]
reverse link Moved to Bottom--><path d="M542.095,180.012 C522.95,207.642 495.077,244.109 465,271 C435.623,297.2646 396.897,320.2432 368.634,335.3224 " fill="none" id="Moved&lt;-Bottom" style="stroke: #A80036; stroke-width: 1.0;"/><polygon fill="none" points="536.366,175.988,553.351,163.32,547.973,183.816,536.366,175.988" style="stroke: #A80036; stroke-width: 1.0;"/><!--MD5=[23b065180792df845b969c4c8b522ec3]
@startuml
Unknown <|- - Object
Object <|- - "State(*)"
Object <|- - Ended
Object <|- - NoProtocol
Unknown <|- - Null
Unknown <|- - Primitive
Unknown <|- - Moved
"State(*)" <|- - Bottom
Ended <|- - Bottom
NoProtocol <|- - Bottom
Null <|- - Bottom
Primitive <|- - Bottom
Moved <|- - Bottom
@enduml

PlantUML version 1.2020.15beta1(Unknown compile time)
(GPL source distribution)
Java Runtime: Java(TM) SE Runtime Environment
JVM: Java HotSpot(TM) 64-Bit Server VM
Default Encoding: UTF-8
Language: en
Country: US
--></g></svg>