<?xml version="1.0" encoding="UTF-8" standalone="no"?><svg xmlns="http://www.w3.org/2000/svg" xmlns:xlink="http://www.w3.org/1999/xlink" contentScriptType="application/ecmascript" contentStyleType="text/css" height="283px" preserveAspectRatio="none" style="width:552px;height:283px;" version="1.1" viewBox="0 0 552 283" width="552px" zoomAndPan="magnify"><defs><filter height="300%" id="f48kxsj412521" width="300%" x="-1" y="-1"><feGaussianBlur result="blurOut" stdDeviation="2.0"/><feColorMatrix in="blurOut" result="blurOut2" type="matrix" values="0 0 0 0 0 0 0 0 0 0 0 0 0 0 0 0 0 0 .4 0"/><feOffset dx="4.0" dy="4.0" in="blurOut2" result="blurOut3"/><feBlend in="SourceGraphic" in2="blurOut3" mode="normal"/></filter></defs><g><!--MD5=[f60b16cb516bc977f3d142e48df51d7a]
class Unknown--><rect fill="#FEFECE" filter="url(#f48kxsj412521)" height="48" id="Unknown" style="stroke: #A80036; stroke-width: 1.5;" width="89" x="248.5" y="8"/><ellipse cx="263.5" cy="24" fill="#ADD1B2" rx="11" ry="11" style="stroke: #A80036; stroke-width: 1.0;"/><path d="M265.8438,19.6719 L266.0156,19.75 C266.2344,19.4375 266.4375,19.3438 266.7344,19.3438 C267.0313,19.3438 267.3125,19.4844 267.4688,19.75 C267.5625,19.9063 267.5781,20.0313 267.5781,20.4688 L267.5781,21.8906 C267.5781,22.3125 267.5469,22.5 267.4375,22.6563 C267.2656,22.875 267,23.0156 266.7344,23.0156 C266.5156,23.0156 266.2813,22.9063 266.1406,22.7656 C266,22.6406 265.9688,22.5156 265.9063,22.1094 C265.8125,21.7031 265.6406,21.4844 265.1563,21.2031 C264.6875,20.9531 264.0781,20.7969 263.5,20.7969 C261.7656,20.7969 260.5156,22.1094 260.5156,23.8906 L260.5156,24.9844 C260.5156,26.6875 261.8125,27.7813 263.8594,27.7813 C264.625,27.7813 265.3125,27.6563 265.7344,27.3906 C265.9219,27.2969 265.9219,27.2969 266.375,26.8125 C266.5625,26.625 266.7656,26.5469 266.9844,26.5469 C267.4531,26.5469 267.8438,26.9375 267.8438,27.3906 C267.8438,27.7813 267.5156,28.2344 266.9375,28.6406 C266.1875,29.1875 265.0313,29.4844 263.8125,29.4844 C260.9219,29.4844 258.8125,27.5938 258.8125,25.0156 L258.8125,23.8906 C258.8125,21.1719 260.8125,19.0938 263.4375,19.0938 C264.3125,19.0938 264.9063,19.2344 265.8438,19.6719 Z "/><text fill="#000000" font-family="sans-serif" font-size="12" lengthAdjust="spacingAndGlyphs" textLength="57" x="277.5" y="28.1543">Unknown</text><line style="stroke: #A80036; stroke-width: 1.5;" x1="249.5" x2="336.5" y1="40" y2="40"/><line style="stroke: #A80036; stroke-width: 1.5;" x1="249.5" x2="336.5" y1="48" y2="48"/><!--MD5=[62c99ada650a42958af240b1423f8dcb]
class NotEnded--><rect fill="#FEFECE" filter="url(#f48kxsj412521)" height="48" id="NotEnded" style="stroke: #A80036; stroke-width: 1.5;" width="94" x="6" y="116"/><ellipse cx="21" cy="132" fill="#ADD1B2" rx="11" ry="11" style="stroke: #A80036; stroke-width: 1.0;"/><path d="M23.3438,127.6719 L23.5156,127.75 C23.7344,127.4375 23.9375,127.3438 24.2344,127.3438 C24.5313,127.3438 24.8125,127.4844 24.9688,127.75 C25.0625,127.9063 25.0781,128.0313 25.0781,128.4688 L25.0781,129.8906 C25.0781,130.3125 25.0469,130.5 24.9375,130.6563 C24.7656,130.875 24.5,131.0156 24.2344,131.0156 C24.0156,131.0156 23.7813,130.9063 23.6406,130.7656 C23.5,130.6406 23.4688,130.5156 23.4063,130.1094 C23.3125,129.7031 23.1406,129.4844 22.6563,129.2031 C22.1875,128.9531 21.5781,128.7969 21,128.7969 C19.2656,128.7969 18.0156,130.1094 18.0156,131.8906 L18.0156,132.9844 C18.0156,134.6875 19.3125,135.7813 21.3594,135.7813 C22.125,135.7813 22.8125,135.6563 23.2344,135.3906 C23.4219,135.2969 23.4219,135.2969 23.875,134.8125 C24.0625,134.625 24.2656,134.5469 24.4844,134.5469 C24.9531,134.5469 25.3438,134.9375 25.3438,135.3906 C25.3438,135.7813 25.0156,136.2344 24.4375,136.6406 C23.6875,137.1875 22.5313,137.4844 21.3125,137.4844 C18.4219,137.4844 16.3125,135.5938 16.3125,133.0156 L16.3125,131.8906 C16.3125,129.1719 18.3125,127.0938 20.9375,127.0938 C21.8125,127.0938 22.4063,127.2344 23.3438,127.6719 Z "/><text fill="#000000" font-family="sans-serif" font-size="12" lengthAdjust="spacingAndGlyphs" textLength="62" x="35" y="136.1543">NotEnded</text><line style="stroke: #A80036; stroke-width: 1.5;" x1="7" x2="99" y1="148" y2="148"/><line style="stroke: #A80036; stroke-width: 1.5;" x1="7" x2="99" y1="156" y2="156"/><!--MD5=[6e201656357d2a267ccc7b2b5517d677]
class Ended--><rect fill="#FEFECE" filter="url(#f48kxsj412521)" height="48" id="Ended" style="stroke: #A80036; stroke-width: 1.5;" width="72" x="135" y="116"/><ellipse cx="150" cy="132" fill="#ADD1B2" rx="11" ry="11" style="stroke: #A80036; stroke-width: 1.0;"/><path d="M152.3438,127.6719 L152.5156,127.75 C152.7344,127.4375 152.9375,127.3438 153.2344,127.3438 C153.5313,127.3438 153.8125,127.4844 153.9688,127.75 C154.0625,127.9063 154.0781,128.0313 154.0781,128.4688 L154.0781,129.8906 C154.0781,130.3125 154.0469,130.5 153.9375,130.6563 C153.7656,130.875 153.5,131.0156 153.2344,131.0156 C153.0156,131.0156 152.7813,130.9063 152.6406,130.7656 C152.5,130.6406 152.4688,130.5156 152.4063,130.1094 C152.3125,129.7031 152.1406,129.4844 151.6563,129.2031 C151.1875,128.9531 150.5781,128.7969 150,128.7969 C148.2656,128.7969 147.0156,130.1094 147.0156,131.8906 L147.0156,132.9844 C147.0156,134.6875 148.3125,135.7813 150.3594,135.7813 C151.125,135.7813 151.8125,135.6563 152.2344,135.3906 C152.4219,135.2969 152.4219,135.2969 152.875,134.8125 C153.0625,134.625 153.2656,134.5469 153.4844,134.5469 C153.9531,134.5469 154.3438,134.9375 154.3438,135.3906 C154.3438,135.7813 154.0156,136.2344 153.4375,136.6406 C152.6875,137.1875 151.5313,137.4844 150.3125,137.4844 C147.4219,137.4844 145.3125,135.5938 145.3125,133.0156 L145.3125,131.8906 C145.3125,129.1719 147.3125,127.0938 149.9375,127.0938 C150.8125,127.0938 151.4063,127.2344 152.3438,127.6719 Z "/><text fill="#000000" font-family="sans-serif" font-size="12" lengthAdjust="spacingAndGlyphs" textLength="40" x="164" y="136.1543">Ended</text><line style="stroke: #A80036; stroke-width: 1.5;" x1="136" x2="206" y1="148" y2="148"/><line style="stroke: #A80036; stroke-width: 1.5;" x1="136" x2="206" y1="156" y2="156"/><!--MD5=[8cdc72c3d96bf0a01515a4149faeac21]
class NoProtocol--><rect fill="#FEFECE" filter="url(#f48kxsj412521)" height="48" id="NoProtocol" style="stroke: #A80036; stroke-width: 1.5;" width="101" x="242.5" y="116"/><ellipse cx="257.5" cy="132" fill="#ADD1B2" rx="11" ry="11" style="stroke: #A80036; stroke-width: 1.0;"/><path d="M259.8438,127.6719 L260.0156,127.75 C260.2344,127.4375 260.4375,127.3438 260.7344,127.3438 C261.0313,127.3438 261.3125,127.4844 261.4688,127.75 C261.5625,127.9063 261.5781,128.0313 261.5781,128.4688 L261.5781,129.8906 C261.5781,130.3125 261.5469,130.5 261.4375,130.6563 C261.2656,130.875 261,131.0156 260.7344,131.0156 C260.5156,131.0156 260.2813,130.9063 260.1406,130.7656 C260,130.6406 259.9688,130.5156 259.9063,130.1094 C259.8125,129.7031 259.6406,129.4844 259.1563,129.2031 C258.6875,128.9531 258.0781,128.7969 257.5,128.7969 C255.7656,128.7969 254.5156,130.1094 254.5156,131.8906 L254.5156,132.9844 C254.5156,134.6875 255.8125,135.7813 257.8594,135.7813 C258.625,135.7813 259.3125,135.6563 259.7344,135.3906 C259.9219,135.2969 259.9219,135.2969 260.375,134.8125 C260.5625,134.625 260.7656,134.5469 260.9844,134.5469 C261.4531,134.5469 261.8438,134.9375 261.8438,135.3906 C261.8438,135.7813 261.5156,136.2344 260.9375,136.6406 C260.1875,137.1875 259.0313,137.4844 257.8125,137.4844 C254.9219,137.4844 252.8125,135.5938 252.8125,133.0156 L252.8125,131.8906 C252.8125,129.1719 254.8125,127.0938 257.4375,127.0938 C258.3125,127.0938 258.9063,127.2344 259.8438,127.6719 Z "/><text fill="#000000" font-family="sans-serif" font-size="12" lengthAdjust="spacingAndGlyphs" textLength="69" x="271.5" y="136.1543">NoProtocol</text><line style="stroke: #A80036; stroke-width: 1.5;" x1="243.5" x2="342.5" y1="148" y2="148"/><line style="stroke: #A80036; stroke-width: 1.5;" x1="243.5" x2="342.5" y1="156" y2="156"/><!--MD5=[c330aa171b4ae5600de6569adaab31c4]
class Null--><rect fill="#FEFECE" filter="url(#f48kxsj412521)" height="48" id="Null" style="stroke: #A80036; stroke-width: 1.5;" width="55" x="378.5" y="116"/><ellipse cx="393.5" cy="132" fill="#ADD1B2" rx="11" ry="11" style="stroke: #A80036; stroke-width: 1.0;"/><path d="M395.8438,127.6719 L396.0156,127.75 C396.2344,127.4375 396.4375,127.3438 396.7344,127.3438 C397.0313,127.3438 397.3125,127.4844 397.4688,127.75 C397.5625,127.9063 397.5781,128.0313 397.5781,128.4688 L397.5781,129.8906 C397.5781,130.3125 397.5469,130.5 397.4375,130.6563 C397.2656,130.875 397,131.0156 396.7344,131.0156 C396.5156,131.0156 396.2813,130.9063 396.1406,130.7656 C396,130.6406 395.9688,130.5156 395.9063,130.1094 C395.8125,129.7031 395.6406,129.4844 395.1563,129.2031 C394.6875,128.9531 394.0781,128.7969 393.5,128.7969 C391.7656,128.7969 390.5156,130.1094 390.5156,131.8906 L390.5156,132.9844 C390.5156,134.6875 391.8125,135.7813 393.8594,135.7813 C394.625,135.7813 395.3125,135.6563 395.7344,135.3906 C395.9219,135.2969 395.9219,135.2969 396.375,134.8125 C396.5625,134.625 396.7656,134.5469 396.9844,134.5469 C397.4531,134.5469 397.8438,134.9375 397.8438,135.3906 C397.8438,135.7813 397.5156,136.2344 396.9375,136.6406 C396.1875,137.1875 395.0313,137.4844 393.8125,137.4844 C390.9219,137.4844 388.8125,135.5938 388.8125,133.0156 L388.8125,131.8906 C388.8125,129.1719 390.8125,127.0938 393.4375,127.0938 C394.3125,127.0938 394.9063,127.2344 395.8438,127.6719 Z "/><text fill="#000000" font-family="sans-serif" font-size="12" lengthAdjust="spacingAndGlyphs" textLength="23" x="407.5" y="136.1543">Null</text><line style="stroke: #A80036; stroke-width: 1.5;" x1="379.5" x2="432.5" y1="148" y2="148"/><line style="stroke: #A80036; stroke-width: 1.5;" x1="379.5" x2="432.5" y1="156" y2="156"/><!--MD5=[a25e85bdbd154cdfe48ea638e97861a8]
class Moved--><rect fill="#FEFECE" filter="url(#f48kxsj412521)" height="48" id="Moved" style="stroke: #A80036; stroke-width: 1.5;" width="72" x="469" y="116"/><ellipse cx="484" cy="132" fill="#ADD1B2" rx="11" ry="11" style="stroke: #A80036; stroke-width: 1.0;"/><path d="M486.3438,127.6719 L486.5156,127.75 C486.7344,127.4375 486.9375,127.3438 487.2344,127.3438 C487.5313,127.3438 487.8125,127.4844 487.9688,127.75 C488.0625,127.9063 488.0781,128.0313 488.0781,128.4688 L488.0781,129.8906 C488.0781,130.3125 488.0469,130.5 487.9375,130.6563 C487.7656,130.875 487.5,131.0156 487.2344,131.0156 C487.0156,131.0156 486.7813,130.9063 486.6406,130.7656 C486.5,130.6406 486.4688,130.5156 486.4063,130.1094 C486.3125,129.7031 486.1406,129.4844 485.6563,129.2031 C485.1875,128.9531 484.5781,128.7969 484,128.7969 C482.2656,128.7969 481.0156,130.1094 481.0156,131.8906 L481.0156,132.9844 C481.0156,134.6875 482.3125,135.7813 484.3594,135.7813 C485.125,135.7813 485.8125,135.6563 486.2344,135.3906 C486.4219,135.2969 486.4219,135.2969 486.875,134.8125 C487.0625,134.625 487.2656,134.5469 487.4844,134.5469 C487.9531,134.5469 488.3438,134.9375 488.3438,135.3906 C488.3438,135.7813 488.0156,136.2344 487.4375,136.6406 C486.6875,137.1875 485.5313,137.4844 484.3125,137.4844 C481.4219,137.4844 479.3125,135.5938 479.3125,133.0156 L479.3125,131.8906 C479.3125,129.1719 481.3125,127.0938 483.9375,127.0938 C484.8125,127.0938 485.4063,127.2344 486.3438,127.6719 Z "/><text fill="#000000" font-family="sans-serif" font-size="12" lengthAdjust="spacingAndGlyphs" textLength="40" x="498" y="136.1543">Moved</text><line style="stroke: #A80036; stroke-width: 1.5;" x1="470" x2="540" y1="148" y2="148"/><line style="stroke: #A80036; stroke-width: 1.5;" x1="470" x2="540" y1="156" y2="156"/><!--MD5=[eab4c3e00336c089e0e39f4232e82faa]
class Bottom--><rect fill="#FEFECE" filter="url(#f48kxsj412521)" height="48" id="Bottom" style="stroke: #A80036; stroke-width: 1.5;" width="77" x="254.5" y="224"/><ellipse cx="269.5" cy="240" fill="#ADD1B2" rx="11" ry="11" style="stroke: #A80036; stroke-width: 1.0;"/><path d="M271.8438,235.6719 L272.0156,235.75 C272.2344,235.4375 272.4375,235.3438 272.7344,235.3438 C273.0313,235.3438 273.3125,235.4844 273.4688,235.75 C273.5625,235.9063 273.5781,236.0313 273.5781,236.4688 L273.5781,237.8906 C273.5781,238.3125 273.5469,238.5 273.4375,238.6563 C273.2656,238.875 273,239.0156 272.7344,239.0156 C272.5156,239.0156 272.2813,238.9063 272.1406,238.7656 C272,238.6406 271.9688,238.5156 271.9063,238.1094 C271.8125,237.7031 271.6406,237.4844 271.1563,237.2031 C270.6875,236.9531 270.0781,236.7969 269.5,236.7969 C267.7656,236.7969 266.5156,238.1094 266.5156,239.8906 L266.5156,240.9844 C266.5156,242.6875 267.8125,243.7813 269.8594,243.7813 C270.625,243.7813 271.3125,243.6563 271.7344,243.3906 C271.9219,243.2969 271.9219,243.2969 272.375,242.8125 C272.5625,242.625 272.7656,242.5469 272.9844,242.5469 C273.4531,242.5469 273.8438,242.9375 273.8438,243.3906 C273.8438,243.7813 273.5156,244.2344 272.9375,244.6406 C272.1875,245.1875 271.0313,245.4844 269.8125,245.4844 C266.9219,245.4844 264.8125,243.5938 264.8125,241.0156 L264.8125,239.8906 C264.8125,237.1719 266.8125,235.0938 269.4375,235.0938 C270.3125,235.0938 270.9063,235.2344 271.8438,235.6719 Z "/><text fill="#000000" font-family="sans-serif" font-size="12" lengthAdjust="spacingAndGlyphs" textLength="45" x="283.5" y="244.1543">Bottom</text><line style="stroke: #A80036; stroke-width: 1.5;" x1="255.5" x2="330.5" y1="256" y2="256"/><line style="stroke: #A80036; stroke-width: 1.5;" x1="255.5" x2="330.5" y1="264" y2="264"/><!--MD5=[1e64a03bb3c34bdd3c1c77c338568b80]
reverse link Unknown to NotEnded--><path d="M230.062,60.798 C189.397,78.758 137.337,101.751 100.2138,118.147 " fill="none" id="Unknown&lt;-NotEnded" style="stroke: #A80036; stroke-width: 1.0;"/><polygon fill="none" points="227.297,54.366,248.42,52.689,232.953,67.173,227.297,54.366" style="stroke: #A80036; stroke-width: 1.0;"/><!--MD5=[d936b1e7ea87ff914d79943fb01a2906]
reverse link Unknown to Ended--><path d="M251.177,69.338 C233.518,84.681 213.472,102.098 197.842,115.678 " fill="none" id="Unknown&lt;-Ended" style="stroke: #A80036; stroke-width: 1.0;"/><polygon fill="none" points="246.839,63.834,266.528,56,256.021,74.402,246.839,63.834" style="stroke: #A80036; stroke-width: 1.0;"/><!--MD5=[e29bd14bdb2366f564fc151e20302737]
reverse link Unknown to NoProtocol--><path d="M293,76.024 C293,89.579 293,104.038 293,115.678 " fill="none" id="Unknown&lt;-NoProtocol" style="stroke: #A80036; stroke-width: 1.0;"/><polygon fill="none" points="286,76,293,56,300,76,286,76" style="stroke: #A80036; stroke-width: 1.0;"/><!--MD5=[36c6fe05f1da7a550e5e2b418971f02a]
reverse link Unknown to Null--><path d="M332.239,69.809 C348.473,85.036 366.809,102.237 381.138,115.678 " fill="none" id="Unknown&lt;-Null" style="stroke: #A80036; stroke-width: 1.0;"/><polygon fill="none" points="327.317,74.789,317.519,56,336.895,64.578,327.317,74.789" style="stroke: #A80036; stroke-width: 1.0;"/><!--MD5=[2a9063048e7fae28cfb3be70fd590ce1]
reverse link Unknown to Moved--><path d="M355.808,64.404 C392.64,82.82 437.865,105.433 468.805,120.902 " fill="none" id="Unknown&lt;-Moved" style="stroke: #A80036; stroke-width: 1.0;"/><polygon fill="none" points="352.459,70.556,337.701,55.35,358.72,58.034,352.459,70.556" style="stroke: #A80036; stroke-width: 1.0;"/><!--MD5=[583d7ea06332f85b52940ed16ed57fd5]
reverse link NotEnded to Bottom--><path d="M118.55,169.951 C162.061,189.1688 217.695,213.7402 254.291,229.9035 " fill="none" id="NotEnded&lt;-Bottom" style="stroke: #A80036; stroke-width: 1.0;"/><polygon fill="none" points="115.597,176.2994,100.1299,161.816,121.253,163.493,115.597,176.2994" style="stroke: #A80036; stroke-width: 1.0;"/><!--MD5=[9500c0da0a6804154d8d3cffe54c1eb3]
reverse link Ended to Bottom--><path d="M212.823,177.3383 C230.482,192.6813 250.528,210.098 266.158,223.6784 " fill="none" id="Ended&lt;-Bottom" style="stroke: #A80036; stroke-width: 1.0;"/><polygon fill="none" points="207.979,182.402,197.472,164,217.161,171.834,207.979,182.402" style="stroke: #A80036; stroke-width: 1.0;"/><!--MD5=[9ae127a742fa27c40681b7eba80f2b58]
reverse link NoProtocol to Bottom--><path d="M293,184.0236 C293,197.5792 293,212.0381 293,223.6784 " fill="none" id="NoProtocol&lt;-Bottom" style="stroke: #A80036; stroke-width: 1.0;"/><polygon fill="none" points="286,184.0005,293,164,300,184.0004,286,184.0005" style="stroke: #A80036; stroke-width: 1.0;"/><!--MD5=[6a4d73ce24d4ff267dae6195406cbacb]
reverse link Null to Bottom--><path d="M366.761,177.8086 C350.527,193.0363 332.191,210.2366 317.862,223.6784 " fill="none" id="Null&lt;-Bottom" style="stroke: #A80036; stroke-width: 1.0;"/><polygon fill="none" points="362.105,172.5782,381.481,164,371.683,182.7889,362.105,172.5782" style="stroke: #A80036; stroke-width: 1.0;"/><!--MD5=[f9bf0ed0bb15454d68c33cf45b541b72]
reverse link Moved to Bottom--><path d="M450.553,168.224 C413.414,186.7928 365.115,210.9423 331.836,227.5821 " fill="none" id="Moved&lt;-Bottom" style="stroke: #A80036; stroke-width: 1.0;"/><polygon fill="none" points="447.537,161.905,468.556,159.222,453.798,174.4274,447.537,161.905" style="stroke: #A80036; stroke-width: 1.0;"/><!--MD5=[142babcb90e62227bfce8eb58c7ac5bf]
@startuml
Unknown <|- - NotEnded
Unknown <|- - Ended
Unknown <|- - NoProtocol
Unknown <|- - Null
Unknown <|- - Moved
NotEnded <|- - Bottom
Ended <|- - Bottom
NoProtocol <|- - Bottom
Null <|- - Bottom
Moved <|- - Bottom
@enduml

PlantUML version 1.2020.03beta11(Unknown compile time)
(GPL source distribution)
Java Runtime: Java(TM) SE Runtime Environment
JVM: Java HotSpot(TM) 64-Bit Server VM
Java Version: 1.7.0_25-b15
Operating System: Linux
Default Encoding: UTF-8
Language: en
Country: US
--></g></svg>