<?xml version="1.0" encoding="UTF-8" standalone="no"?><svg xmlns="http://www.w3.org/2000/svg" xmlns:xlink="http://www.w3.org/1999/xlink" contentScriptType="application/ecmascript" contentStyleType="text/css" height="391px" preserveAspectRatio="none" style="width:636px;height:391px;" version="1.1" viewBox="0 0 636 391" width="636px" zoomAndPan="magnify"><defs><filter height="300%" id="fq3mrmqrby0dj" width="300%" x="-1" y="-1"><feGaussianBlur result="blurOut" stdDeviation="2.0"/><feColorMatrix in="blurOut" result="blurOut2" type="matrix" values="0 0 0 0 0 0 0 0 0 0 0 0 0 0 0 0 0 0 .4 0"/><feOffset dx="4.0" dy="4.0" in="blurOut2" result="blurOut3"/><feBlend in="SourceGraphic" in2="blurOut3" mode="normal"/></filter></defs><g><!--MD5=[f60b16cb516bc977f3d142e48df51d7a]
class Unknown--><rect fill="#FEFECE" filter="url(#fq3mrmqrby0dj)" height="48" id="Unknown" style="stroke: #A80036; stroke-width: 1.5;" width="89" x="383.5" y="8"/><ellipse cx="398.5" cy="24" fill="#ADD1B2" rx="11" ry="11" style="stroke: #A80036; stroke-width: 1.0;"/><path d="M400.8438,19.6719 L401.0156,19.75 C401.2344,19.4375 401.4375,19.3438 401.7344,19.3438 C402.0313,19.3438 402.3125,19.4844 402.4688,19.75 C402.5625,19.9063 402.5781,20.0313 402.5781,20.4688 L402.5781,21.8906 C402.5781,22.3125 402.5469,22.5 402.4375,22.6563 C402.2656,22.875 402,23.0156 401.7344,23.0156 C401.5156,23.0156 401.2813,22.9063 401.1406,22.7656 C401,22.6406 400.9688,22.5156 400.9063,22.1094 C400.8125,21.7031 400.6406,21.4844 400.1563,21.2031 C399.6875,20.9531 399.0781,20.7969 398.5,20.7969 C396.7656,20.7969 395.5156,22.1094 395.5156,23.8906 L395.5156,24.9844 C395.5156,26.6875 396.8125,27.7813 398.8594,27.7813 C399.625,27.7813 400.3125,27.6563 400.7344,27.3906 C400.9219,27.2969 400.9219,27.2969 401.375,26.8125 C401.5625,26.625 401.7656,26.5469 401.9844,26.5469 C402.4531,26.5469 402.8438,26.9375 402.8438,27.3906 C402.8438,27.7813 402.5156,28.2344 401.9375,28.6406 C401.1875,29.1875 400.0313,29.4844 398.8125,29.4844 C395.9219,29.4844 393.8125,27.5938 393.8125,25.0156 L393.8125,23.8906 C393.8125,21.1719 395.8125,19.0938 398.4375,19.0938 C399.3125,19.0938 399.9063,19.2344 400.8438,19.6719 Z "/><text fill="#000000" font-family="sans-serif" font-size="12" lengthAdjust="spacingAndGlyphs" textLength="57" x="412.5" y="28.1543">Unknown</text><line style="stroke: #A80036; stroke-width: 1.5;" x1="384.5" x2="471.5" y1="40" y2="40"/><line style="stroke: #A80036; stroke-width: 1.5;" x1="384.5" x2="471.5" y1="48" y2="48"/><!--MD5=[aa7f586532e18719e6cefa70fc650583]
class Object--><rect fill="#FEFECE" filter="url(#fq3mrmqrby0dj)" height="48" id="Object" style="stroke: #A80036; stroke-width: 1.5;" width="72" x="195" y="116"/><ellipse cx="210" cy="132" fill="#ADD1B2" rx="11" ry="11" style="stroke: #A80036; stroke-width: 1.0;"/><path d="M212.3438,127.6719 L212.5156,127.75 C212.7344,127.4375 212.9375,127.3438 213.2344,127.3438 C213.5313,127.3438 213.8125,127.4844 213.9688,127.75 C214.0625,127.9063 214.0781,128.0313 214.0781,128.4688 L214.0781,129.8906 C214.0781,130.3125 214.0469,130.5 213.9375,130.6563 C213.7656,130.875 213.5,131.0156 213.2344,131.0156 C213.0156,131.0156 212.7813,130.9063 212.6406,130.7656 C212.5,130.6406 212.4688,130.5156 212.4063,130.1094 C212.3125,129.7031 212.1406,129.4844 211.6563,129.2031 C211.1875,128.9531 210.5781,128.7969 210,128.7969 C208.2656,128.7969 207.0156,130.1094 207.0156,131.8906 L207.0156,132.9844 C207.0156,134.6875 208.3125,135.7813 210.3594,135.7813 C211.125,135.7813 211.8125,135.6563 212.2344,135.3906 C212.4219,135.2969 212.4219,135.2969 212.875,134.8125 C213.0625,134.625 213.2656,134.5469 213.4844,134.5469 C213.9531,134.5469 214.3438,134.9375 214.3438,135.3906 C214.3438,135.7813 214.0156,136.2344 213.4375,136.6406 C212.6875,137.1875 211.5313,137.4844 210.3125,137.4844 C207.4219,137.4844 205.3125,135.5938 205.3125,133.0156 L205.3125,131.8906 C205.3125,129.1719 207.3125,127.0938 209.9375,127.0938 C210.8125,127.0938 211.4063,127.2344 212.3438,127.6719 Z "/><text fill="#000000" font-family="sans-serif" font-size="12" lengthAdjust="spacingAndGlyphs" textLength="40" x="224" y="136.1543">Object</text><line style="stroke: #A80036; stroke-width: 1.5;" x1="196" x2="266" y1="148" y2="148"/><line style="stroke: #A80036; stroke-width: 1.5;" x1="196" x2="266" y1="156" y2="156"/><!--MD5=[62c99ada650a42958af240b1423f8dcb]
class NotEnded--><rect fill="#FEFECE" filter="url(#fq3mrmqrby0dj)" height="48" id="NotEnded" style="stroke: #A80036; stroke-width: 1.5;" width="94" x="6" y="224"/><ellipse cx="21" cy="240" fill="#ADD1B2" rx="11" ry="11" style="stroke: #A80036; stroke-width: 1.0;"/><path d="M23.3438,235.6719 L23.5156,235.75 C23.7344,235.4375 23.9375,235.3438 24.2344,235.3438 C24.5313,235.3438 24.8125,235.4844 24.9688,235.75 C25.0625,235.9063 25.0781,236.0313 25.0781,236.4688 L25.0781,237.8906 C25.0781,238.3125 25.0469,238.5 24.9375,238.6563 C24.7656,238.875 24.5,239.0156 24.2344,239.0156 C24.0156,239.0156 23.7813,238.9063 23.6406,238.7656 C23.5,238.6406 23.4688,238.5156 23.4063,238.1094 C23.3125,237.7031 23.1406,237.4844 22.6563,237.2031 C22.1875,236.9531 21.5781,236.7969 21,236.7969 C19.2656,236.7969 18.0156,238.1094 18.0156,239.8906 L18.0156,240.9844 C18.0156,242.6875 19.3125,243.7813 21.3594,243.7813 C22.125,243.7813 22.8125,243.6563 23.2344,243.3906 C23.4219,243.2969 23.4219,243.2969 23.875,242.8125 C24.0625,242.625 24.2656,242.5469 24.4844,242.5469 C24.9531,242.5469 25.3438,242.9375 25.3438,243.3906 C25.3438,243.7813 25.0156,244.2344 24.4375,244.6406 C23.6875,245.1875 22.5313,245.4844 21.3125,245.4844 C18.4219,245.4844 16.3125,243.5938 16.3125,241.0156 L16.3125,239.8906 C16.3125,237.1719 18.3125,235.0938 20.9375,235.0938 C21.8125,235.0938 22.4063,235.2344 23.3438,235.6719 Z "/><text fill="#000000" font-family="sans-serif" font-size="12" lengthAdjust="spacingAndGlyphs" textLength="62" x="35" y="244.1543">NotEnded</text><line style="stroke: #A80036; stroke-width: 1.5;" x1="7" x2="99" y1="256" y2="256"/><line style="stroke: #A80036; stroke-width: 1.5;" x1="7" x2="99" y1="264" y2="264"/><!--MD5=[6e201656357d2a267ccc7b2b5517d677]
class Ended--><rect fill="#FEFECE" filter="url(#fq3mrmqrby0dj)" height="48" id="Ended" style="stroke: #A80036; stroke-width: 1.5;" width="72" x="135" y="224"/><ellipse cx="150" cy="240" fill="#ADD1B2" rx="11" ry="11" style="stroke: #A80036; stroke-width: 1.0;"/><path d="M152.3438,235.6719 L152.5156,235.75 C152.7344,235.4375 152.9375,235.3438 153.2344,235.3438 C153.5313,235.3438 153.8125,235.4844 153.9688,235.75 C154.0625,235.9063 154.0781,236.0313 154.0781,236.4688 L154.0781,237.8906 C154.0781,238.3125 154.0469,238.5 153.9375,238.6563 C153.7656,238.875 153.5,239.0156 153.2344,239.0156 C153.0156,239.0156 152.7813,238.9063 152.6406,238.7656 C152.5,238.6406 152.4688,238.5156 152.4063,238.1094 C152.3125,237.7031 152.1406,237.4844 151.6563,237.2031 C151.1875,236.9531 150.5781,236.7969 150,236.7969 C148.2656,236.7969 147.0156,238.1094 147.0156,239.8906 L147.0156,240.9844 C147.0156,242.6875 148.3125,243.7813 150.3594,243.7813 C151.125,243.7813 151.8125,243.6563 152.2344,243.3906 C152.4219,243.2969 152.4219,243.2969 152.875,242.8125 C153.0625,242.625 153.2656,242.5469 153.4844,242.5469 C153.9531,242.5469 154.3438,242.9375 154.3438,243.3906 C154.3438,243.7813 154.0156,244.2344 153.4375,244.6406 C152.6875,245.1875 151.5313,245.4844 150.3125,245.4844 C147.4219,245.4844 145.3125,243.5938 145.3125,241.0156 L145.3125,239.8906 C145.3125,237.1719 147.3125,235.0938 149.9375,235.0938 C150.8125,235.0938 151.4063,235.2344 152.3438,235.6719 Z "/><text fill="#000000" font-family="sans-serif" font-size="12" lengthAdjust="spacingAndGlyphs" textLength="40" x="164" y="244.1543">Ended</text><line style="stroke: #A80036; stroke-width: 1.5;" x1="136" x2="206" y1="256" y2="256"/><line style="stroke: #A80036; stroke-width: 1.5;" x1="136" x2="206" y1="264" y2="264"/><!--MD5=[8cdc72c3d96bf0a01515a4149faeac21]
class NoProtocol--><rect fill="#FEFECE" filter="url(#fq3mrmqrby0dj)" height="48" id="NoProtocol" style="stroke: #A80036; stroke-width: 1.5;" width="101" x="242.5" y="224"/><ellipse cx="257.5" cy="240" fill="#ADD1B2" rx="11" ry="11" style="stroke: #A80036; stroke-width: 1.0;"/><path d="M259.8438,235.6719 L260.0156,235.75 C260.2344,235.4375 260.4375,235.3438 260.7344,235.3438 C261.0313,235.3438 261.3125,235.4844 261.4688,235.75 C261.5625,235.9063 261.5781,236.0313 261.5781,236.4688 L261.5781,237.8906 C261.5781,238.3125 261.5469,238.5 261.4375,238.6563 C261.2656,238.875 261,239.0156 260.7344,239.0156 C260.5156,239.0156 260.2813,238.9063 260.1406,238.7656 C260,238.6406 259.9688,238.5156 259.9063,238.1094 C259.8125,237.7031 259.6406,237.4844 259.1563,237.2031 C258.6875,236.9531 258.0781,236.7969 257.5,236.7969 C255.7656,236.7969 254.5156,238.1094 254.5156,239.8906 L254.5156,240.9844 C254.5156,242.6875 255.8125,243.7813 257.8594,243.7813 C258.625,243.7813 259.3125,243.6563 259.7344,243.3906 C259.9219,243.2969 259.9219,243.2969 260.375,242.8125 C260.5625,242.625 260.7656,242.5469 260.9844,242.5469 C261.4531,242.5469 261.8438,242.9375 261.8438,243.3906 C261.8438,243.7813 261.5156,244.2344 260.9375,244.6406 C260.1875,245.1875 259.0313,245.4844 257.8125,245.4844 C254.9219,245.4844 252.8125,243.5938 252.8125,241.0156 L252.8125,239.8906 C252.8125,237.1719 254.8125,235.0938 257.4375,235.0938 C258.3125,235.0938 258.9063,235.2344 259.8438,235.6719 Z "/><text fill="#000000" font-family="sans-serif" font-size="12" lengthAdjust="spacingAndGlyphs" textLength="69" x="271.5" y="244.1543">NoProtocol</text><line style="stroke: #A80036; stroke-width: 1.5;" x1="243.5" x2="342.5" y1="256" y2="256"/><line style="stroke: #A80036; stroke-width: 1.5;" x1="243.5" x2="342.5" y1="264" y2="264"/><!--MD5=[c330aa171b4ae5600de6569adaab31c4]
class Null--><rect fill="#FEFECE" filter="url(#fq3mrmqrby0dj)" height="48" id="Null" style="stroke: #A80036; stroke-width: 1.5;" width="55" x="378.5" y="224"/><ellipse cx="393.5" cy="240" fill="#ADD1B2" rx="11" ry="11" style="stroke: #A80036; stroke-width: 1.0;"/><path d="M395.8438,235.6719 L396.0156,235.75 C396.2344,235.4375 396.4375,235.3438 396.7344,235.3438 C397.0313,235.3438 397.3125,235.4844 397.4688,235.75 C397.5625,235.9063 397.5781,236.0313 397.5781,236.4688 L397.5781,237.8906 C397.5781,238.3125 397.5469,238.5 397.4375,238.6563 C397.2656,238.875 397,239.0156 396.7344,239.0156 C396.5156,239.0156 396.2813,238.9063 396.1406,238.7656 C396,238.6406 395.9688,238.5156 395.9063,238.1094 C395.8125,237.7031 395.6406,237.4844 395.1563,237.2031 C394.6875,236.9531 394.0781,236.7969 393.5,236.7969 C391.7656,236.7969 390.5156,238.1094 390.5156,239.8906 L390.5156,240.9844 C390.5156,242.6875 391.8125,243.7813 393.8594,243.7813 C394.625,243.7813 395.3125,243.6563 395.7344,243.3906 C395.9219,243.2969 395.9219,243.2969 396.375,242.8125 C396.5625,242.625 396.7656,242.5469 396.9844,242.5469 C397.4531,242.5469 397.8438,242.9375 397.8438,243.3906 C397.8438,243.7813 397.5156,244.2344 396.9375,244.6406 C396.1875,245.1875 395.0313,245.4844 393.8125,245.4844 C390.9219,245.4844 388.8125,243.5938 388.8125,241.0156 L388.8125,239.8906 C388.8125,237.1719 390.8125,235.0938 393.4375,235.0938 C394.3125,235.0938 394.9063,235.2344 395.8438,235.6719 Z "/><text fill="#000000" font-family="sans-serif" font-size="12" lengthAdjust="spacingAndGlyphs" textLength="23" x="407.5" y="244.1543">Null</text><line style="stroke: #A80036; stroke-width: 1.5;" x1="379.5" x2="432.5" y1="256" y2="256"/><line style="stroke: #A80036; stroke-width: 1.5;" x1="379.5" x2="432.5" y1="264" y2="264"/><!--MD5=[204a995c784cbe6b3a7450752a2139a2]
class Primitive--><rect fill="#FEFECE" filter="url(#fq3mrmqrby0dj)" height="48" id="Primitive" style="stroke: #A80036; stroke-width: 1.5;" width="84" x="434" y="116"/><ellipse cx="449" cy="132" fill="#ADD1B2" rx="11" ry="11" style="stroke: #A80036; stroke-width: 1.0;"/><path d="M451.3438,127.6719 L451.5156,127.75 C451.7344,127.4375 451.9375,127.3438 452.2344,127.3438 C452.5313,127.3438 452.8125,127.4844 452.9688,127.75 C453.0625,127.9063 453.0781,128.0313 453.0781,128.4688 L453.0781,129.8906 C453.0781,130.3125 453.0469,130.5 452.9375,130.6563 C452.7656,130.875 452.5,131.0156 452.2344,131.0156 C452.0156,131.0156 451.7813,130.9063 451.6406,130.7656 C451.5,130.6406 451.4688,130.5156 451.4063,130.1094 C451.3125,129.7031 451.1406,129.4844 450.6563,129.2031 C450.1875,128.9531 449.5781,128.7969 449,128.7969 C447.2656,128.7969 446.0156,130.1094 446.0156,131.8906 L446.0156,132.9844 C446.0156,134.6875 447.3125,135.7813 449.3594,135.7813 C450.125,135.7813 450.8125,135.6563 451.2344,135.3906 C451.4219,135.2969 451.4219,135.2969 451.875,134.8125 C452.0625,134.625 452.2656,134.5469 452.4844,134.5469 C452.9531,134.5469 453.3438,134.9375 453.3438,135.3906 C453.3438,135.7813 453.0156,136.2344 452.4375,136.6406 C451.6875,137.1875 450.5313,137.4844 449.3125,137.4844 C446.4219,137.4844 444.3125,135.5938 444.3125,133.0156 L444.3125,131.8906 C444.3125,129.1719 446.3125,127.0938 448.9375,127.0938 C449.8125,127.0938 450.4063,127.2344 451.3438,127.6719 Z "/><text fill="#000000" font-family="sans-serif" font-size="12" lengthAdjust="spacingAndGlyphs" textLength="52" x="463" y="136.1543">Primitive</text><line style="stroke: #A80036; stroke-width: 1.5;" x1="435" x2="517" y1="148" y2="148"/><line style="stroke: #A80036; stroke-width: 1.5;" x1="435" x2="517" y1="156" y2="156"/><!--MD5=[a25e85bdbd154cdfe48ea638e97861a8]
class Moved--><rect fill="#FEFECE" filter="url(#fq3mrmqrby0dj)" height="48" id="Moved" style="stroke: #A80036; stroke-width: 1.5;" width="72" x="553" y="116"/><ellipse cx="568" cy="132" fill="#ADD1B2" rx="11" ry="11" style="stroke: #A80036; stroke-width: 1.0;"/><path d="M570.3438,127.6719 L570.5156,127.75 C570.7344,127.4375 570.9375,127.3438 571.2344,127.3438 C571.5313,127.3438 571.8125,127.4844 571.9688,127.75 C572.0625,127.9063 572.0781,128.0313 572.0781,128.4688 L572.0781,129.8906 C572.0781,130.3125 572.0469,130.5 571.9375,130.6563 C571.7656,130.875 571.5,131.0156 571.2344,131.0156 C571.0156,131.0156 570.7813,130.9063 570.6406,130.7656 C570.5,130.6406 570.4688,130.5156 570.4063,130.1094 C570.3125,129.7031 570.1406,129.4844 569.6563,129.2031 C569.1875,128.9531 568.5781,128.7969 568,128.7969 C566.2656,128.7969 565.0156,130.1094 565.0156,131.8906 L565.0156,132.9844 C565.0156,134.6875 566.3125,135.7813 568.3594,135.7813 C569.125,135.7813 569.8125,135.6563 570.2344,135.3906 C570.4219,135.2969 570.4219,135.2969 570.875,134.8125 C571.0625,134.625 571.2656,134.5469 571.4844,134.5469 C571.9531,134.5469 572.3438,134.9375 572.3438,135.3906 C572.3438,135.7813 572.0156,136.2344 571.4375,136.6406 C570.6875,137.1875 569.5313,137.4844 568.3125,137.4844 C565.4219,137.4844 563.3125,135.5938 563.3125,133.0156 L563.3125,131.8906 C563.3125,129.1719 565.3125,127.0938 567.9375,127.0938 C568.8125,127.0938 569.4063,127.2344 570.3438,127.6719 Z "/><text fill="#000000" font-family="sans-serif" font-size="12" lengthAdjust="spacingAndGlyphs" textLength="40" x="582" y="136.1543">Moved</text><line style="stroke: #A80036; stroke-width: 1.5;" x1="554" x2="624" y1="148" y2="148"/><line style="stroke: #A80036; stroke-width: 1.5;" x1="554" x2="624" y1="156" y2="156"/><!--MD5=[eab4c3e00336c089e0e39f4232e82faa]
class Bottom--><rect fill="#FEFECE" filter="url(#fq3mrmqrby0dj)" height="48" id="Bottom" style="stroke: #A80036; stroke-width: 1.5;" width="77" x="310.5" y="332"/><ellipse cx="325.5" cy="348" fill="#ADD1B2" rx="11" ry="11" style="stroke: #A80036; stroke-width: 1.0;"/><path d="M327.8438,343.6719 L328.0156,343.75 C328.2344,343.4375 328.4375,343.3438 328.7344,343.3438 C329.0313,343.3438 329.3125,343.4844 329.4688,343.75 C329.5625,343.9063 329.5781,344.0313 329.5781,344.4688 L329.5781,345.8906 C329.5781,346.3125 329.5469,346.5 329.4375,346.6563 C329.2656,346.875 329,347.0156 328.7344,347.0156 C328.5156,347.0156 328.2813,346.9063 328.1406,346.7656 C328,346.6406 327.9688,346.5156 327.9063,346.1094 C327.8125,345.7031 327.6406,345.4844 327.1563,345.2031 C326.6875,344.9531 326.0781,344.7969 325.5,344.7969 C323.7656,344.7969 322.5156,346.1094 322.5156,347.8906 L322.5156,348.9844 C322.5156,350.6875 323.8125,351.7813 325.8594,351.7813 C326.625,351.7813 327.3125,351.6563 327.7344,351.3906 C327.9219,351.2969 327.9219,351.2969 328.375,350.8125 C328.5625,350.625 328.7656,350.5469 328.9844,350.5469 C329.4531,350.5469 329.8438,350.9375 329.8438,351.3906 C329.8438,351.7813 329.5156,352.2344 328.9375,352.6406 C328.1875,353.1875 327.0313,353.4844 325.8125,353.4844 C322.9219,353.4844 320.8125,351.5938 320.8125,349.0156 L320.8125,347.8906 C320.8125,345.1719 322.8125,343.0938 325.4375,343.0938 C326.3125,343.0938 326.9063,343.2344 327.8438,343.6719 Z "/><text fill="#000000" font-family="sans-serif" font-size="12" lengthAdjust="spacingAndGlyphs" textLength="45" x="339.5" y="352.1543">Bottom</text><line style="stroke: #A80036; stroke-width: 1.5;" x1="311.5" x2="386.5" y1="364" y2="364"/><line style="stroke: #A80036; stroke-width: 1.5;" x1="311.5" x2="386.5" y1="372" y2="372"/><!--MD5=[af556f6dbe1d20f31b58037e755ce967]
reverse link Unknown to Object--><path d="M367.319,65.651 C334.49,83.315 295.052,104.535 267.061,119.597 " fill="none" id="Unknown&lt;-Object" style="stroke: #A80036; stroke-width: 1.0;"/><polygon fill="none" points="364.325,59.313,385.254,56,370.958,71.641,364.325,59.313" style="stroke: #A80036; stroke-width: 1.0;"/><!--MD5=[b363e76e17a25ca7a37e9ad3bd64d09c]
reverse link Object to NotEnded--><path d="M177.746,172.713 C150.096,189.179 116.927,208.931 91.7434,223.928 " fill="none" id="Object&lt;-NotEnded" style="stroke: #A80036; stroke-width: 1.0;"/><polygon fill="none" points="174.214,166.669,194.979,162.451,181.377,178.698,174.214,166.669" style="stroke: #A80036; stroke-width: 1.0;"/><!--MD5=[6b3de51fbafe63b005cc2483bf9865c2]
reverse link Object to Ended--><path d="M208.011,181.613 C199.954,195.848 191.182,211.345 184.201,223.678 " fill="none" id="Object&lt;-Ended" style="stroke: #A80036; stroke-width: 1.0;"/><polygon fill="none" points="202.037,177.957,217.981,164,214.221,184.854,202.037,177.957" style="stroke: #A80036; stroke-width: 1.0;"/><!--MD5=[02bb02c6793cfb8ea7b6380833ce73db]
reverse link Object to NoProtocol--><path d="M254.755,181.613 C263.081,195.848 272.145,211.345 279.359,223.678 " fill="none" id="Object&lt;-NoProtocol" style="stroke: #A80036; stroke-width: 1.0;"/><polygon fill="none" points="248.508,184.798,244.453,164,260.593,177.73,248.508,184.798" style="stroke: #A80036; stroke-width: 1.0;"/><!--MD5=[36c6fe05f1da7a550e5e2b418971f02a]
reverse link Unknown to Null--><path d="M421.2,76.142 C419.334,88.948 417.432,103.021 416,116 C411.848,153.635 408.876,197.544 407.299,223.766 " fill="none" id="Unknown&lt;-Null" style="stroke: #A80036; stroke-width: 1.0;"/><polygon fill="none" points="414.304,74.928,424.218,56.201,428.146,77.024,414.304,74.928" style="stroke: #A80036; stroke-width: 1.0;"/><!--MD5=[cb3a835a5e4fe842011864b8cffdf713]
reverse link Unknown to Primitive--><path d="M446.826,74.575 C453.151,88.543 459.98,103.622 465.439,115.678 " fill="none" id="Unknown&lt;-Primitive" style="stroke: #A80036; stroke-width: 1.0;"/><polygon fill="none" points="440.289,77.107,438.415,56,453.042,71.332,440.289,77.107" style="stroke: #A80036; stroke-width: 1.0;"/><!--MD5=[2a9063048e7fae28cfb3be70fd590ce1]
reverse link Unknown to Moved--><path d="M479.713,67.047 C503.933,82.993 532.158,101.576 553.856,115.862 " fill="none" id="Unknown&lt;-Moved" style="stroke: #A80036; stroke-width: 1.0;"/><polygon fill="none" points="475.79,72.845,462.935,56,483.489,61.152,475.79,72.845" style="stroke: #A80036; stroke-width: 1.0;"/><!--MD5=[583d7ea06332f85b52940ed16ed57fd5]
reverse link NotEnded to Bottom--><path d="M119.467,272.879 C196.941,300.652 267.869,326.0105 310.407,341.2121 " fill="none" id="NotEnded&lt;-Bottom" style="stroke: #A80036; stroke-width: 1.0;"/><polygon fill="none" points="116.645,279.304,100.1815,265.965,121.371,266.126,116.645,279.304" style="stroke: #A80036; stroke-width: 1.0;"/><!--MD5=[9500c0da0a6804154d8d3cffe54c1eb3]
reverse link Ended to Bottom--><path d="M224.254,280.7131 C251.904,297.1785 285.073,316.9312 310.257,331.9281 " fill="none" id="Ended&lt;-Bottom" style="stroke: #A80036; stroke-width: 1.0;"/><polygon fill="none" points="220.623,286.6981,207.021,270.451,227.786,274.669,220.623,286.6981" style="stroke: #A80036; stroke-width: 1.0;"/><!--MD5=[9ae127a742fa27c40681b7eba80f2b58]
reverse link NoProtocol to Bottom--><path d="M314.71,290.0936 C322.16,304.1958 330.237,319.4838 336.679,331.6784 " fill="none" id="NoProtocol&lt;-Bottom" style="stroke: #A80036; stroke-width: 1.0;"/><polygon fill="none" points="308.304,292.9542,305.151,272,320.683,286.4144,308.304,292.9542" style="stroke: #A80036; stroke-width: 1.0;"/><!--MD5=[6a4d73ce24d4ff267dae6195406cbacb]
reverse link Null to Bottom--><path d="M383.902,290.0936 C376.319,304.1958 368.098,319.4838 361.541,331.6784 " fill="none" id="Null&lt;-Bottom" style="stroke: #A80036; stroke-width: 1.0;"/><polygon fill="none" points="377.995,286.2999,393.632,272,390.325,292.9304,377.995,286.2999" style="stroke: #A80036; stroke-width: 1.0;"/><!--MD5=[cd9badb11c20d0cf57b028737f23ea73]
reverse link Primitive to Bottom--><path d="M475.147,184.539 C472.886,211.392 466.747,245.62 451,272 C435.788,297.4844 409.722,318.4897 387.749,332.9933 " fill="none" id="Primitive&lt;-Bottom" style="stroke: #A80036; stroke-width: 1.0;"/><polygon fill="none" points="468.164,184.05,476.249,164.464,482.142,184.818,468.164,184.05" style="stroke: #A80036; stroke-width: 1.0;"/><!--MD5=[f9bf0ed0bb15454d68c33cf45b541b72]
reverse link Moved to Bottom--><path d="M563.529,181.152 C544.654,208.847 517.077,245.334 487,272 C456.771,298.8008 416.7,321.7904 387.529,336.7324 " fill="none" id="Moved&lt;-Bottom" style="stroke: #A80036; stroke-width: 1.0;"/><polygon fill="none" points="557.735,177.222,574.614,164.413,569.407,184.953,557.735,177.222" style="stroke: #A80036; stroke-width: 1.0;"/><!--MD5=[30085bde0ae40f7648dd0348afbdaeac]
@startuml
Unknown <|- - Object
Object <|- - NotEnded
Object <|- - Ended
Object <|- - NoProtocol
Unknown <|- - Null
Unknown <|- - Primitive
Unknown <|- - Moved
NotEnded <|- - Bottom
Ended <|- - Bottom
NoProtocol <|- - Bottom
Null <|- - Bottom
Primitive <|- - Bottom
Moved <|- - Bottom
@enduml

PlantUML version 1.2020.07beta9(Unknown compile time)
(GPL source distribution)
Java Runtime: Java(TM) SE Runtime Environment
JVM: Java HotSpot(TM) 64-Bit Server VM
Java Version: 1.7.0_25-b15
Operating System: Linux
Default Encoding: UTF-8
Language: en
Country: US
--></g></svg>