<?xml version="1.0" encoding="UTF-8" standalone="no"?><svg xmlns="http://www.w3.org/2000/svg" xmlns:xlink="http://www.w3.org/1999/xlink" contentScriptType="application/ecmascript" contentStyleType="text/css" height="283px" preserveAspectRatio="none" style="width:283px;height:283px;" version="1.1" viewBox="0 0 283 283" width="283px" zoomAndPan="magnify"><defs><filter height="300%" id="fuu61pbvp9354" width="300%" x="-1" y="-1"><feGaussianBlur result="blurOut" stdDeviation="2.0"/><feColorMatrix in="blurOut" result="blurOut2" type="matrix" values="0 0 0 0 0 0 0 0 0 0 0 0 0 0 0 0 0 0 .4 0"/><feOffset dx="4.0" dy="4.0" in="blurOut2" result="blurOut3"/><feBlend in="SourceGraphic" in2="blurOut3" mode="normal"/></filter></defs><g><!--MD5=[f60b16cb516bc977f3d142e48df51d7a]
class Unknown--><rect fill="#FEFECE" filter="url(#fuu61pbvp9354)" height="48" id="Unknown" style="stroke: #A80036; stroke-width: 1.5;" width="89" x="78.5" y="8"/><ellipse cx="93.5" cy="24" fill="#ADD1B2" rx="11" ry="11" style="stroke: #A80036; stroke-width: 1.0;"/><path d="M95.8438,19.6719 L96.0156,19.75 C96.2344,19.4375 96.4375,19.3438 96.7344,19.3438 C97.0313,19.3438 97.3125,19.4844 97.4688,19.75 C97.5625,19.9063 97.5781,20.0313 97.5781,20.4688 L97.5781,21.8906 C97.5781,22.3125 97.5469,22.5 97.4375,22.6563 C97.2656,22.875 97,23.0156 96.7344,23.0156 C96.5156,23.0156 96.2813,22.9063 96.1406,22.7656 C96,22.6406 95.9688,22.5156 95.9063,22.1094 C95.8125,21.7031 95.6406,21.4844 95.1563,21.2031 C94.6875,20.9531 94.0781,20.7969 93.5,20.7969 C91.7656,20.7969 90.5156,22.1094 90.5156,23.8906 L90.5156,24.9844 C90.5156,26.6875 91.8125,27.7813 93.8594,27.7813 C94.625,27.7813 95.3125,27.6563 95.7344,27.3906 C95.9219,27.2969 95.9219,27.2969 96.375,26.8125 C96.5625,26.625 96.7656,26.5469 96.9844,26.5469 C97.4531,26.5469 97.8438,26.9375 97.8438,27.3906 C97.8438,27.7813 97.5156,28.2344 96.9375,28.6406 C96.1875,29.1875 95.0313,29.4844 93.8125,29.4844 C90.9219,29.4844 88.8125,27.5938 88.8125,25.0156 L88.8125,23.8906 C88.8125,21.1719 90.8125,19.0938 93.4375,19.0938 C94.3125,19.0938 94.9063,19.2344 95.8438,19.6719 Z "/><text fill="#000000" font-family="sans-serif" font-size="12" lengthAdjust="spacingAndGlyphs" textLength="57" x="107.5" y="28.1543">Unknown</text><line style="stroke: #A80036; stroke-width: 1.5;" x1="79.5" x2="166.5" y1="40" y2="40"/><line style="stroke: #A80036; stroke-width: 1.5;" x1="79.5" x2="166.5" y1="48" y2="48"/><!--MD5=[9fb4aef2c7a751a7b35d70fc8bb91760]
class NullType--><rect fill="#FEFECE" filter="url(#fuu61pbvp9354)" height="48" id="NullType" style="stroke: #A80036; stroke-width: 1.5;" width="84" x="6" y="116"/><ellipse cx="21" cy="132" fill="#ADD1B2" rx="11" ry="11" style="stroke: #A80036; stroke-width: 1.0;"/><path d="M23.3438,127.6719 L23.5156,127.75 C23.7344,127.4375 23.9375,127.3438 24.2344,127.3438 C24.5313,127.3438 24.8125,127.4844 24.9688,127.75 C25.0625,127.9063 25.0781,128.0313 25.0781,128.4688 L25.0781,129.8906 C25.0781,130.3125 25.0469,130.5 24.9375,130.6563 C24.7656,130.875 24.5,131.0156 24.2344,131.0156 C24.0156,131.0156 23.7813,130.9063 23.6406,130.7656 C23.5,130.6406 23.4688,130.5156 23.4063,130.1094 C23.3125,129.7031 23.1406,129.4844 22.6563,129.2031 C22.1875,128.9531 21.5781,128.7969 21,128.7969 C19.2656,128.7969 18.0156,130.1094 18.0156,131.8906 L18.0156,132.9844 C18.0156,134.6875 19.3125,135.7813 21.3594,135.7813 C22.125,135.7813 22.8125,135.6563 23.2344,135.3906 C23.4219,135.2969 23.4219,135.2969 23.875,134.8125 C24.0625,134.625 24.2656,134.5469 24.4844,134.5469 C24.9531,134.5469 25.3438,134.9375 25.3438,135.3906 C25.3438,135.7813 25.0156,136.2344 24.4375,136.6406 C23.6875,137.1875 22.5313,137.4844 21.3125,137.4844 C18.4219,137.4844 16.3125,135.5938 16.3125,133.0156 L16.3125,131.8906 C16.3125,129.1719 18.3125,127.0938 20.9375,127.0938 C21.8125,127.0938 22.4063,127.2344 23.3438,127.6719 Z "/><text fill="#000000" font-family="sans-serif" font-size="12" lengthAdjust="spacingAndGlyphs" textLength="52" x="35" y="136.1543">NullType</text><line style="stroke: #A80036; stroke-width: 1.5;" x1="7" x2="89" y1="148" y2="148"/><line style="stroke: #A80036; stroke-width: 1.5;" x1="7" x2="89" y1="156" y2="156"/><!--MD5=[942a8d857d37b8d53cff193a1984d29e]
class ObjectsWithStates--><rect fill="#FEFECE" filter="url(#fuu61pbvp9354)" height="48" id="ObjectsWithStates" style="stroke: #A80036; stroke-width: 1.5;" width="147" x="125.5" y="116"/><ellipse cx="140.5" cy="132" fill="#ADD1B2" rx="11" ry="11" style="stroke: #A80036; stroke-width: 1.0;"/><path d="M142.8438,127.6719 L143.0156,127.75 C143.2344,127.4375 143.4375,127.3438 143.7344,127.3438 C144.0313,127.3438 144.3125,127.4844 144.4688,127.75 C144.5625,127.9063 144.5781,128.0313 144.5781,128.4688 L144.5781,129.8906 C144.5781,130.3125 144.5469,130.5 144.4375,130.6563 C144.2656,130.875 144,131.0156 143.7344,131.0156 C143.5156,131.0156 143.2813,130.9063 143.1406,130.7656 C143,130.6406 142.9688,130.5156 142.9063,130.1094 C142.8125,129.7031 142.6406,129.4844 142.1563,129.2031 C141.6875,128.9531 141.0781,128.7969 140.5,128.7969 C138.7656,128.7969 137.5156,130.1094 137.5156,131.8906 L137.5156,132.9844 C137.5156,134.6875 138.8125,135.7813 140.8594,135.7813 C141.625,135.7813 142.3125,135.6563 142.7344,135.3906 C142.9219,135.2969 142.9219,135.2969 143.375,134.8125 C143.5625,134.625 143.7656,134.5469 143.9844,134.5469 C144.4531,134.5469 144.8438,134.9375 144.8438,135.3906 C144.8438,135.7813 144.5156,136.2344 143.9375,136.6406 C143.1875,137.1875 142.0313,137.4844 140.8125,137.4844 C137.9219,137.4844 135.8125,135.5938 135.8125,133.0156 L135.8125,131.8906 C135.8125,129.1719 137.8125,127.0938 140.4375,127.0938 C141.3125,127.0938 141.9063,127.2344 142.8438,127.6719 Z "/><text fill="#000000" font-family="sans-serif" font-size="12" lengthAdjust="spacingAndGlyphs" textLength="115" x="154.5" y="136.1543">ObjectsWithStates</text><line style="stroke: #A80036; stroke-width: 1.5;" x1="126.5" x2="271.5" y1="148" y2="148"/><line style="stroke: #A80036; stroke-width: 1.5;" x1="126.5" x2="271.5" y1="156" y2="156"/><!--MD5=[eab4c3e00336c089e0e39f4232e82faa]
class Bottom--><rect fill="#FEFECE" filter="url(#fuu61pbvp9354)" height="48" id="Bottom" style="stroke: #A80036; stroke-width: 1.5;" width="77" x="84.5" y="224"/><ellipse cx="99.5" cy="240" fill="#ADD1B2" rx="11" ry="11" style="stroke: #A80036; stroke-width: 1.0;"/><path d="M101.8438,235.6719 L102.0156,235.75 C102.2344,235.4375 102.4375,235.3438 102.7344,235.3438 C103.0313,235.3438 103.3125,235.4844 103.4688,235.75 C103.5625,235.9063 103.5781,236.0313 103.5781,236.4688 L103.5781,237.8906 C103.5781,238.3125 103.5469,238.5 103.4375,238.6563 C103.2656,238.875 103,239.0156 102.7344,239.0156 C102.5156,239.0156 102.2813,238.9063 102.1406,238.7656 C102,238.6406 101.9688,238.5156 101.9063,238.1094 C101.8125,237.7031 101.6406,237.4844 101.1563,237.2031 C100.6875,236.9531 100.0781,236.7969 99.5,236.7969 C97.7656,236.7969 96.5156,238.1094 96.5156,239.8906 L96.5156,240.9844 C96.5156,242.6875 97.8125,243.7813 99.8594,243.7813 C100.625,243.7813 101.3125,243.6563 101.7344,243.3906 C101.9219,243.2969 101.9219,243.2969 102.375,242.8125 C102.5625,242.625 102.7656,242.5469 102.9844,242.5469 C103.4531,242.5469 103.8438,242.9375 103.8438,243.3906 C103.8438,243.7813 103.5156,244.2344 102.9375,244.6406 C102.1875,245.1875 101.0313,245.4844 99.8125,245.4844 C96.9219,245.4844 94.8125,243.5938 94.8125,241.0156 L94.8125,239.8906 C94.8125,237.1719 96.8125,235.0938 99.4375,235.0938 C100.3125,235.0938 100.9063,235.2344 101.8438,235.6719 Z "/><text fill="#000000" font-family="sans-serif" font-size="12" lengthAdjust="spacingAndGlyphs" textLength="45" x="113.5" y="244.1543">Bottom</text><line style="stroke: #A80036; stroke-width: 1.5;" x1="85.5" x2="160.5" y1="256" y2="256"/><line style="stroke: #A80036; stroke-width: 1.5;" x1="85.5" x2="160.5" y1="264" y2="264"/><!--MD5=[a69d2a7b17c1cfbed5e43784ba85dd97]
reverse link Unknown to NullType--><path d="M94.9417,72.656 C84.6865,87.15 73.4235,103.068 64.5011,115.678 " fill="none" id="Unknown&lt;-NullType" style="stroke: #A80036; stroke-width: 1.0;"/><polygon fill="none" points="89.46,68.284,106.726,56,100.8886,76.37,89.46,68.284" style="stroke: #A80036; stroke-width: 1.0;"/><!--MD5=[b06de8eeba8868a898a487df1d39d71d]
reverse link Unknown to ObjectsWithStates--><path d="M151.432,72.656 C161.824,87.15 173.237,103.068 182.279,115.678 " fill="none" id="Unknown&lt;-ObjectsWithStates" style="stroke: #A80036; stroke-width: 1.0;"/><polygon fill="none" points="145.456,76.333,139.491,56,156.834,68.176,145.456,76.333" style="stroke: #A80036; stroke-width: 1.0;"/><!--MD5=[5d50ff6beddb260679b7386b3146e265]
reverse link NullType to Bottom--><path d="M76.0583,180.6557 C86.3135,195.1498 97.5765,211.0681 106.499,223.6784 " fill="none" id="NullType&lt;-Bottom" style="stroke: #A80036; stroke-width: 1.0;"/><polygon fill="none" points="70.1114,184.3701,64.2739,164,81.54,176.2838,70.1114,184.3701" style="stroke: #A80036; stroke-width: 1.0;"/><!--MD5=[927df70a2c589a714031193a7bfa7c19]
reverse link ObjectsWithStates to Bottom--><path d="M170.568,180.6557 C160.176,195.1498 148.763,211.0681 139.721,223.6784 " fill="none" id="ObjectsWithStates&lt;-Bottom" style="stroke: #A80036; stroke-width: 1.0;"/><polygon fill="none" points="165.166,176.1755,182.509,164,176.544,184.3332,165.166,176.1755" style="stroke: #A80036; stroke-width: 1.0;"/><!--MD5=[495db84f786cdeb1ed4f03cd32395d52]
@startuml
Unknown <|- - NullType
Unknown <|- - ObjectsWithStates
NullType <|- - Bottom
ObjectsWithStates <|- - Bottom
@enduml

PlantUML version 1.2020.03beta11(Unknown compile time)
(GPL source distribution)
Java Runtime: Java(TM) SE Runtime Environment
JVM: Java HotSpot(TM) 64-Bit Server VM
Java Version: 1.7.0_25-b15
Operating System: Linux
Default Encoding: UTF-8
Language: en
Country: US
--></g></svg>