<?xml version="1.0" encoding="UTF-8" standalone="no"?><svg xmlns="http://www.w3.org/2000/svg" xmlns:xlink="http://www.w3.org/1999/xlink" contentScriptType="application/ecmascript" contentStyleType="text/css" height="506px" preserveAspectRatio="none" style="width:338px;height:506px;" version="1.1" viewBox="0 0 338 506" width="338px" zoomAndPan="magnify"><defs><filter height="300%" id="f1ldkw9nkw4cpr" width="300%" x="-1" y="-1"><feGaussianBlur result="blurOut" stdDeviation="2.0"/><feColorMatrix in="blurOut" result="blurOut2" type="matrix" values="0 0 0 0 0 0 0 0 0 0 0 0 0 0 0 0 0 0 .4 0"/><feOffset dx="4.0" dy="4.0" in="blurOut2" result="blurOut3"/><feBlend in="SourceGraphic" in2="blurOut3" mode="normal"/></filter></defs><g><!--MD5=[f60b16cb516bc977f3d142e48df51d7a]
class Unknown--><rect fill="#FEFECE" filter="url(#f1ldkw9nkw4cpr)" height="48" id="Unknown" style="stroke: #A80036; stroke-width: 1.5;" width="87" x="55" y="7"/><ellipse cx="70" cy="23" fill="#ADD1B2" rx="11" ry="11" style="stroke: #A80036; stroke-width: 1.0;"/><path d="M72.3438,18.6719 C71.4063,18.2344 70.8125,18.0938 69.9375,18.0938 C67.3125,18.0938 65.3125,20.1719 65.3125,22.8906 L65.3125,24.0156 C65.3125,26.5938 67.4219,28.4844 70.3125,28.4844 C71.5313,28.4844 72.6875,28.1875 73.4375,27.6406 C74.0156,27.2344 74.3438,26.7813 74.3438,26.3906 C74.3438,25.9375 73.9531,25.5469 73.4844,25.5469 C73.2656,25.5469 73.0625,25.625 72.875,25.8125 C72.4219,26.2969 72.4219,26.2969 72.2344,26.3906 C71.8125,26.6563 71.125,26.7813 70.3594,26.7813 C68.3125,26.7813 67.0156,25.6875 67.0156,23.9844 L67.0156,22.8906 C67.0156,21.1094 68.2656,19.7969 70,19.7969 C70.5781,19.7969 71.1875,19.9531 71.6563,20.2031 C72.1406,20.4844 72.3125,20.7031 72.4063,21.1094 C72.4688,21.5156 72.5,21.6406 72.6406,21.7656 C72.7813,21.9063 73.0156,22.0156 73.2344,22.0156 C73.5,22.0156 73.7656,21.875 73.9375,21.6563 C74.0469,21.5 74.0781,21.3125 74.0781,20.8906 L74.0781,19.4688 C74.0781,19.0313 74.0625,18.9063 73.9688,18.75 C73.8125,18.4844 73.5313,18.3438 73.2344,18.3438 C72.9375,18.3438 72.7344,18.4375 72.5156,18.75 L72.3438,18.6719 Z "/><text fill="#000000" font-family="sans-serif" font-size="12" lengthAdjust="spacingAndGlyphs" textLength="55" x="84" y="27.1543">Unknown</text><line style="stroke: #A80036; stroke-width: 1.5;" x1="56" x2="141" y1="39" y2="39"/><line style="stroke: #A80036; stroke-width: 1.5;" x1="56" x2="141" y1="47" y2="47"/><!--MD5=[c330aa171b4ae5600de6569adaab31c4]
class Null--><rect fill="#FEFECE" filter="url(#f1ldkw9nkw4cpr)" height="48" id="Null" style="stroke: #A80036; stroke-width: 1.5;" width="53" x="7" y="223"/><ellipse cx="22" cy="239" fill="#ADD1B2" rx="11" ry="11" style="stroke: #A80036; stroke-width: 1.0;"/><path d="M24.3438,234.6719 C23.4063,234.2344 22.8125,234.0938 21.9375,234.0938 C19.3125,234.0938 17.3125,236.1719 17.3125,238.8906 L17.3125,240.0156 C17.3125,242.5938 19.4219,244.4844 22.3125,244.4844 C23.5313,244.4844 24.6875,244.1875 25.4375,243.6406 C26.0156,243.2344 26.3438,242.7813 26.3438,242.3906 C26.3438,241.9375 25.9531,241.5469 25.4844,241.5469 C25.2656,241.5469 25.0625,241.625 24.875,241.8125 C24.4219,242.2969 24.4219,242.2969 24.2344,242.3906 C23.8125,242.6563 23.125,242.7813 22.3594,242.7813 C20.3125,242.7813 19.0156,241.6875 19.0156,239.9844 L19.0156,238.8906 C19.0156,237.1094 20.2656,235.7969 22,235.7969 C22.5781,235.7969 23.1875,235.9531 23.6563,236.2031 C24.1406,236.4844 24.3125,236.7031 24.4063,237.1094 C24.4688,237.5156 24.5,237.6406 24.6406,237.7656 C24.7813,237.9063 25.0156,238.0156 25.2344,238.0156 C25.5,238.0156 25.7656,237.875 25.9375,237.6563 C26.0469,237.5 26.0781,237.3125 26.0781,236.8906 L26.0781,235.4688 C26.0781,235.0313 26.0625,234.9063 25.9688,234.75 C25.8125,234.4844 25.5313,234.3438 25.2344,234.3438 C24.9375,234.3438 24.7344,234.4375 24.5156,234.75 L24.3438,234.6719 Z "/><text fill="#000000" font-family="sans-serif" font-size="12" lengthAdjust="spacingAndGlyphs" textLength="21" x="36" y="243.1543">Null</text><line style="stroke: #A80036; stroke-width: 1.5;" x1="8" x2="59" y1="255" y2="255"/><line style="stroke: #A80036; stroke-width: 1.5;" x1="8" x2="59" y1="263" y2="263"/><!--MD5=[b0642ef3ba9344d759537d73172f5b8e]
class State(*)--><rect fill="#FEFECE" filter="url(#f1ldkw9nkw4cpr)" height="48" id="State(*)" style="stroke: #A80036; stroke-width: 1.5;" width="80" x="114.5" y="115"/><ellipse cx="129.5" cy="131" fill="#ADD1B2" rx="11" ry="11" style="stroke: #A80036; stroke-width: 1.0;"/><path d="M131.8438,126.6719 C130.9063,126.2344 130.3125,126.0938 129.4375,126.0938 C126.8125,126.0938 124.8125,128.1719 124.8125,130.8906 L124.8125,132.0156 C124.8125,134.5938 126.9219,136.4844 129.8125,136.4844 C131.0313,136.4844 132.1875,136.1875 132.9375,135.6406 C133.5156,135.2344 133.8438,134.7813 133.8438,134.3906 C133.8438,133.9375 133.4531,133.5469 132.9844,133.5469 C132.7656,133.5469 132.5625,133.625 132.375,133.8125 C131.9219,134.2969 131.9219,134.2969 131.7344,134.3906 C131.3125,134.6563 130.625,134.7813 129.8594,134.7813 C127.8125,134.7813 126.5156,133.6875 126.5156,131.9844 L126.5156,130.8906 C126.5156,129.1094 127.7656,127.7969 129.5,127.7969 C130.0781,127.7969 130.6875,127.9531 131.1563,128.2031 C131.6406,128.4844 131.8125,128.7031 131.9063,129.1094 C131.9688,129.5156 132,129.6406 132.1406,129.7656 C132.2813,129.9063 132.5156,130.0156 132.7344,130.0156 C133,130.0156 133.2656,129.875 133.4375,129.6563 C133.5469,129.5 133.5781,129.3125 133.5781,128.8906 L133.5781,127.4688 C133.5781,127.0313 133.5625,126.9063 133.4688,126.75 C133.3125,126.4844 133.0313,126.3438 132.7344,126.3438 C132.4375,126.3438 132.2344,126.4375 132.0156,126.75 L131.8438,126.6719 Z "/><text fill="#000000" font-family="sans-serif" font-size="12" lengthAdjust="spacingAndGlyphs" textLength="48" x="143.5" y="135.1543">State(*)</text><line style="stroke: #A80036; stroke-width: 1.5;" x1="115.5" x2="193.5" y1="147" y2="147"/><line style="stroke: #A80036; stroke-width: 1.5;" x1="115.5" x2="193.5" y1="155" y2="155"/><!--MD5=[7119b2c5abc1cbd81941379910bc1a29]
class File{Open, Read}--><rect fill="#FEFECE" filter="url(#f1ldkw9nkw4cpr)" height="48" id="File{Open, Read}" style="stroke: #A80036; stroke-width: 1.5;" width="138" x="95.5" y="223"/><ellipse cx="110.5" cy="239" fill="#ADD1B2" rx="11" ry="11" style="stroke: #A80036; stroke-width: 1.0;"/><path d="M112.8438,234.6719 C111.9063,234.2344 111.3125,234.0938 110.4375,234.0938 C107.8125,234.0938 105.8125,236.1719 105.8125,238.8906 L105.8125,240.0156 C105.8125,242.5938 107.9219,244.4844 110.8125,244.4844 C112.0313,244.4844 113.1875,244.1875 113.9375,243.6406 C114.5156,243.2344 114.8438,242.7813 114.8438,242.3906 C114.8438,241.9375 114.4531,241.5469 113.9844,241.5469 C113.7656,241.5469 113.5625,241.625 113.375,241.8125 C112.9219,242.2969 112.9219,242.2969 112.7344,242.3906 C112.3125,242.6563 111.625,242.7813 110.8594,242.7813 C108.8125,242.7813 107.5156,241.6875 107.5156,239.9844 L107.5156,238.8906 C107.5156,237.1094 108.7656,235.7969 110.5,235.7969 C111.0781,235.7969 111.6875,235.9531 112.1563,236.2031 C112.6406,236.4844 112.8125,236.7031 112.9063,237.1094 C112.9688,237.5156 113,237.6406 113.1406,237.7656 C113.2813,237.9063 113.5156,238.0156 113.7344,238.0156 C114,238.0156 114.2656,237.875 114.4375,237.6563 C114.5469,237.5 114.5781,237.3125 114.5781,236.8906 L114.5781,235.4688 C114.5781,235.0313 114.5625,234.9063 114.4688,234.75 C114.3125,234.4844 114.0313,234.3438 113.7344,234.3438 C113.4375,234.3438 113.2344,234.4375 113.0156,234.75 L112.8438,234.6719 Z "/><text fill="#000000" font-family="sans-serif" font-size="12" lengthAdjust="spacingAndGlyphs" textLength="106" x="124.5" y="243.1543">File{Open, Read}</text><line style="stroke: #A80036; stroke-width: 1.5;" x1="96.5" x2="232.5" y1="255" y2="255"/><line style="stroke: #A80036; stroke-width: 1.5;" x1="96.5" x2="232.5" y1="263" y2="263"/><!--MD5=[df1824b7cf5dc86ba750de73475dea09]
class File{Open}--><rect fill="#FEFECE" filter="url(#f1ldkw9nkw4cpr)" height="48" id="File{Open}" style="stroke: #A80036; stroke-width: 1.5;" width="100" x="86.5" y="331"/><ellipse cx="101.5" cy="347" fill="#ADD1B2" rx="11" ry="11" style="stroke: #A80036; stroke-width: 1.0;"/><path d="M103.8438,342.6719 C102.9063,342.2344 102.3125,342.0938 101.4375,342.0938 C98.8125,342.0938 96.8125,344.1719 96.8125,346.8906 L96.8125,348.0156 C96.8125,350.5938 98.9219,352.4844 101.8125,352.4844 C103.0313,352.4844 104.1875,352.1875 104.9375,351.6406 C105.5156,351.2344 105.8438,350.7813 105.8438,350.3906 C105.8438,349.9375 105.4531,349.5469 104.9844,349.5469 C104.7656,349.5469 104.5625,349.625 104.375,349.8125 C103.9219,350.2969 103.9219,350.2969 103.7344,350.3906 C103.3125,350.6563 102.625,350.7813 101.8594,350.7813 C99.8125,350.7813 98.5156,349.6875 98.5156,347.9844 L98.5156,346.8906 C98.5156,345.1094 99.7656,343.7969 101.5,343.7969 C102.0781,343.7969 102.6875,343.9531 103.1563,344.2031 C103.6406,344.4844 103.8125,344.7031 103.9063,345.1094 C103.9688,345.5156 104,345.6406 104.1406,345.7656 C104.2813,345.9063 104.5156,346.0156 104.7344,346.0156 C105,346.0156 105.2656,345.875 105.4375,345.6563 C105.5469,345.5 105.5781,345.3125 105.5781,344.8906 L105.5781,343.4688 C105.5781,343.0313 105.5625,342.9063 105.4688,342.75 C105.3125,342.4844 105.0313,342.3438 104.7344,342.3438 C104.4375,342.3438 104.2344,342.4375 104.0156,342.75 L103.8438,342.6719 Z "/><text fill="#000000" font-family="sans-serif" font-size="12" lengthAdjust="spacingAndGlyphs" textLength="68" x="115.5" y="351.1543">File{Open}</text><line style="stroke: #A80036; stroke-width: 1.5;" x1="87.5" x2="185.5" y1="363" y2="363"/><line style="stroke: #A80036; stroke-width: 1.5;" x1="87.5" x2="185.5" y1="371" y2="371"/><!--MD5=[cfb2c0229368b8b02edbb8a47121dc15]
class File{Read}--><rect fill="#FEFECE" filter="url(#f1ldkw9nkw4cpr)" height="48" id="File{Read}" style="stroke: #A80036; stroke-width: 1.5;" width="97" x="222" y="331"/><ellipse cx="237" cy="347" fill="#ADD1B2" rx="11" ry="11" style="stroke: #A80036; stroke-width: 1.0;"/><path d="M239.3438,342.6719 C238.4063,342.2344 237.8125,342.0938 236.9375,342.0938 C234.3125,342.0938 232.3125,344.1719 232.3125,346.8906 L232.3125,348.0156 C232.3125,350.5938 234.4219,352.4844 237.3125,352.4844 C238.5313,352.4844 239.6875,352.1875 240.4375,351.6406 C241.0156,351.2344 241.3438,350.7813 241.3438,350.3906 C241.3438,349.9375 240.9531,349.5469 240.4844,349.5469 C240.2656,349.5469 240.0625,349.625 239.875,349.8125 C239.4219,350.2969 239.4219,350.2969 239.2344,350.3906 C238.8125,350.6563 238.125,350.7813 237.3594,350.7813 C235.3125,350.7813 234.0156,349.6875 234.0156,347.9844 L234.0156,346.8906 C234.0156,345.1094 235.2656,343.7969 237,343.7969 C237.5781,343.7969 238.1875,343.9531 238.6563,344.2031 C239.1406,344.4844 239.3125,344.7031 239.4063,345.1094 C239.4688,345.5156 239.5,345.6406 239.6406,345.7656 C239.7813,345.9063 240.0156,346.0156 240.2344,346.0156 C240.5,346.0156 240.7656,345.875 240.9375,345.6563 C241.0469,345.5 241.0781,345.3125 241.0781,344.8906 L241.0781,343.4688 C241.0781,343.0313 241.0625,342.9063 240.9688,342.75 C240.8125,342.4844 240.5313,342.3438 240.2344,342.3438 C239.9375,342.3438 239.7344,342.4375 239.5156,342.75 L239.3438,342.6719 Z "/><text fill="#000000" font-family="sans-serif" font-size="12" lengthAdjust="spacingAndGlyphs" textLength="65" x="251" y="351.1543">File{Read}</text><line style="stroke: #A80036; stroke-width: 1.5;" x1="223" x2="318" y1="363" y2="363"/><line style="stroke: #A80036; stroke-width: 1.5;" x1="223" x2="318" y1="371" y2="371"/><!--MD5=[eab4c3e00336c089e0e39f4232e82faa]
class Bottom--><rect fill="#FEFECE" filter="url(#f1ldkw9nkw4cpr)" height="48" id="Bottom" style="stroke: #A80036; stroke-width: 1.5;" width="75" x="99" y="439"/><ellipse cx="114" cy="455" fill="#ADD1B2" rx="11" ry="11" style="stroke: #A80036; stroke-width: 1.0;"/><path d="M116.3438,450.6719 C115.4063,450.2344 114.8125,450.0938 113.9375,450.0938 C111.3125,450.0938 109.3125,452.1719 109.3125,454.8906 L109.3125,456.0156 C109.3125,458.5938 111.4219,460.4844 114.3125,460.4844 C115.5313,460.4844 116.6875,460.1875 117.4375,459.6406 C118.0156,459.2344 118.3438,458.7813 118.3438,458.3906 C118.3438,457.9375 117.9531,457.5469 117.4844,457.5469 C117.2656,457.5469 117.0625,457.625 116.875,457.8125 C116.4219,458.2969 116.4219,458.2969 116.2344,458.3906 C115.8125,458.6563 115.125,458.7813 114.3594,458.7813 C112.3125,458.7813 111.0156,457.6875 111.0156,455.9844 L111.0156,454.8906 C111.0156,453.1094 112.2656,451.7969 114,451.7969 C114.5781,451.7969 115.1875,451.9531 115.6563,452.2031 C116.1406,452.4844 116.3125,452.7031 116.4063,453.1094 C116.4688,453.5156 116.5,453.6406 116.6406,453.7656 C116.7813,453.9063 117.0156,454.0156 117.2344,454.0156 C117.5,454.0156 117.7656,453.875 117.9375,453.6563 C118.0469,453.5 118.0781,453.3125 118.0781,452.8906 L118.0781,451.4688 C118.0781,451.0313 118.0625,450.9063 117.9688,450.75 C117.8125,450.4844 117.5313,450.3438 117.2344,450.3438 C116.9375,450.3438 116.7344,450.4375 116.5156,450.75 L116.3438,450.6719 Z "/><text fill="#000000" font-family="sans-serif" font-size="12" lengthAdjust="spacingAndGlyphs" textLength="43" x="128" y="459.1543">Bottom</text><line style="stroke: #A80036; stroke-width: 1.5;" x1="100" x2="173" y1="471" y2="471"/><line style="stroke: #A80036; stroke-width: 1.5;" x1="100" x2="173" y1="479" y2="479"/><!--MD5=[36c6fe05f1da7a550e5e2b418971f02a]
reverse link Unknown to Null--><path d="M85.5199,74.735 C72.0046,119.231 51.3353,187.281 40.5711,222.72 " fill="none" id="Unknown&lt;-Null" style="stroke: #A80036; stroke-width: 1.0;"/><polygon fill="none" points="78.9096,72.411,91.4201,55.309,92.3054,76.48,78.9096,72.411" style="stroke: #A80036; stroke-width: 1.0;"/><!--MD5=[a4e8c7ec5c2f85f74a54fd5d9df2d6bc]
reverse link Unknown to State(*)--><path d="M120.21,73.094 C127.66,87.196 135.737,102.484 142.179,114.678 " fill="none" id="Unknown&lt;-State(*)" style="stroke: #A80036; stroke-width: 1.0;"/><polygon fill="none" points="113.804,75.954,110.651,55,126.183,69.414,113.804,75.954" style="stroke: #A80036; stroke-width: 1.0;"/><!--MD5=[539ecffd80ddc649457468e7ad9c29c5]
reverse link State(*) to File{Open, Read}--><path d="M158.559,183.024 C159.838,196.579 161.202,211.038 162.3,222.678 " fill="none" id="State(*)&lt;-File{Open, Read}" style="stroke: #A80036; stroke-width: 1.0;"/><polygon fill="none" points="151.579,183.57,156.67,163,165.517,182.255,151.579,183.57" style="stroke: #A80036; stroke-width: 1.0;"/><!--MD5=[9d591e468c56b9fdd315d4a383ecef93]
reverse link File{Open, Read} to File{Open}--><path d="M153.263,290.54 C149.646,304.235 145.772,318.9 142.66,330.678 " fill="none" id="File{Open, Read}&lt;-File{Open}" style="stroke: #A80036; stroke-width: 1.0;"/><polygon fill="none" points="146.549,288.549,158.424,271,160.084,292.125,146.549,288.549" style="stroke: #A80036; stroke-width: 1.0;"/><!--MD5=[65a3cb87582fd55e75c38b503fa2894d]
reverse link File{Open, Read} to File{Read}--><path d="M201.78,285.28 C216.891,300.391 233.875,317.375 247.178,330.678 " fill="none" id="File{Open, Read}&lt;-File{Read}" style="stroke: #A80036; stroke-width: 1.0;"/><polygon fill="none" points="196.693,290.092,187.5,271,206.592,280.193,196.693,290.092" style="stroke: #A80036; stroke-width: 1.0;"/><!--MD5=[6a4d73ce24d4ff267dae6195406cbacb]
reverse link Null to Bottom--><path d="M40.2131,291.024 C45.474,317.432 54.3339,351.368 68.5,379 C79.9728,401.3786 98.2556,423.2364 112.976,438.8993 " fill="none" id="Null&lt;-Bottom" style="stroke: #A80036; stroke-width: 1.0;"/><polygon fill="none" points="33.3203,292.244,36.668,271.321,47.0991,289.765,33.3203,292.244" style="stroke: #A80036; stroke-width: 1.0;"/><!--MD5=[9c872902a7942d77f1b25070bedc799f]
reverse link File{Open} to Bottom--><path d="M136.5,399.0236 C136.5,412.5792 136.5,427.0381 136.5,438.6784 " fill="none" id="File{Open}&lt;-Bottom" style="stroke: #A80036; stroke-width: 1.0;"/><polygon fill="none" points="129.5,399.0005,136.5,379,143.5,399.0004,129.5,399.0005" style="stroke: #A80036; stroke-width: 1.0;"/><!--MD5=[9e8f76664f84d462f5e99b97cdc37814]
reverse link File{Read} to Bottom--><path d="M225.452,391.6353 C205.842,407.1472 183.412,424.8902 165.982,438.6784 " fill="none" id="File{Read}&lt;-Bottom" style="stroke: #A80036; stroke-width: 1.0;"/><polygon fill="none" points="221.395,385.919,241.424,379,230.081,396.8985,221.395,385.919" style="stroke: #A80036; stroke-width: 1.0;"/><!--MD5=[32ed43dcd5efa11abc0b44e1a8282e08]
@startuml
Unknown <|- - Null
Unknown <|- - "State(*)"
"State(*)" <|- - "File{Open, Read}"
"File{Open, Read}" <|- - "File{Open}"
"File{Open, Read}" <|- - "File{Read}"
Null <|- - Bottom
"File{Open}" <|- - Bottom
"File{Read}" <|- - Bottom
@enduml

PlantUML version 1.2020.15beta1(Unknown compile time)
(GPL source distribution)
Java Runtime: Java(TM) SE Runtime Environment
JVM: Java HotSpot(TM) 64-Bit Server VM
Default Encoding: UTF-8
Language: en
Country: US
--></g></svg>