<?xml version="1.0" encoding="UTF-8" standalone="no"?><svg xmlns="http://www.w3.org/2000/svg" xmlns:xlink="http://www.w3.org/1999/xlink" contentScriptType="application/ecmascript" contentStyleType="text/css" height="499px" preserveAspectRatio="none" style="width:352px;height:499px;" version="1.1" viewBox="0 0 352 499" width="352px" zoomAndPan="magnify"><defs><filter height="300%" id="f1heknqy6s39z3" width="300%" x="-1" y="-1"><feGaussianBlur result="blurOut" stdDeviation="2.0"/><feColorMatrix in="blurOut" result="blurOut2" type="matrix" values="0 0 0 0 0 0 0 0 0 0 0 0 0 0 0 0 0 0 .4 0"/><feOffset dx="4.0" dy="4.0" in="blurOut2" result="blurOut3"/><feBlend in="SourceGraphic" in2="blurOut3" mode="normal"/></filter></defs><g><!--MD5=[f60b16cb516bc977f3d142e48df51d7a]
class Unknown--><rect fill="#FEFECE" filter="url(#f1heknqy6s39z3)" height="48" id="Unknown" style="stroke: #A80036; stroke-width: 1.5;" width="89" x="77.5" y="8"/><ellipse cx="92.5" cy="24" fill="#ADD1B2" rx="11" ry="11" style="stroke: #A80036; stroke-width: 1.0;"/><path d="M94.8438,19.6719 L95.0156,19.75 C95.2344,19.4375 95.4375,19.3438 95.7344,19.3438 C96.0313,19.3438 96.3125,19.4844 96.4688,19.75 C96.5625,19.9063 96.5781,20.0313 96.5781,20.4688 L96.5781,21.8906 C96.5781,22.3125 96.5469,22.5 96.4375,22.6563 C96.2656,22.875 96,23.0156 95.7344,23.0156 C95.5156,23.0156 95.2813,22.9063 95.1406,22.7656 C95,22.6406 94.9688,22.5156 94.9063,22.1094 C94.8125,21.7031 94.6406,21.4844 94.1563,21.2031 C93.6875,20.9531 93.0781,20.7969 92.5,20.7969 C90.7656,20.7969 89.5156,22.1094 89.5156,23.8906 L89.5156,24.9844 C89.5156,26.6875 90.8125,27.7813 92.8594,27.7813 C93.625,27.7813 94.3125,27.6563 94.7344,27.3906 C94.9219,27.2969 94.9219,27.2969 95.375,26.8125 C95.5625,26.625 95.7656,26.5469 95.9844,26.5469 C96.4531,26.5469 96.8438,26.9375 96.8438,27.3906 C96.8438,27.7813 96.5156,28.2344 95.9375,28.6406 C95.1875,29.1875 94.0313,29.4844 92.8125,29.4844 C89.9219,29.4844 87.8125,27.5938 87.8125,25.0156 L87.8125,23.8906 C87.8125,21.1719 89.8125,19.0938 92.4375,19.0938 C93.3125,19.0938 93.9063,19.2344 94.8438,19.6719 Z "/><text fill="#000000" font-family="sans-serif" font-size="12" lengthAdjust="spacingAndGlyphs" textLength="57" x="106.5" y="28.1543">Unknown</text><line style="stroke: #A80036; stroke-width: 1.5;" x1="78.5" x2="165.5" y1="40" y2="40"/><line style="stroke: #A80036; stroke-width: 1.5;" x1="78.5" x2="165.5" y1="48" y2="48"/><!--MD5=[9fb4aef2c7a751a7b35d70fc8bb91760]
class NullType--><rect fill="#FEFECE" filter="url(#f1heknqy6s39z3)" height="48" id="NullType" style="stroke: #A80036; stroke-width: 1.5;" width="84" x="6" y="224"/><ellipse cx="21" cy="240" fill="#ADD1B2" rx="11" ry="11" style="stroke: #A80036; stroke-width: 1.0;"/><path d="M23.3438,235.6719 L23.5156,235.75 C23.7344,235.4375 23.9375,235.3438 24.2344,235.3438 C24.5313,235.3438 24.8125,235.4844 24.9688,235.75 C25.0625,235.9063 25.0781,236.0313 25.0781,236.4688 L25.0781,237.8906 C25.0781,238.3125 25.0469,238.5 24.9375,238.6563 C24.7656,238.875 24.5,239.0156 24.2344,239.0156 C24.0156,239.0156 23.7813,238.9063 23.6406,238.7656 C23.5,238.6406 23.4688,238.5156 23.4063,238.1094 C23.3125,237.7031 23.1406,237.4844 22.6563,237.2031 C22.1875,236.9531 21.5781,236.7969 21,236.7969 C19.2656,236.7969 18.0156,238.1094 18.0156,239.8906 L18.0156,240.9844 C18.0156,242.6875 19.3125,243.7813 21.3594,243.7813 C22.125,243.7813 22.8125,243.6563 23.2344,243.3906 C23.4219,243.2969 23.4219,243.2969 23.875,242.8125 C24.0625,242.625 24.2656,242.5469 24.4844,242.5469 C24.9531,242.5469 25.3438,242.9375 25.3438,243.3906 C25.3438,243.7813 25.0156,244.2344 24.4375,244.6406 C23.6875,245.1875 22.5313,245.4844 21.3125,245.4844 C18.4219,245.4844 16.3125,243.5938 16.3125,241.0156 L16.3125,239.8906 C16.3125,237.1719 18.3125,235.0938 20.9375,235.0938 C21.8125,235.0938 22.4063,235.2344 23.3438,235.6719 Z "/><text fill="#000000" font-family="sans-serif" font-size="12" lengthAdjust="spacingAndGlyphs" textLength="52" x="35" y="244.1543">NullType</text><line style="stroke: #A80036; stroke-width: 1.5;" x1="7" x2="89" y1="256" y2="256"/><line style="stroke: #A80036; stroke-width: 1.5;" x1="7" x2="89" y1="264" y2="264"/><!--MD5=[942a8d857d37b8d53cff193a1984d29e]
class ObjectsWithStates--><rect fill="#FEFECE" filter="url(#f1heknqy6s39z3)" height="48" id="ObjectsWithStates" style="stroke: #A80036; stroke-width: 1.5;" width="147" x="117.5" y="116"/><ellipse cx="132.5" cy="132" fill="#ADD1B2" rx="11" ry="11" style="stroke: #A80036; stroke-width: 1.0;"/><path d="M134.8438,127.6719 L135.0156,127.75 C135.2344,127.4375 135.4375,127.3438 135.7344,127.3438 C136.0313,127.3438 136.3125,127.4844 136.4688,127.75 C136.5625,127.9063 136.5781,128.0313 136.5781,128.4688 L136.5781,129.8906 C136.5781,130.3125 136.5469,130.5 136.4375,130.6563 C136.2656,130.875 136,131.0156 135.7344,131.0156 C135.5156,131.0156 135.2813,130.9063 135.1406,130.7656 C135,130.6406 134.9688,130.5156 134.9063,130.1094 C134.8125,129.7031 134.6406,129.4844 134.1563,129.2031 C133.6875,128.9531 133.0781,128.7969 132.5,128.7969 C130.7656,128.7969 129.5156,130.1094 129.5156,131.8906 L129.5156,132.9844 C129.5156,134.6875 130.8125,135.7813 132.8594,135.7813 C133.625,135.7813 134.3125,135.6563 134.7344,135.3906 C134.9219,135.2969 134.9219,135.2969 135.375,134.8125 C135.5625,134.625 135.7656,134.5469 135.9844,134.5469 C136.4531,134.5469 136.8438,134.9375 136.8438,135.3906 C136.8438,135.7813 136.5156,136.2344 135.9375,136.6406 C135.1875,137.1875 134.0313,137.4844 132.8125,137.4844 C129.9219,137.4844 127.8125,135.5938 127.8125,133.0156 L127.8125,131.8906 C127.8125,129.1719 129.8125,127.0938 132.4375,127.0938 C133.3125,127.0938 133.9063,127.2344 134.8438,127.6719 Z "/><text fill="#000000" font-family="sans-serif" font-size="12" lengthAdjust="spacingAndGlyphs" textLength="115" x="146.5" y="136.1543">ObjectsWithStates</text><line style="stroke: #A80036; stroke-width: 1.5;" x1="118.5" x2="263.5" y1="148" y2="148"/><line style="stroke: #A80036; stroke-width: 1.5;" x1="118.5" x2="263.5" y1="156" y2="156"/><!--MD5=[541dc7839dbc7e5025fd41177d4bccd9]
class File{Open, Close}--><rect fill="#FEFECE" filter="url(#f1heknqy6s39z3)" height="48" id="File{Open, Close}" style="stroke: #A80036; stroke-width: 1.5;" width="144" x="125" y="224"/><ellipse cx="140" cy="240" fill="#ADD1B2" rx="11" ry="11" style="stroke: #A80036; stroke-width: 1.0;"/><path d="M142.3438,235.6719 L142.5156,235.75 C142.7344,235.4375 142.9375,235.3438 143.2344,235.3438 C143.5313,235.3438 143.8125,235.4844 143.9688,235.75 C144.0625,235.9063 144.0781,236.0313 144.0781,236.4688 L144.0781,237.8906 C144.0781,238.3125 144.0469,238.5 143.9375,238.6563 C143.7656,238.875 143.5,239.0156 143.2344,239.0156 C143.0156,239.0156 142.7813,238.9063 142.6406,238.7656 C142.5,238.6406 142.4688,238.5156 142.4063,238.1094 C142.3125,237.7031 142.1406,237.4844 141.6563,237.2031 C141.1875,236.9531 140.5781,236.7969 140,236.7969 C138.2656,236.7969 137.0156,238.1094 137.0156,239.8906 L137.0156,240.9844 C137.0156,242.6875 138.3125,243.7813 140.3594,243.7813 C141.125,243.7813 141.8125,243.6563 142.2344,243.3906 C142.4219,243.2969 142.4219,243.2969 142.875,242.8125 C143.0625,242.625 143.2656,242.5469 143.4844,242.5469 C143.9531,242.5469 144.3438,242.9375 144.3438,243.3906 C144.3438,243.7813 144.0156,244.2344 143.4375,244.6406 C142.6875,245.1875 141.5313,245.4844 140.3125,245.4844 C137.4219,245.4844 135.3125,243.5938 135.3125,241.0156 L135.3125,239.8906 C135.3125,237.1719 137.3125,235.0938 139.9375,235.0938 C140.8125,235.0938 141.4063,235.2344 142.3438,235.6719 Z "/><text fill="#000000" font-family="sans-serif" font-size="12" lengthAdjust="spacingAndGlyphs" textLength="112" x="154" y="244.1543">File{Open, Close}</text><line style="stroke: #A80036; stroke-width: 1.5;" x1="126" x2="268" y1="256" y2="256"/><line style="stroke: #A80036; stroke-width: 1.5;" x1="126" x2="268" y1="264" y2="264"/><!--MD5=[df1824b7cf5dc86ba750de73475dea09]
class File{Open}--><rect fill="#FEFECE" filter="url(#f1heknqy6s39z3)" height="48" id="File{Open}" style="stroke: #A80036; stroke-width: 1.5;" width="102" x="101" y="332"/><ellipse cx="116" cy="348" fill="#ADD1B2" rx="11" ry="11" style="stroke: #A80036; stroke-width: 1.0;"/><path d="M118.3438,343.6719 L118.5156,343.75 C118.7344,343.4375 118.9375,343.3438 119.2344,343.3438 C119.5313,343.3438 119.8125,343.4844 119.9688,343.75 C120.0625,343.9063 120.0781,344.0313 120.0781,344.4688 L120.0781,345.8906 C120.0781,346.3125 120.0469,346.5 119.9375,346.6563 C119.7656,346.875 119.5,347.0156 119.2344,347.0156 C119.0156,347.0156 118.7813,346.9063 118.6406,346.7656 C118.5,346.6406 118.4688,346.5156 118.4063,346.1094 C118.3125,345.7031 118.1406,345.4844 117.6563,345.2031 C117.1875,344.9531 116.5781,344.7969 116,344.7969 C114.2656,344.7969 113.0156,346.1094 113.0156,347.8906 L113.0156,348.9844 C113.0156,350.6875 114.3125,351.7813 116.3594,351.7813 C117.125,351.7813 117.8125,351.6563 118.2344,351.3906 C118.4219,351.2969 118.4219,351.2969 118.875,350.8125 C119.0625,350.625 119.2656,350.5469 119.4844,350.5469 C119.9531,350.5469 120.3438,350.9375 120.3438,351.3906 C120.3438,351.7813 120.0156,352.2344 119.4375,352.6406 C118.6875,353.1875 117.5313,353.4844 116.3125,353.4844 C113.4219,353.4844 111.3125,351.5938 111.3125,349.0156 L111.3125,347.8906 C111.3125,345.1719 113.3125,343.0938 115.9375,343.0938 C116.8125,343.0938 117.4063,343.2344 118.3438,343.6719 Z "/><text fill="#000000" font-family="sans-serif" font-size="12" lengthAdjust="spacingAndGlyphs" textLength="70" x="130" y="352.1543">File{Open}</text><line style="stroke: #A80036; stroke-width: 1.5;" x1="102" x2="202" y1="364" y2="364"/><line style="stroke: #A80036; stroke-width: 1.5;" x1="102" x2="202" y1="372" y2="372"/><!--MD5=[63645366d7631e2ff2361d0f51bf4457]
class File{Close}--><rect fill="#FEFECE" filter="url(#f1heknqy6s39z3)" height="48" id="File{Close}" style="stroke: #A80036; stroke-width: 1.5;" width="103" x="238.5" y="332"/><ellipse cx="253.5" cy="348" fill="#ADD1B2" rx="11" ry="11" style="stroke: #A80036; stroke-width: 1.0;"/><path d="M255.8438,343.6719 L256.0156,343.75 C256.2344,343.4375 256.4375,343.3438 256.7344,343.3438 C257.0313,343.3438 257.3125,343.4844 257.4688,343.75 C257.5625,343.9063 257.5781,344.0313 257.5781,344.4688 L257.5781,345.8906 C257.5781,346.3125 257.5469,346.5 257.4375,346.6563 C257.2656,346.875 257,347.0156 256.7344,347.0156 C256.5156,347.0156 256.2813,346.9063 256.1406,346.7656 C256,346.6406 255.9688,346.5156 255.9063,346.1094 C255.8125,345.7031 255.6406,345.4844 255.1563,345.2031 C254.6875,344.9531 254.0781,344.7969 253.5,344.7969 C251.7656,344.7969 250.5156,346.1094 250.5156,347.8906 L250.5156,348.9844 C250.5156,350.6875 251.8125,351.7813 253.8594,351.7813 C254.625,351.7813 255.3125,351.6563 255.7344,351.3906 C255.9219,351.2969 255.9219,351.2969 256.375,350.8125 C256.5625,350.625 256.7656,350.5469 256.9844,350.5469 C257.4531,350.5469 257.8438,350.9375 257.8438,351.3906 C257.8438,351.7813 257.5156,352.2344 256.9375,352.6406 C256.1875,353.1875 255.0313,353.4844 253.8125,353.4844 C250.9219,353.4844 248.8125,351.5938 248.8125,349.0156 L248.8125,347.8906 C248.8125,345.1719 250.8125,343.0938 253.4375,343.0938 C254.3125,343.0938 254.9063,343.2344 255.8438,343.6719 Z "/><text fill="#000000" font-family="sans-serif" font-size="12" lengthAdjust="spacingAndGlyphs" textLength="71" x="267.5" y="352.1543">File{Close}</text><line style="stroke: #A80036; stroke-width: 1.5;" x1="239.5" x2="340.5" y1="364" y2="364"/><line style="stroke: #A80036; stroke-width: 1.5;" x1="239.5" x2="340.5" y1="372" y2="372"/><!--MD5=[eab4c3e00336c089e0e39f4232e82faa]
class Bottom--><rect fill="#FEFECE" filter="url(#f1heknqy6s39z3)" height="48" id="Bottom" style="stroke: #A80036; stroke-width: 1.5;" width="77" x="113.5" y="440"/><ellipse cx="128.5" cy="456" fill="#ADD1B2" rx="11" ry="11" style="stroke: #A80036; stroke-width: 1.0;"/><path d="M130.8438,451.6719 L131.0156,451.75 C131.2344,451.4375 131.4375,451.3438 131.7344,451.3438 C132.0313,451.3438 132.3125,451.4844 132.4688,451.75 C132.5625,451.9063 132.5781,452.0313 132.5781,452.4688 L132.5781,453.8906 C132.5781,454.3125 132.5469,454.5 132.4375,454.6563 C132.2656,454.875 132,455.0156 131.7344,455.0156 C131.5156,455.0156 131.2813,454.9063 131.1406,454.7656 C131,454.6406 130.9688,454.5156 130.9063,454.1094 C130.8125,453.7031 130.6406,453.4844 130.1563,453.2031 C129.6875,452.9531 129.0781,452.7969 128.5,452.7969 C126.7656,452.7969 125.5156,454.1094 125.5156,455.8906 L125.5156,456.9844 C125.5156,458.6875 126.8125,459.7813 128.8594,459.7813 C129.625,459.7813 130.3125,459.6563 130.7344,459.3906 C130.9219,459.2969 130.9219,459.2969 131.375,458.8125 C131.5625,458.625 131.7656,458.5469 131.9844,458.5469 C132.4531,458.5469 132.8438,458.9375 132.8438,459.3906 C132.8438,459.7813 132.5156,460.2344 131.9375,460.6406 C131.1875,461.1875 130.0313,461.4844 128.8125,461.4844 C125.9219,461.4844 123.8125,459.5938 123.8125,457.0156 L123.8125,455.8906 C123.8125,453.1719 125.8125,451.0938 128.4375,451.0938 C129.3125,451.0938 129.9063,451.2344 130.8438,451.6719 Z "/><text fill="#000000" font-family="sans-serif" font-size="12" lengthAdjust="spacingAndGlyphs" textLength="45" x="142.5" y="460.1543">Bottom</text><line style="stroke: #A80036; stroke-width: 1.5;" x1="114.5" x2="189.5" y1="472" y2="472"/><line style="stroke: #A80036; stroke-width: 1.5;" x1="114.5" x2="189.5" y1="480" y2="480"/><!--MD5=[a69d2a7b17c1cfbed5e43784ba85dd97]
reverse link Unknown to NullType--><path d="M107.327,75.432 C91.9428,119.922 68.3325,188.201 56.0502,223.72 " fill="none" id="Unknown&lt;-NullType" style="stroke: #A80036; stroke-width: 1.0;"/><polygon fill="none" points="100.788,72.923,113.94,56.309,114.019,77.499,100.788,72.923" style="stroke: #A80036; stroke-width: 1.0;"/><!--MD5=[b06de8eeba8868a898a487df1d39d71d]
reverse link Unknown to ObjectsWithStates--><path d="M148.125,73.134 C157.476,87.499 167.701,103.207 175.819,115.678 " fill="none" id="Unknown&lt;-ObjectsWithStates" style="stroke: #A80036; stroke-width: 1.0;"/><polygon fill="none" points="142.016,76.581,136.972,56,153.749,68.943,142.016,76.581" style="stroke: #A80036; stroke-width: 1.0;"/><!--MD5=[90e4b34620423de852b0d9ffe15702eb]
reverse link ObjectsWithStates to File{Open, Close}--><path d="M193.435,184.024 C194.203,197.579 195.021,212.038 195.68,223.678 " fill="none" id="ObjectsWithStates&lt;-File{Open, Close}" style="stroke: #A80036; stroke-width: 1.0;"/><polygon fill="none" points="186.443,184.364,192.302,164,200.421,183.573,186.443,184.364" style="stroke: #A80036; stroke-width: 1.0;"/><!--MD5=[8a755dbf9084da77c61416060f21e987]
reverse link File{Open, Close} to File{Open}--><path d="M179.35,290.575 C173.421,304.543 167.019,319.622 161.901,331.678 " fill="none" id="File{Open, Close}&lt;-File{Open}" style="stroke: #A80036; stroke-width: 1.0;"/><polygon fill="none" points="172.977,287.675,187.236,272,185.864,293.146,172.977,287.675" style="stroke: #A80036; stroke-width: 1.0;"/><!--MD5=[4c5ee34f86eaa6150a158d51d92a8f4b]
reverse link File{Open, Close} to File{Close}--><path d="M230.539,287.227 C243.585,302.097 258.11,318.652 269.539,331.678 " fill="none" id="File{Open, Close}&lt;-File{Close}" style="stroke: #A80036; stroke-width: 1.0;"/><polygon fill="none" points="225.108,291.651,217.18,272,235.632,282.418,225.108,291.651" style="stroke: #A80036; stroke-width: 1.0;"/><!--MD5=[5d50ff6beddb260679b7386b3146e265]
reverse link NullType to Bottom--><path d="M54.6434,292.06 C59.8781,318.481 68.7349,352.419 83,380 C94.6215,402.4699 113.174,424.3226 128.116,439.9605 " fill="none" id="NullType&lt;-Bottom" style="stroke: #A80036; stroke-width: 1.0;"/><polygon fill="none" points="47.7475,293.263,51.1233,272.344,61.5296,290.802,47.7475,293.263" style="stroke: #A80036; stroke-width: 1.0;"/><!--MD5=[9c872902a7942d77f1b25070bedc799f]
reverse link File{Open} to Bottom--><path d="M152,400.0236 C152,413.5792 152,428.0381 152,439.6784 " fill="none" id="File{Open}&lt;-Bottom" style="stroke: #A80036; stroke-width: 1.0;"/><polygon fill="none" points="145,400.0005,152,380,159,400.0004,145,400.0005" style="stroke: #A80036; stroke-width: 1.0;"/><!--MD5=[aef31702755fb46f2bf99b431b2b7f74]
reverse link File{Close} to Bottom--><path d="M243.911,392.4016 C223.644,407.9688 200.403,425.8209 182.362,439.6784 " fill="none" id="File{Close}&lt;-Bottom" style="stroke: #A80036; stroke-width: 1.0;"/><polygon fill="none" points="239.931,386.632,260.056,380,248.459,397.7349,239.931,386.632" style="stroke: #A80036; stroke-width: 1.0;"/><!--MD5=[208e2f8cf3847a741fc63fc27e281c85]
@startuml
Unknown <|- - NullType
Unknown <|- - ObjectsWithStates
ObjectsWithStates <|- - "File{Open, Close}"
"File{Open, Close}" <|- - "File{Open}"
"File{Open, Close}" <|- - "File{Close}"
NullType <|- - Bottom
"File{Open}" <|- - Bottom
"File{Close}" <|- - Bottom
@enduml

PlantUML version 1.2020.03beta11(Unknown compile time)
(GPL source distribution)
Java Runtime: Java(TM) SE Runtime Environment
JVM: Java HotSpot(TM) 64-Bit Server VM
Java Version: 1.7.0_25-b15
Operating System: Linux
Default Encoding: UTF-8
Language: en
Country: US
--></g></svg>