<?xml version="1.0" encoding="UTF-8" standalone="no"?><svg xmlns="http://www.w3.org/2000/svg" xmlns:xlink="http://www.w3.org/1999/xlink" contentScriptType="application/ecmascript" contentStyleType="text/css" height="283px" preserveAspectRatio="none" style="width:504px;height:283px;" version="1.1" viewBox="0 0 504 283" width="504px" zoomAndPan="magnify"><defs><filter height="300%" id="f19v6amaclqsdk" width="300%" x="-1" y="-1"><feGaussianBlur result="blurOut" stdDeviation="2.0"/><feColorMatrix in="blurOut" result="blurOut2" type="matrix" values="0 0 0 0 0 0 0 0 0 0 0 0 0 0 0 0 0 0 .4 0"/><feOffset dx="4.0" dy="4.0" in="blurOut2" result="blurOut3"/><feBlend in="SourceGraphic" in2="blurOut3" mode="normal"/></filter></defs><g><!--MD5=[f60b16cb516bc977f3d142e48df51d7a]
class Unknown--><rect fill="#FEFECE" filter="url(#f19v6amaclqsdk)" height="48" id="Unknown" style="stroke: #A80036; stroke-width: 1.5;" width="89" x="227.5" y="8"/><ellipse cx="242.5" cy="24" fill="#ADD1B2" rx="11" ry="11" style="stroke: #A80036; stroke-width: 1.0;"/><path d="M244.8438,19.6719 L245.0156,19.75 C245.2344,19.4375 245.4375,19.3438 245.7344,19.3438 C246.0313,19.3438 246.3125,19.4844 246.4688,19.75 C246.5625,19.9063 246.5781,20.0313 246.5781,20.4688 L246.5781,21.8906 C246.5781,22.3125 246.5469,22.5 246.4375,22.6563 C246.2656,22.875 246,23.0156 245.7344,23.0156 C245.5156,23.0156 245.2813,22.9063 245.1406,22.7656 C245,22.6406 244.9688,22.5156 244.9063,22.1094 C244.8125,21.7031 244.6406,21.4844 244.1563,21.2031 C243.6875,20.9531 243.0781,20.7969 242.5,20.7969 C240.7656,20.7969 239.5156,22.1094 239.5156,23.8906 L239.5156,24.9844 C239.5156,26.6875 240.8125,27.7813 242.8594,27.7813 C243.625,27.7813 244.3125,27.6563 244.7344,27.3906 C244.9219,27.2969 244.9219,27.2969 245.375,26.8125 C245.5625,26.625 245.7656,26.5469 245.9844,26.5469 C246.4531,26.5469 246.8438,26.9375 246.8438,27.3906 C246.8438,27.7813 246.5156,28.2344 245.9375,28.6406 C245.1875,29.1875 244.0313,29.4844 242.8125,29.4844 C239.9219,29.4844 237.8125,27.5938 237.8125,25.0156 L237.8125,23.8906 C237.8125,21.1719 239.8125,19.0938 242.4375,19.0938 C243.3125,19.0938 243.9063,19.2344 244.8438,19.6719 Z "/><text fill="#000000" font-family="sans-serif" font-size="12" lengthAdjust="spacingAndGlyphs" textLength="57" x="256.5" y="28.1543">Unknown</text><line style="stroke: #A80036; stroke-width: 1.5;" x1="228.5" x2="315.5" y1="40" y2="40"/><line style="stroke: #A80036; stroke-width: 1.5;" x1="228.5" x2="315.5" y1="48" y2="48"/><!--MD5=[4892946de888ef19fec380dc0044931d]
class NotEndedObj--><rect fill="#FEFECE" filter="url(#f19v6amaclqsdk)" height="48" id="NotEndedObj" style="stroke: #A80036; stroke-width: 1.5;" width="114" x="6" y="116"/><ellipse cx="21" cy="132" fill="#ADD1B2" rx="11" ry="11" style="stroke: #A80036; stroke-width: 1.0;"/><path d="M23.3438,127.6719 L23.5156,127.75 C23.7344,127.4375 23.9375,127.3438 24.2344,127.3438 C24.5313,127.3438 24.8125,127.4844 24.9688,127.75 C25.0625,127.9063 25.0781,128.0313 25.0781,128.4688 L25.0781,129.8906 C25.0781,130.3125 25.0469,130.5 24.9375,130.6563 C24.7656,130.875 24.5,131.0156 24.2344,131.0156 C24.0156,131.0156 23.7813,130.9063 23.6406,130.7656 C23.5,130.6406 23.4688,130.5156 23.4063,130.1094 C23.3125,129.7031 23.1406,129.4844 22.6563,129.2031 C22.1875,128.9531 21.5781,128.7969 21,128.7969 C19.2656,128.7969 18.0156,130.1094 18.0156,131.8906 L18.0156,132.9844 C18.0156,134.6875 19.3125,135.7813 21.3594,135.7813 C22.125,135.7813 22.8125,135.6563 23.2344,135.3906 C23.4219,135.2969 23.4219,135.2969 23.875,134.8125 C24.0625,134.625 24.2656,134.5469 24.4844,134.5469 C24.9531,134.5469 25.3438,134.9375 25.3438,135.3906 C25.3438,135.7813 25.0156,136.2344 24.4375,136.6406 C23.6875,137.1875 22.5313,137.4844 21.3125,137.4844 C18.4219,137.4844 16.3125,135.5938 16.3125,133.0156 L16.3125,131.8906 C16.3125,129.1719 18.3125,127.0938 20.9375,127.0938 C21.8125,127.0938 22.4063,127.2344 23.3438,127.6719 Z "/><text fill="#000000" font-family="sans-serif" font-size="12" lengthAdjust="spacingAndGlyphs" textLength="82" x="35" y="136.1543">NotEndedObj</text><line style="stroke: #A80036; stroke-width: 1.5;" x1="7" x2="119" y1="148" y2="148"/><line style="stroke: #A80036; stroke-width: 1.5;" x1="7" x2="119" y1="156" y2="156"/><!--MD5=[7b7d1b9d3f0871abb25fa244fb5f2d5c]
class EndedObj--><rect fill="#FEFECE" filter="url(#f19v6amaclqsdk)" height="48" id="EndedObj" style="stroke: #A80036; stroke-width: 1.5;" width="92" x="155" y="116"/><ellipse cx="170" cy="132" fill="#ADD1B2" rx="11" ry="11" style="stroke: #A80036; stroke-width: 1.0;"/><path d="M172.3438,127.6719 L172.5156,127.75 C172.7344,127.4375 172.9375,127.3438 173.2344,127.3438 C173.5313,127.3438 173.8125,127.4844 173.9688,127.75 C174.0625,127.9063 174.0781,128.0313 174.0781,128.4688 L174.0781,129.8906 C174.0781,130.3125 174.0469,130.5 173.9375,130.6563 C173.7656,130.875 173.5,131.0156 173.2344,131.0156 C173.0156,131.0156 172.7813,130.9063 172.6406,130.7656 C172.5,130.6406 172.4688,130.5156 172.4063,130.1094 C172.3125,129.7031 172.1406,129.4844 171.6563,129.2031 C171.1875,128.9531 170.5781,128.7969 170,128.7969 C168.2656,128.7969 167.0156,130.1094 167.0156,131.8906 L167.0156,132.9844 C167.0156,134.6875 168.3125,135.7813 170.3594,135.7813 C171.125,135.7813 171.8125,135.6563 172.2344,135.3906 C172.4219,135.2969 172.4219,135.2969 172.875,134.8125 C173.0625,134.625 173.2656,134.5469 173.4844,134.5469 C173.9531,134.5469 174.3438,134.9375 174.3438,135.3906 C174.3438,135.7813 174.0156,136.2344 173.4375,136.6406 C172.6875,137.1875 171.5313,137.4844 170.3125,137.4844 C167.4219,137.4844 165.3125,135.5938 165.3125,133.0156 L165.3125,131.8906 C165.3125,129.1719 167.3125,127.0938 169.9375,127.0938 C170.8125,127.0938 171.4063,127.2344 172.3438,127.6719 Z "/><text fill="#000000" font-family="sans-serif" font-size="12" lengthAdjust="spacingAndGlyphs" textLength="60" x="184" y="136.1543">EndedObj</text><line style="stroke: #A80036; stroke-width: 1.5;" x1="156" x2="246" y1="148" y2="148"/><line style="stroke: #A80036; stroke-width: 1.5;" x1="156" x2="246" y1="156" y2="156"/><!--MD5=[6ac40a58d1fbf26cd75d8eb9e305a436]
class NoProtocolObj--><rect fill="#FEFECE" filter="url(#f19v6amaclqsdk)" height="48" id="NoProtocolObj" style="stroke: #A80036; stroke-width: 1.5;" width="121" x="282.5" y="116"/><ellipse cx="297.5" cy="132" fill="#ADD1B2" rx="11" ry="11" style="stroke: #A80036; stroke-width: 1.0;"/><path d="M299.8438,127.6719 L300.0156,127.75 C300.2344,127.4375 300.4375,127.3438 300.7344,127.3438 C301.0313,127.3438 301.3125,127.4844 301.4688,127.75 C301.5625,127.9063 301.5781,128.0313 301.5781,128.4688 L301.5781,129.8906 C301.5781,130.3125 301.5469,130.5 301.4375,130.6563 C301.2656,130.875 301,131.0156 300.7344,131.0156 C300.5156,131.0156 300.2813,130.9063 300.1406,130.7656 C300,130.6406 299.9688,130.5156 299.9063,130.1094 C299.8125,129.7031 299.6406,129.4844 299.1563,129.2031 C298.6875,128.9531 298.0781,128.7969 297.5,128.7969 C295.7656,128.7969 294.5156,130.1094 294.5156,131.8906 L294.5156,132.9844 C294.5156,134.6875 295.8125,135.7813 297.8594,135.7813 C298.625,135.7813 299.3125,135.6563 299.7344,135.3906 C299.9219,135.2969 299.9219,135.2969 300.375,134.8125 C300.5625,134.625 300.7656,134.5469 300.9844,134.5469 C301.4531,134.5469 301.8438,134.9375 301.8438,135.3906 C301.8438,135.7813 301.5156,136.2344 300.9375,136.6406 C300.1875,137.1875 299.0313,137.4844 297.8125,137.4844 C294.9219,137.4844 292.8125,135.5938 292.8125,133.0156 L292.8125,131.8906 C292.8125,129.1719 294.8125,127.0938 297.4375,127.0938 C298.3125,127.0938 298.9063,127.2344 299.8438,127.6719 Z "/><text fill="#000000" font-family="sans-serif" font-size="12" lengthAdjust="spacingAndGlyphs" textLength="89" x="311.5" y="136.1543">NoProtocolObj</text><line style="stroke: #A80036; stroke-width: 1.5;" x1="283.5" x2="402.5" y1="148" y2="148"/><line style="stroke: #A80036; stroke-width: 1.5;" x1="283.5" x2="402.5" y1="156" y2="156"/><!--MD5=[c330aa171b4ae5600de6569adaab31c4]
class Null--><rect fill="#FEFECE" filter="url(#f19v6amaclqsdk)" height="48" id="Null" style="stroke: #A80036; stroke-width: 1.5;" width="55" x="438.5" y="116"/><ellipse cx="453.5" cy="132" fill="#ADD1B2" rx="11" ry="11" style="stroke: #A80036; stroke-width: 1.0;"/><path d="M455.8438,127.6719 L456.0156,127.75 C456.2344,127.4375 456.4375,127.3438 456.7344,127.3438 C457.0313,127.3438 457.3125,127.4844 457.4688,127.75 C457.5625,127.9063 457.5781,128.0313 457.5781,128.4688 L457.5781,129.8906 C457.5781,130.3125 457.5469,130.5 457.4375,130.6563 C457.2656,130.875 457,131.0156 456.7344,131.0156 C456.5156,131.0156 456.2813,130.9063 456.1406,130.7656 C456,130.6406 455.9688,130.5156 455.9063,130.1094 C455.8125,129.7031 455.6406,129.4844 455.1563,129.2031 C454.6875,128.9531 454.0781,128.7969 453.5,128.7969 C451.7656,128.7969 450.5156,130.1094 450.5156,131.8906 L450.5156,132.9844 C450.5156,134.6875 451.8125,135.7813 453.8594,135.7813 C454.625,135.7813 455.3125,135.6563 455.7344,135.3906 C455.9219,135.2969 455.9219,135.2969 456.375,134.8125 C456.5625,134.625 456.7656,134.5469 456.9844,134.5469 C457.4531,134.5469 457.8438,134.9375 457.8438,135.3906 C457.8438,135.7813 457.5156,136.2344 456.9375,136.6406 C456.1875,137.1875 455.0313,137.4844 453.8125,137.4844 C450.9219,137.4844 448.8125,135.5938 448.8125,133.0156 L448.8125,131.8906 C448.8125,129.1719 450.8125,127.0938 453.4375,127.0938 C454.3125,127.0938 454.9063,127.2344 455.8438,127.6719 Z "/><text fill="#000000" font-family="sans-serif" font-size="12" lengthAdjust="spacingAndGlyphs" textLength="23" x="467.5" y="136.1543">Null</text><line style="stroke: #A80036; stroke-width: 1.5;" x1="439.5" x2="492.5" y1="148" y2="148"/><line style="stroke: #A80036; stroke-width: 1.5;" x1="439.5" x2="492.5" y1="156" y2="156"/><!--MD5=[eab4c3e00336c089e0e39f4232e82faa]
class Bottom--><rect fill="#FEFECE" filter="url(#f19v6amaclqsdk)" height="48" id="Bottom" style="stroke: #A80036; stroke-width: 1.5;" width="77" x="233.5" y="224"/><ellipse cx="248.5" cy="240" fill="#ADD1B2" rx="11" ry="11" style="stroke: #A80036; stroke-width: 1.0;"/><path d="M250.8438,235.6719 L251.0156,235.75 C251.2344,235.4375 251.4375,235.3438 251.7344,235.3438 C252.0313,235.3438 252.3125,235.4844 252.4688,235.75 C252.5625,235.9063 252.5781,236.0313 252.5781,236.4688 L252.5781,237.8906 C252.5781,238.3125 252.5469,238.5 252.4375,238.6563 C252.2656,238.875 252,239.0156 251.7344,239.0156 C251.5156,239.0156 251.2813,238.9063 251.1406,238.7656 C251,238.6406 250.9688,238.5156 250.9063,238.1094 C250.8125,237.7031 250.6406,237.4844 250.1563,237.2031 C249.6875,236.9531 249.0781,236.7969 248.5,236.7969 C246.7656,236.7969 245.5156,238.1094 245.5156,239.8906 L245.5156,240.9844 C245.5156,242.6875 246.8125,243.7813 248.8594,243.7813 C249.625,243.7813 250.3125,243.6563 250.7344,243.3906 C250.9219,243.2969 250.9219,243.2969 251.375,242.8125 C251.5625,242.625 251.7656,242.5469 251.9844,242.5469 C252.4531,242.5469 252.8438,242.9375 252.8438,243.3906 C252.8438,243.7813 252.5156,244.2344 251.9375,244.6406 C251.1875,245.1875 250.0313,245.4844 248.8125,245.4844 C245.9219,245.4844 243.8125,243.5938 243.8125,241.0156 L243.8125,239.8906 C243.8125,237.1719 245.8125,235.0938 248.4375,235.0938 C249.3125,235.0938 249.9063,235.2344 250.8438,235.6719 Z "/><text fill="#000000" font-family="sans-serif" font-size="12" lengthAdjust="spacingAndGlyphs" textLength="45" x="262.5" y="244.1543">Bottom</text><line style="stroke: #A80036; stroke-width: 1.5;" x1="234.5" x2="309.5" y1="256" y2="256"/><line style="stroke: #A80036; stroke-width: 1.5;" x1="234.5" x2="309.5" y1="264" y2="264"/><!--MD5=[ec0439f0c579aa22e8e0821d56b66734]
reverse link Unknown to NotEndedObj--><path d="M209.215,64.843 C176.84,81.263 138.073,100.925 108.594,115.876 " fill="none" id="Unknown&lt;-NotEndedObj" style="stroke: #A80036; stroke-width: 1.0;"/><polygon fill="none" points="206.417,58.413,227.421,55.61,212.75,70.899,206.417,58.413" style="stroke: #A80036; stroke-width: 1.0;"/><!--MD5=[dfb6933be075fc4b6c7d48d154b36026]
reverse link Unknown to EndedObj--><path d="M245.438,72.656 C235.73,87.15 225.068,103.068 216.621,115.678 " fill="none" id="Unknown&lt;-EndedObj" style="stroke: #A80036; stroke-width: 1.0;"/><polygon fill="none" points="239.648,68.722,256.594,56,251.28,76.513,239.648,68.722" style="stroke: #A80036; stroke-width: 1.0;"/><!--MD5=[3d2590f22e68a0f7dbc02bffe6934f5a]
reverse link Unknown to NoProtocolObj--><path d="M298.562,72.656 C308.27,87.15 318.932,103.068 327.379,115.678 " fill="none" id="Unknown&lt;-NoProtocolObj" style="stroke: #A80036; stroke-width: 1.0;"/><polygon fill="none" points="292.72,76.513,287.406,56,304.352,68.722,292.72,76.513" style="stroke: #A80036; stroke-width: 1.0;"/><!--MD5=[36c6fe05f1da7a550e5e2b418971f02a]
reverse link Unknown to Null--><path d="M331.832,65.692 C367.355,85.101 410.714,108.792 438.343,123.888 " fill="none" id="Unknown&lt;-Null" style="stroke: #A80036; stroke-width: 1.0;"/><polygon fill="none" points="328.29,71.733,314.095,56,335.003,59.447,328.29,71.733" style="stroke: #A80036; stroke-width: 1.0;"/><!--MD5=[035fb6f1a999003b94fb9e8f8eb914a7]
reverse link NotEndedObj to Bottom--><path d="M126.347,173.1281 C161.246,190.828 203.432,212.224 233.402,227.4238 " fill="none" id="NotEndedObj&lt;-Bottom" style="stroke: #A80036; stroke-width: 1.0;"/><polygon fill="none" points="123.021,179.29,108.35,164,129.353,166.804,123.021,179.29" style="stroke: #A80036; stroke-width: 1.0;"/><!--MD5=[33f72a4d5b8e466ce0047388e63655ff]
reverse link EndedObj to Bottom--><path d="M227.562,180.6557 C237.27,195.1498 247.932,211.0681 256.379,223.6784 " fill="none" id="EndedObj&lt;-Bottom" style="stroke: #A80036; stroke-width: 1.0;"/><polygon fill="none" points="221.72,184.5129,216.406,164,233.352,176.7217,221.72,184.5129" style="stroke: #A80036; stroke-width: 1.0;"/><!--MD5=[3b5b47868f671e929deb6afc5ce9cc38]
reverse link NoProtocolObj to Bottom--><path d="M316.438,180.6557 C306.73,195.1498 296.068,211.0681 287.621,223.6784 " fill="none" id="NoProtocolObj&lt;-Bottom" style="stroke: #A80036; stroke-width: 1.0;"/><polygon fill="none" points="310.648,176.7217,327.594,164,322.28,184.5129,310.648,176.7217" style="stroke: #A80036; stroke-width: 1.0;"/><!--MD5=[6a4d73ce24d4ff267dae6195406cbacb]
reverse link Null to Bottom--><path d="M420.557,165.83 C387.228,184.0403 342.453,208.5053 310.798,225.8011 " fill="none" id="Null&lt;-Bottom" style="stroke: #A80036; stroke-width: 1.0;"/><polygon fill="none" points="417.297,159.634,438.205,156.187,424.01,171.92,417.297,159.634" style="stroke: #A80036; stroke-width: 1.0;"/><!--MD5=[fe67183712f5cbe318da18c29ea1dd7f]
@startuml
Unknown <|- - NotEndedObj
Unknown <|- - EndedObj
Unknown <|- - NoProtocolObj
Unknown <|- - Null
NotEndedObj <|- - Bottom
EndedObj <|- - Bottom
NoProtocolObj <|- - Bottom
Null <|- - Bottom
@enduml

PlantUML version 1.2020.03beta11(Unknown compile time)
(GPL source distribution)
Java Runtime: Java(TM) SE Runtime Environment
JVM: Java HotSpot(TM) 64-Bit Server VM
Java Version: 1.7.0_25-b15
Operating System: Linux
Default Encoding: UTF-8
Language: en
Country: US
--></g></svg>