<?xml version="1.0" encoding="UTF-8" standalone="no"?><svg xmlns="http://www.w3.org/2000/svg" xmlns:xlink="http://www.w3.org/1999/xlink" contentScriptType="application/ecmascript" contentStyleType="text/css" height="283px" preserveAspectRatio="none" style="width:444px;height:283px;" version="1.1" viewBox="0 0 444 283" width="444px" zoomAndPan="magnify"><defs><filter height="300%" id="f3v59trdlm7ea" width="300%" x="-1" y="-1"><feGaussianBlur result="blurOut" stdDeviation="2.0"/><feColorMatrix in="blurOut" result="blurOut2" type="matrix" values="0 0 0 0 0 0 0 0 0 0 0 0 0 0 0 0 0 0 .4 0"/><feOffset dx="4.0" dy="4.0" in="blurOut2" result="blurOut3"/><feBlend in="SourceGraphic" in2="blurOut3" mode="normal"/></filter></defs><g><!--MD5=[f60b16cb516bc977f3d142e48df51d7a]
class Unknown--><rect fill="#FEFECE" filter="url(#f3v59trdlm7ea)" height="48" id="Unknown" style="stroke: #A80036; stroke-width: 1.5;" width="89" x="187.5" y="8"/><ellipse cx="202.5" cy="24" fill="#ADD1B2" rx="11" ry="11" style="stroke: #A80036; stroke-width: 1.0;"/><path d="M204.8438,19.6719 L205.0156,19.75 C205.2344,19.4375 205.4375,19.3438 205.7344,19.3438 C206.0313,19.3438 206.3125,19.4844 206.4688,19.75 C206.5625,19.9063 206.5781,20.0313 206.5781,20.4688 L206.5781,21.8906 C206.5781,22.3125 206.5469,22.5 206.4375,22.6563 C206.2656,22.875 206,23.0156 205.7344,23.0156 C205.5156,23.0156 205.2813,22.9063 205.1406,22.7656 C205,22.6406 204.9688,22.5156 204.9063,22.1094 C204.8125,21.7031 204.6406,21.4844 204.1563,21.2031 C203.6875,20.9531 203.0781,20.7969 202.5,20.7969 C200.7656,20.7969 199.5156,22.1094 199.5156,23.8906 L199.5156,24.9844 C199.5156,26.6875 200.8125,27.7813 202.8594,27.7813 C203.625,27.7813 204.3125,27.6563 204.7344,27.3906 C204.9219,27.2969 204.9219,27.2969 205.375,26.8125 C205.5625,26.625 205.7656,26.5469 205.9844,26.5469 C206.4531,26.5469 206.8438,26.9375 206.8438,27.3906 C206.8438,27.7813 206.5156,28.2344 205.9375,28.6406 C205.1875,29.1875 204.0313,29.4844 202.8125,29.4844 C199.9219,29.4844 197.8125,27.5938 197.8125,25.0156 L197.8125,23.8906 C197.8125,21.1719 199.8125,19.0938 202.4375,19.0938 C203.3125,19.0938 203.9063,19.2344 204.8438,19.6719 Z "/><text fill="#000000" font-family="sans-serif" font-size="12" lengthAdjust="spacingAndGlyphs" textLength="57" x="216.5" y="28.1543">Unknown</text><line style="stroke: #A80036; stroke-width: 1.5;" x1="188.5" x2="275.5" y1="40" y2="40"/><line style="stroke: #A80036; stroke-width: 1.5;" x1="188.5" x2="275.5" y1="48" y2="48"/><!--MD5=[62c99ada650a42958af240b1423f8dcb]
class NotEnded--><rect fill="#FEFECE" filter="url(#f3v59trdlm7ea)" height="48" id="NotEnded" style="stroke: #A80036; stroke-width: 1.5;" width="94" x="6" y="116"/><ellipse cx="21" cy="132" fill="#ADD1B2" rx="11" ry="11" style="stroke: #A80036; stroke-width: 1.0;"/><path d="M23.3438,127.6719 L23.5156,127.75 C23.7344,127.4375 23.9375,127.3438 24.2344,127.3438 C24.5313,127.3438 24.8125,127.4844 24.9688,127.75 C25.0625,127.9063 25.0781,128.0313 25.0781,128.4688 L25.0781,129.8906 C25.0781,130.3125 25.0469,130.5 24.9375,130.6563 C24.7656,130.875 24.5,131.0156 24.2344,131.0156 C24.0156,131.0156 23.7813,130.9063 23.6406,130.7656 C23.5,130.6406 23.4688,130.5156 23.4063,130.1094 C23.3125,129.7031 23.1406,129.4844 22.6563,129.2031 C22.1875,128.9531 21.5781,128.7969 21,128.7969 C19.2656,128.7969 18.0156,130.1094 18.0156,131.8906 L18.0156,132.9844 C18.0156,134.6875 19.3125,135.7813 21.3594,135.7813 C22.125,135.7813 22.8125,135.6563 23.2344,135.3906 C23.4219,135.2969 23.4219,135.2969 23.875,134.8125 C24.0625,134.625 24.2656,134.5469 24.4844,134.5469 C24.9531,134.5469 25.3438,134.9375 25.3438,135.3906 C25.3438,135.7813 25.0156,136.2344 24.4375,136.6406 C23.6875,137.1875 22.5313,137.4844 21.3125,137.4844 C18.4219,137.4844 16.3125,135.5938 16.3125,133.0156 L16.3125,131.8906 C16.3125,129.1719 18.3125,127.0938 20.9375,127.0938 C21.8125,127.0938 22.4063,127.2344 23.3438,127.6719 Z "/><text fill="#000000" font-family="sans-serif" font-size="12" lengthAdjust="spacingAndGlyphs" textLength="62" x="35" y="136.1543">NotEnded</text><line style="stroke: #A80036; stroke-width: 1.5;" x1="7" x2="99" y1="148" y2="148"/><line style="stroke: #A80036; stroke-width: 1.5;" x1="7" x2="99" y1="156" y2="156"/><!--MD5=[6e201656357d2a267ccc7b2b5517d677]
class Ended--><rect fill="#FEFECE" filter="url(#f3v59trdlm7ea)" height="48" id="Ended" style="stroke: #A80036; stroke-width: 1.5;" width="72" x="135" y="116"/><ellipse cx="150" cy="132" fill="#ADD1B2" rx="11" ry="11" style="stroke: #A80036; stroke-width: 1.0;"/><path d="M152.3438,127.6719 L152.5156,127.75 C152.7344,127.4375 152.9375,127.3438 153.2344,127.3438 C153.5313,127.3438 153.8125,127.4844 153.9688,127.75 C154.0625,127.9063 154.0781,128.0313 154.0781,128.4688 L154.0781,129.8906 C154.0781,130.3125 154.0469,130.5 153.9375,130.6563 C153.7656,130.875 153.5,131.0156 153.2344,131.0156 C153.0156,131.0156 152.7813,130.9063 152.6406,130.7656 C152.5,130.6406 152.4688,130.5156 152.4063,130.1094 C152.3125,129.7031 152.1406,129.4844 151.6563,129.2031 C151.1875,128.9531 150.5781,128.7969 150,128.7969 C148.2656,128.7969 147.0156,130.1094 147.0156,131.8906 L147.0156,132.9844 C147.0156,134.6875 148.3125,135.7813 150.3594,135.7813 C151.125,135.7813 151.8125,135.6563 152.2344,135.3906 C152.4219,135.2969 152.4219,135.2969 152.875,134.8125 C153.0625,134.625 153.2656,134.5469 153.4844,134.5469 C153.9531,134.5469 154.3438,134.9375 154.3438,135.3906 C154.3438,135.7813 154.0156,136.2344 153.4375,136.6406 C152.6875,137.1875 151.5313,137.4844 150.3125,137.4844 C147.4219,137.4844 145.3125,135.5938 145.3125,133.0156 L145.3125,131.8906 C145.3125,129.1719 147.3125,127.0938 149.9375,127.0938 C150.8125,127.0938 151.4063,127.2344 152.3438,127.6719 Z "/><text fill="#000000" font-family="sans-serif" font-size="12" lengthAdjust="spacingAndGlyphs" textLength="40" x="164" y="136.1543">Ended</text><line style="stroke: #A80036; stroke-width: 1.5;" x1="136" x2="206" y1="148" y2="148"/><line style="stroke: #A80036; stroke-width: 1.5;" x1="136" x2="206" y1="156" y2="156"/><!--MD5=[8cdc72c3d96bf0a01515a4149faeac21]
class NoProtocol--><rect fill="#FEFECE" filter="url(#f3v59trdlm7ea)" height="48" id="NoProtocol" style="stroke: #A80036; stroke-width: 1.5;" width="101" x="242.5" y="116"/><ellipse cx="257.5" cy="132" fill="#ADD1B2" rx="11" ry="11" style="stroke: #A80036; stroke-width: 1.0;"/><path d="M259.8438,127.6719 L260.0156,127.75 C260.2344,127.4375 260.4375,127.3438 260.7344,127.3438 C261.0313,127.3438 261.3125,127.4844 261.4688,127.75 C261.5625,127.9063 261.5781,128.0313 261.5781,128.4688 L261.5781,129.8906 C261.5781,130.3125 261.5469,130.5 261.4375,130.6563 C261.2656,130.875 261,131.0156 260.7344,131.0156 C260.5156,131.0156 260.2813,130.9063 260.1406,130.7656 C260,130.6406 259.9688,130.5156 259.9063,130.1094 C259.8125,129.7031 259.6406,129.4844 259.1563,129.2031 C258.6875,128.9531 258.0781,128.7969 257.5,128.7969 C255.7656,128.7969 254.5156,130.1094 254.5156,131.8906 L254.5156,132.9844 C254.5156,134.6875 255.8125,135.7813 257.8594,135.7813 C258.625,135.7813 259.3125,135.6563 259.7344,135.3906 C259.9219,135.2969 259.9219,135.2969 260.375,134.8125 C260.5625,134.625 260.7656,134.5469 260.9844,134.5469 C261.4531,134.5469 261.8438,134.9375 261.8438,135.3906 C261.8438,135.7813 261.5156,136.2344 260.9375,136.6406 C260.1875,137.1875 259.0313,137.4844 257.8125,137.4844 C254.9219,137.4844 252.8125,135.5938 252.8125,133.0156 L252.8125,131.8906 C252.8125,129.1719 254.8125,127.0938 257.4375,127.0938 C258.3125,127.0938 258.9063,127.2344 259.8438,127.6719 Z "/><text fill="#000000" font-family="sans-serif" font-size="12" lengthAdjust="spacingAndGlyphs" textLength="69" x="271.5" y="136.1543">NoProtocol</text><line style="stroke: #A80036; stroke-width: 1.5;" x1="243.5" x2="342.5" y1="148" y2="148"/><line style="stroke: #A80036; stroke-width: 1.5;" x1="243.5" x2="342.5" y1="156" y2="156"/><!--MD5=[c330aa171b4ae5600de6569adaab31c4]
class Null--><rect fill="#FEFECE" filter="url(#f3v59trdlm7ea)" height="48" id="Null" style="stroke: #A80036; stroke-width: 1.5;" width="55" x="378.5" y="116"/><ellipse cx="393.5" cy="132" fill="#ADD1B2" rx="11" ry="11" style="stroke: #A80036; stroke-width: 1.0;"/><path d="M395.8438,127.6719 L396.0156,127.75 C396.2344,127.4375 396.4375,127.3438 396.7344,127.3438 C397.0313,127.3438 397.3125,127.4844 397.4688,127.75 C397.5625,127.9063 397.5781,128.0313 397.5781,128.4688 L397.5781,129.8906 C397.5781,130.3125 397.5469,130.5 397.4375,130.6563 C397.2656,130.875 397,131.0156 396.7344,131.0156 C396.5156,131.0156 396.2813,130.9063 396.1406,130.7656 C396,130.6406 395.9688,130.5156 395.9063,130.1094 C395.8125,129.7031 395.6406,129.4844 395.1563,129.2031 C394.6875,128.9531 394.0781,128.7969 393.5,128.7969 C391.7656,128.7969 390.5156,130.1094 390.5156,131.8906 L390.5156,132.9844 C390.5156,134.6875 391.8125,135.7813 393.8594,135.7813 C394.625,135.7813 395.3125,135.6563 395.7344,135.3906 C395.9219,135.2969 395.9219,135.2969 396.375,134.8125 C396.5625,134.625 396.7656,134.5469 396.9844,134.5469 C397.4531,134.5469 397.8438,134.9375 397.8438,135.3906 C397.8438,135.7813 397.5156,136.2344 396.9375,136.6406 C396.1875,137.1875 395.0313,137.4844 393.8125,137.4844 C390.9219,137.4844 388.8125,135.5938 388.8125,133.0156 L388.8125,131.8906 C388.8125,129.1719 390.8125,127.0938 393.4375,127.0938 C394.3125,127.0938 394.9063,127.2344 395.8438,127.6719 Z "/><text fill="#000000" font-family="sans-serif" font-size="12" lengthAdjust="spacingAndGlyphs" textLength="23" x="407.5" y="136.1543">Null</text><line style="stroke: #A80036; stroke-width: 1.5;" x1="379.5" x2="432.5" y1="148" y2="148"/><line style="stroke: #A80036; stroke-width: 1.5;" x1="379.5" x2="432.5" y1="156" y2="156"/><!--MD5=[eab4c3e00336c089e0e39f4232e82faa]
class Bottom--><rect fill="#FEFECE" filter="url(#f3v59trdlm7ea)" height="48" id="Bottom" style="stroke: #A80036; stroke-width: 1.5;" width="77" x="193.5" y="224"/><ellipse cx="208.5" cy="240" fill="#ADD1B2" rx="11" ry="11" style="stroke: #A80036; stroke-width: 1.0;"/><path d="M210.8438,235.6719 L211.0156,235.75 C211.2344,235.4375 211.4375,235.3438 211.7344,235.3438 C212.0313,235.3438 212.3125,235.4844 212.4688,235.75 C212.5625,235.9063 212.5781,236.0313 212.5781,236.4688 L212.5781,237.8906 C212.5781,238.3125 212.5469,238.5 212.4375,238.6563 C212.2656,238.875 212,239.0156 211.7344,239.0156 C211.5156,239.0156 211.2813,238.9063 211.1406,238.7656 C211,238.6406 210.9688,238.5156 210.9063,238.1094 C210.8125,237.7031 210.6406,237.4844 210.1563,237.2031 C209.6875,236.9531 209.0781,236.7969 208.5,236.7969 C206.7656,236.7969 205.5156,238.1094 205.5156,239.8906 L205.5156,240.9844 C205.5156,242.6875 206.8125,243.7813 208.8594,243.7813 C209.625,243.7813 210.3125,243.6563 210.7344,243.3906 C210.9219,243.2969 210.9219,243.2969 211.375,242.8125 C211.5625,242.625 211.7656,242.5469 211.9844,242.5469 C212.4531,242.5469 212.8438,242.9375 212.8438,243.3906 C212.8438,243.7813 212.5156,244.2344 211.9375,244.6406 C211.1875,245.1875 210.0313,245.4844 208.8125,245.4844 C205.9219,245.4844 203.8125,243.5938 203.8125,241.0156 L203.8125,239.8906 C203.8125,237.1719 205.8125,235.0938 208.4375,235.0938 C209.3125,235.0938 209.9063,235.2344 210.8438,235.6719 Z "/><text fill="#000000" font-family="sans-serif" font-size="12" lengthAdjust="spacingAndGlyphs" textLength="45" x="222.5" y="244.1543">Bottom</text><line style="stroke: #A80036; stroke-width: 1.5;" x1="194.5" x2="269.5" y1="256" y2="256"/><line style="stroke: #A80036; stroke-width: 1.5;" x1="194.5" x2="269.5" y1="264" y2="264"/><!--MD5=[1e64a03bb3c34bdd3c1c77c338568b80]
reverse link Unknown to NotEnded--><path d="M175.68,66.352 C148.493,82.451 116.549,101.368 92.0732,115.862 " fill="none" id="Unknown&lt;-NotEnded" style="stroke: #A80036; stroke-width: 1.0;"/><polygon fill="none" points="172.384,60.168,193.16,56,179.517,72.214,172.384,60.168" style="stroke: #A80036; stroke-width: 1.0;"/><!--MD5=[d936b1e7ea87ff914d79943fb01a2906]
reverse link Unknown to Ended--><path d="M208.628,73.613 C200.437,87.848 191.518,103.345 184.421,115.678 " fill="none" id="Unknown&lt;-Ended" style="stroke: #A80036; stroke-width: 1.0;"/><polygon fill="none" points="202.721,69.844,218.764,56,214.855,76.826,202.721,69.844" style="stroke: #A80036; stroke-width: 1.0;"/><!--MD5=[e29bd14bdb2366f564fc151e20302737]
reverse link Unknown to NoProtocol--><path d="M255.372,73.613 C263.563,87.848 272.482,103.345 279.579,115.678 " fill="none" id="Unknown&lt;-NoProtocol" style="stroke: #A80036; stroke-width: 1.0;"/><polygon fill="none" points="249.145,76.826,245.236,56,261.279,69.844,249.145,76.826" style="stroke: #A80036; stroke-width: 1.0;"/><!--MD5=[36c6fe05f1da7a550e5e2b418971f02a]
reverse link Unknown to Null--><path d="M287.248,66.657 C317.579,85.135 353.878,107.247 378.292,122.121 " fill="none" id="Unknown&lt;-Null" style="stroke: #A80036; stroke-width: 1.0;"/><polygon fill="none" points="283.194,72.384,269.755,56,290.477,60.428,283.194,72.384" style="stroke: #A80036; stroke-width: 1.0;"/><!--MD5=[583d7ea06332f85b52940ed16ed57fd5]
reverse link NotEnded to Bottom--><path d="M109.384,174.3891 C136.671,190.548 168.739,209.5382 193.235,224.0445 " fill="none" id="NotEnded&lt;-Bottom" style="stroke: #A80036; stroke-width: 1.0;"/><polygon fill="none" points="105.4825,180.2144,91.8403,164,112.616,168.168,105.4825,180.2144" style="stroke: #A80036; stroke-width: 1.0;"/><!--MD5=[9500c0da0a6804154d8d3cffe54c1eb3]
reverse link Ended to Bottom--><path d="M194.372,181.6133 C202.563,195.8479 211.482,211.3452 218.579,223.6784 " fill="none" id="Ended&lt;-Bottom" style="stroke: #A80036; stroke-width: 1.0;"/><polygon fill="none" points="188.145,184.8265,184.236,164,200.279,177.8436,188.145,184.8265" style="stroke: #A80036; stroke-width: 1.0;"/><!--MD5=[9ae127a742fa27c40681b7eba80f2b58]
reverse link NoProtocol to Bottom--><path d="M269.628,181.6133 C261.437,195.8479 252.518,211.3452 245.421,223.6784 " fill="none" id="NoProtocol&lt;-Bottom" style="stroke: #A80036; stroke-width: 1.0;"/><polygon fill="none" points="263.721,177.8436,279.764,164,275.855,184.8265,263.721,177.8436" style="stroke: #A80036; stroke-width: 1.0;"/><!--MD5=[6a4d73ce24d4ff267dae6195406cbacb]
reverse link Null to Bottom--><path d="M361.131,168.334 C332.815,185.5841 296.648,207.6166 269.797,223.9741 " fill="none" id="Null&lt;-Bottom" style="stroke: #A80036; stroke-width: 1.0;"/><polygon fill="none" points="357.707,162.223,378.429,157.796,364.991,174.1793,357.707,162.223" style="stroke: #A80036; stroke-width: 1.0;"/><!--MD5=[a845468b35a6f5ef5872313d225a55d7]
@startuml
Unknown <|- - NotEnded
Unknown <|- - Ended
Unknown <|- - NoProtocol
Unknown <|- - Null
NotEnded <|- - Bottom
Ended <|- - Bottom
NoProtocol <|- - Bottom
Null <|- - Bottom
@enduml

PlantUML version 1.2020.03beta11(Unknown compile time)
(GPL source distribution)
Java Runtime: Java(TM) SE Runtime Environment
JVM: Java HotSpot(TM) 64-Bit Server VM
Java Version: 1.7.0_25-b15
Operating System: Linux
Default Encoding: UTF-8
Language: en
Country: US
--></g></svg>