<?xml version="1.0" encoding="UTF-8" standalone="no"?><svg xmlns="http://www.w3.org/2000/svg" xmlns:xlink="http://www.w3.org/1999/xlink" contentScriptType="application/ecmascript" contentStyleType="text/css" height="499px" preserveAspectRatio="none" style="width:336px;height:499px;" version="1.1" viewBox="0 0 336 499" width="336px" zoomAndPan="magnify"><defs><filter height="300%" id="f1va9rw68mvj6t" width="300%" x="-1" y="-1"><feGaussianBlur result="blurOut" stdDeviation="2.0"/><feColorMatrix in="blurOut" result="blurOut2" type="matrix" values="0 0 0 0 0 0 0 0 0 0 0 0 0 0 0 0 0 0 .4 0"/><feOffset dx="4.0" dy="4.0" in="blurOut2" result="blurOut3"/><feBlend in="SourceGraphic" in2="blurOut3" mode="normal"/></filter></defs><g><!--MD5=[f60b16cb516bc977f3d142e48df51d7a]
class Unknown--><rect fill="#FEFECE" filter="url(#f1va9rw68mvj6t)" height="48" id="Unknown" style="stroke: #A80036; stroke-width: 1.5;" width="89" x="55" y="8"/><ellipse cx="70" cy="24" fill="#ADD1B2" rx="11" ry="11" style="stroke: #A80036; stroke-width: 1.0;"/><path d="M72.3438,19.6719 L72.5156,19.75 C72.7344,19.4375 72.9375,19.3438 73.2344,19.3438 C73.5313,19.3438 73.8125,19.4844 73.9688,19.75 C74.0625,19.9063 74.0781,20.0313 74.0781,20.4688 L74.0781,21.8906 C74.0781,22.3125 74.0469,22.5 73.9375,22.6563 C73.7656,22.875 73.5,23.0156 73.2344,23.0156 C73.0156,23.0156 72.7813,22.9063 72.6406,22.7656 C72.5,22.6406 72.4688,22.5156 72.4063,22.1094 C72.3125,21.7031 72.1406,21.4844 71.6563,21.2031 C71.1875,20.9531 70.5781,20.7969 70,20.7969 C68.2656,20.7969 67.0156,22.1094 67.0156,23.8906 L67.0156,24.9844 C67.0156,26.6875 68.3125,27.7813 70.3594,27.7813 C71.125,27.7813 71.8125,27.6563 72.2344,27.3906 C72.4219,27.2969 72.4219,27.2969 72.875,26.8125 C73.0625,26.625 73.2656,26.5469 73.4844,26.5469 C73.9531,26.5469 74.3438,26.9375 74.3438,27.3906 C74.3438,27.7813 74.0156,28.2344 73.4375,28.6406 C72.6875,29.1875 71.5313,29.4844 70.3125,29.4844 C67.4219,29.4844 65.3125,27.5938 65.3125,25.0156 L65.3125,23.8906 C65.3125,21.1719 67.3125,19.0938 69.9375,19.0938 C70.8125,19.0938 71.4063,19.2344 72.3438,19.6719 Z "/><text fill="#000000" font-family="sans-serif" font-size="12" lengthAdjust="spacingAndGlyphs" textLength="57" x="84" y="28.1543">Unknown</text><line style="stroke: #A80036; stroke-width: 1.5;" x1="56" x2="143" y1="40" y2="40"/><line style="stroke: #A80036; stroke-width: 1.5;" x1="56" x2="143" y1="48" y2="48"/><!--MD5=[c330aa171b4ae5600de6569adaab31c4]
class Null--><rect fill="#FEFECE" filter="url(#f1va9rw68mvj6t)" height="48" id="Null" style="stroke: #A80036; stroke-width: 1.5;" width="55" x="6" y="224"/><ellipse cx="21" cy="240" fill="#ADD1B2" rx="11" ry="11" style="stroke: #A80036; stroke-width: 1.0;"/><path d="M23.3438,235.6719 L23.5156,235.75 C23.7344,235.4375 23.9375,235.3438 24.2344,235.3438 C24.5313,235.3438 24.8125,235.4844 24.9688,235.75 C25.0625,235.9063 25.0781,236.0313 25.0781,236.4688 L25.0781,237.8906 C25.0781,238.3125 25.0469,238.5 24.9375,238.6563 C24.7656,238.875 24.5,239.0156 24.2344,239.0156 C24.0156,239.0156 23.7813,238.9063 23.6406,238.7656 C23.5,238.6406 23.4688,238.5156 23.4063,238.1094 C23.3125,237.7031 23.1406,237.4844 22.6563,237.2031 C22.1875,236.9531 21.5781,236.7969 21,236.7969 C19.2656,236.7969 18.0156,238.1094 18.0156,239.8906 L18.0156,240.9844 C18.0156,242.6875 19.3125,243.7813 21.3594,243.7813 C22.125,243.7813 22.8125,243.6563 23.2344,243.3906 C23.4219,243.2969 23.4219,243.2969 23.875,242.8125 C24.0625,242.625 24.2656,242.5469 24.4844,242.5469 C24.9531,242.5469 25.3438,242.9375 25.3438,243.3906 C25.3438,243.7813 25.0156,244.2344 24.4375,244.6406 C23.6875,245.1875 22.5313,245.4844 21.3125,245.4844 C18.4219,245.4844 16.3125,243.5938 16.3125,241.0156 L16.3125,239.8906 C16.3125,237.1719 18.3125,235.0938 20.9375,235.0938 C21.8125,235.0938 22.4063,235.2344 23.3438,235.6719 Z "/><text fill="#000000" font-family="sans-serif" font-size="12" lengthAdjust="spacingAndGlyphs" textLength="23" x="35" y="244.1543">Null</text><line style="stroke: #A80036; stroke-width: 1.5;" x1="7" x2="60" y1="256" y2="256"/><line style="stroke: #A80036; stroke-width: 1.5;" x1="7" x2="60" y1="264" y2="264"/><!--MD5=[62c99ada650a42958af240b1423f8dcb]
class NotEnded--><rect fill="#FEFECE" filter="url(#f1va9rw68mvj6t)" height="48" id="NotEnded" style="stroke: #A80036; stroke-width: 1.5;" width="94" x="111.5" y="116"/><ellipse cx="126.5" cy="132" fill="#ADD1B2" rx="11" ry="11" style="stroke: #A80036; stroke-width: 1.0;"/><path d="M128.8438,127.6719 L129.0156,127.75 C129.2344,127.4375 129.4375,127.3438 129.7344,127.3438 C130.0313,127.3438 130.3125,127.4844 130.4688,127.75 C130.5625,127.9063 130.5781,128.0313 130.5781,128.4688 L130.5781,129.8906 C130.5781,130.3125 130.5469,130.5 130.4375,130.6563 C130.2656,130.875 130,131.0156 129.7344,131.0156 C129.5156,131.0156 129.2813,130.9063 129.1406,130.7656 C129,130.6406 128.9688,130.5156 128.9063,130.1094 C128.8125,129.7031 128.6406,129.4844 128.1563,129.2031 C127.6875,128.9531 127.0781,128.7969 126.5,128.7969 C124.7656,128.7969 123.5156,130.1094 123.5156,131.8906 L123.5156,132.9844 C123.5156,134.6875 124.8125,135.7813 126.8594,135.7813 C127.625,135.7813 128.3125,135.6563 128.7344,135.3906 C128.9219,135.2969 128.9219,135.2969 129.375,134.8125 C129.5625,134.625 129.7656,134.5469 129.9844,134.5469 C130.4531,134.5469 130.8438,134.9375 130.8438,135.3906 C130.8438,135.7813 130.5156,136.2344 129.9375,136.6406 C129.1875,137.1875 128.0313,137.4844 126.8125,137.4844 C123.9219,137.4844 121.8125,135.5938 121.8125,133.0156 L121.8125,131.8906 C121.8125,129.1719 123.8125,127.0938 126.4375,127.0938 C127.3125,127.0938 127.9063,127.2344 128.8438,127.6719 Z "/><text fill="#000000" font-family="sans-serif" font-size="12" lengthAdjust="spacingAndGlyphs" textLength="62" x="140.5" y="136.1543">NotEnded</text><line style="stroke: #A80036; stroke-width: 1.5;" x1="112.5" x2="204.5" y1="148" y2="148"/><line style="stroke: #A80036; stroke-width: 1.5;" x1="112.5" x2="204.5" y1="156" y2="156"/><!--MD5=[7119b2c5abc1cbd81941379910bc1a29]
class File{Open, Read}--><rect fill="#FEFECE" filter="url(#f1va9rw68mvj6t)" height="48" id="File{Open, Read}" style="stroke: #A80036; stroke-width: 1.5;" width="142" x="96.5" y="224"/><ellipse cx="111.5" cy="240" fill="#ADD1B2" rx="11" ry="11" style="stroke: #A80036; stroke-width: 1.0;"/><path d="M113.8438,235.6719 L114.0156,235.75 C114.2344,235.4375 114.4375,235.3438 114.7344,235.3438 C115.0313,235.3438 115.3125,235.4844 115.4688,235.75 C115.5625,235.9063 115.5781,236.0313 115.5781,236.4688 L115.5781,237.8906 C115.5781,238.3125 115.5469,238.5 115.4375,238.6563 C115.2656,238.875 115,239.0156 114.7344,239.0156 C114.5156,239.0156 114.2813,238.9063 114.1406,238.7656 C114,238.6406 113.9688,238.5156 113.9063,238.1094 C113.8125,237.7031 113.6406,237.4844 113.1563,237.2031 C112.6875,236.9531 112.0781,236.7969 111.5,236.7969 C109.7656,236.7969 108.5156,238.1094 108.5156,239.8906 L108.5156,240.9844 C108.5156,242.6875 109.8125,243.7813 111.8594,243.7813 C112.625,243.7813 113.3125,243.6563 113.7344,243.3906 C113.9219,243.2969 113.9219,243.2969 114.375,242.8125 C114.5625,242.625 114.7656,242.5469 114.9844,242.5469 C115.4531,242.5469 115.8438,242.9375 115.8438,243.3906 C115.8438,243.7813 115.5156,244.2344 114.9375,244.6406 C114.1875,245.1875 113.0313,245.4844 111.8125,245.4844 C108.9219,245.4844 106.8125,243.5938 106.8125,241.0156 L106.8125,239.8906 C106.8125,237.1719 108.8125,235.0938 111.4375,235.0938 C112.3125,235.0938 112.9063,235.2344 113.8438,235.6719 Z "/><text fill="#000000" font-family="sans-serif" font-size="12" lengthAdjust="spacingAndGlyphs" textLength="110" x="125.5" y="244.1543">File{Open, Read}</text><line style="stroke: #A80036; stroke-width: 1.5;" x1="97.5" x2="237.5" y1="256" y2="256"/><line style="stroke: #A80036; stroke-width: 1.5;" x1="97.5" x2="237.5" y1="264" y2="264"/><!--MD5=[df1824b7cf5dc86ba750de73475dea09]
class File{Open}--><rect fill="#FEFECE" filter="url(#f1va9rw68mvj6t)" height="48" id="File{Open}" style="stroke: #A80036; stroke-width: 1.5;" width="102" x="86.5" y="332"/><ellipse cx="101.5" cy="348" fill="#ADD1B2" rx="11" ry="11" style="stroke: #A80036; stroke-width: 1.0;"/><path d="M103.8438,343.6719 L104.0156,343.75 C104.2344,343.4375 104.4375,343.3438 104.7344,343.3438 C105.0313,343.3438 105.3125,343.4844 105.4688,343.75 C105.5625,343.9063 105.5781,344.0313 105.5781,344.4688 L105.5781,345.8906 C105.5781,346.3125 105.5469,346.5 105.4375,346.6563 C105.2656,346.875 105,347.0156 104.7344,347.0156 C104.5156,347.0156 104.2813,346.9063 104.1406,346.7656 C104,346.6406 103.9688,346.5156 103.9063,346.1094 C103.8125,345.7031 103.6406,345.4844 103.1563,345.2031 C102.6875,344.9531 102.0781,344.7969 101.5,344.7969 C99.7656,344.7969 98.5156,346.1094 98.5156,347.8906 L98.5156,348.9844 C98.5156,350.6875 99.8125,351.7813 101.8594,351.7813 C102.625,351.7813 103.3125,351.6563 103.7344,351.3906 C103.9219,351.2969 103.9219,351.2969 104.375,350.8125 C104.5625,350.625 104.7656,350.5469 104.9844,350.5469 C105.4531,350.5469 105.8438,350.9375 105.8438,351.3906 C105.8438,351.7813 105.5156,352.2344 104.9375,352.6406 C104.1875,353.1875 103.0313,353.4844 101.8125,353.4844 C98.9219,353.4844 96.8125,351.5938 96.8125,349.0156 L96.8125,347.8906 C96.8125,345.1719 98.8125,343.0938 101.4375,343.0938 C102.3125,343.0938 102.9063,343.2344 103.8438,343.6719 Z "/><text fill="#000000" font-family="sans-serif" font-size="12" lengthAdjust="spacingAndGlyphs" textLength="70" x="115.5" y="352.1543">File{Open}</text><line style="stroke: #A80036; stroke-width: 1.5;" x1="87.5" x2="187.5" y1="364" y2="364"/><line style="stroke: #A80036; stroke-width: 1.5;" x1="87.5" x2="187.5" y1="372" y2="372"/><!--MD5=[cfb2c0229368b8b02edbb8a47121dc15]
class File{Read}--><rect fill="#FEFECE" filter="url(#f1va9rw68mvj6t)" height="48" id="File{Read}" style="stroke: #A80036; stroke-width: 1.5;" width="101" x="224" y="332"/><ellipse cx="239" cy="348" fill="#ADD1B2" rx="11" ry="11" style="stroke: #A80036; stroke-width: 1.0;"/><path d="M241.3438,343.6719 L241.5156,343.75 C241.7344,343.4375 241.9375,343.3438 242.2344,343.3438 C242.5313,343.3438 242.8125,343.4844 242.9688,343.75 C243.0625,343.9063 243.0781,344.0313 243.0781,344.4688 L243.0781,345.8906 C243.0781,346.3125 243.0469,346.5 242.9375,346.6563 C242.7656,346.875 242.5,347.0156 242.2344,347.0156 C242.0156,347.0156 241.7813,346.9063 241.6406,346.7656 C241.5,346.6406 241.4688,346.5156 241.4063,346.1094 C241.3125,345.7031 241.1406,345.4844 240.6563,345.2031 C240.1875,344.9531 239.5781,344.7969 239,344.7969 C237.2656,344.7969 236.0156,346.1094 236.0156,347.8906 L236.0156,348.9844 C236.0156,350.6875 237.3125,351.7813 239.3594,351.7813 C240.125,351.7813 240.8125,351.6563 241.2344,351.3906 C241.4219,351.2969 241.4219,351.2969 241.875,350.8125 C242.0625,350.625 242.2656,350.5469 242.4844,350.5469 C242.9531,350.5469 243.3438,350.9375 243.3438,351.3906 C243.3438,351.7813 243.0156,352.2344 242.4375,352.6406 C241.6875,353.1875 240.5313,353.4844 239.3125,353.4844 C236.4219,353.4844 234.3125,351.5938 234.3125,349.0156 L234.3125,347.8906 C234.3125,345.1719 236.3125,343.0938 238.9375,343.0938 C239.8125,343.0938 240.4063,343.2344 241.3438,343.6719 Z "/><text fill="#000000" font-family="sans-serif" font-size="12" lengthAdjust="spacingAndGlyphs" textLength="69" x="253" y="352.1543">File{Read}</text><line style="stroke: #A80036; stroke-width: 1.5;" x1="225" x2="324" y1="364" y2="364"/><line style="stroke: #A80036; stroke-width: 1.5;" x1="225" x2="324" y1="372" y2="372"/><!--MD5=[eab4c3e00336c089e0e39f4232e82faa]
class Bottom--><rect fill="#FEFECE" filter="url(#f1va9rw68mvj6t)" height="48" id="Bottom" style="stroke: #A80036; stroke-width: 1.5;" width="77" x="99" y="440"/><ellipse cx="114" cy="456" fill="#ADD1B2" rx="11" ry="11" style="stroke: #A80036; stroke-width: 1.0;"/><path d="M116.3438,451.6719 L116.5156,451.75 C116.7344,451.4375 116.9375,451.3438 117.2344,451.3438 C117.5313,451.3438 117.8125,451.4844 117.9688,451.75 C118.0625,451.9063 118.0781,452.0313 118.0781,452.4688 L118.0781,453.8906 C118.0781,454.3125 118.0469,454.5 117.9375,454.6563 C117.7656,454.875 117.5,455.0156 117.2344,455.0156 C117.0156,455.0156 116.7813,454.9063 116.6406,454.7656 C116.5,454.6406 116.4688,454.5156 116.4063,454.1094 C116.3125,453.7031 116.1406,453.4844 115.6563,453.2031 C115.1875,452.9531 114.5781,452.7969 114,452.7969 C112.2656,452.7969 111.0156,454.1094 111.0156,455.8906 L111.0156,456.9844 C111.0156,458.6875 112.3125,459.7813 114.3594,459.7813 C115.125,459.7813 115.8125,459.6563 116.2344,459.3906 C116.4219,459.2969 116.4219,459.2969 116.875,458.8125 C117.0625,458.625 117.2656,458.5469 117.4844,458.5469 C117.9531,458.5469 118.3438,458.9375 118.3438,459.3906 C118.3438,459.7813 118.0156,460.2344 117.4375,460.6406 C116.6875,461.1875 115.5313,461.4844 114.3125,461.4844 C111.4219,461.4844 109.3125,459.5938 109.3125,457.0156 L109.3125,455.8906 C109.3125,453.1719 111.3125,451.0938 113.9375,451.0938 C114.8125,451.0938 115.4063,451.2344 116.3438,451.6719 Z "/><text fill="#000000" font-family="sans-serif" font-size="12" lengthAdjust="spacingAndGlyphs" textLength="45" x="128" y="460.1543">Bottom</text><line style="stroke: #A80036; stroke-width: 1.5;" x1="100" x2="175" y1="472" y2="472"/><line style="stroke: #A80036; stroke-width: 1.5;" x1="100" x2="175" y1="480" y2="480"/><!--MD5=[36c6fe05f1da7a550e5e2b418971f02a]
reverse link Unknown to Null--><path d="M86.4134,75.432 C72.6922,119.922 51.6344,188.201 40.6799,223.72 " fill="none" id="Unknown&lt;-Null" style="stroke: #A80036; stroke-width: 1.0;"/><polygon fill="none" points="79.7278,73.358,92.3112,56.309,93.106,77.484,79.7278,73.358" style="stroke: #A80036; stroke-width: 1.0;"/><!--MD5=[1e64a03bb3c34bdd3c1c77c338568b80]
reverse link Unknown to NotEnded--><path d="M122.106,73.613 C130.029,87.848 138.654,103.345 145.519,115.678 " fill="none" id="Unknown&lt;-NotEnded" style="stroke: #A80036; stroke-width: 1.0;"/><polygon fill="none" points="115.913,76.88,112.302,56,128.145,70.071,115.913,76.88" style="stroke: #A80036; stroke-width: 1.0;"/><!--MD5=[a0b75f355f8cc5e13c335c95df8fa342]
reverse link NotEnded to File{Open, Read}--><path d="M162.153,184.024 C163.304,197.579 164.532,212.038 165.52,223.678 " fill="none" id="NotEnded&lt;-File{Open, Read}" style="stroke: #A80036; stroke-width: 1.0;"/><polygon fill="none" points="155.17,184.521,160.453,164,169.12,183.336,155.17,184.521" style="stroke: #A80036; stroke-width: 1.0;"/><!--MD5=[9d591e468c56b9fdd315d4a383ecef93]
reverse link File{Open, Read} to File{Open}--><path d="M155.46,291.54 C151.585,305.235 147.434,319.9 144.1,331.678 " fill="none" id="File{Open, Read}&lt;-File{Open}" style="stroke: #A80036; stroke-width: 1.0;"/><polygon fill="none" points="148.808,289.338,160.99,272,162.279,293.151,148.808,289.338" style="stroke: #A80036; stroke-width: 1.0;"/><!--MD5=[65a3cb87582fd55e75c38b503fa2894d]
reverse link File{Open, Read} to File{Read}--><path d="M205.132,286.28 C220.385,301.391 237.53,318.375 250.958,331.678 " fill="none" id="File{Open, Read}&lt;-File{Read}" style="stroke: #A80036; stroke-width: 1.0;"/><polygon fill="none" points="199.999,291.049,190.717,272,209.852,281.103,199.999,291.049" style="stroke: #A80036; stroke-width: 1.0;"/><!--MD5=[6a4d73ce24d4ff267dae6195406cbacb]
reverse link Null to Bottom--><path d="M40.1434,292.06 C45.3781,318.481 54.2349,352.419 68.5,380 C80.1215,402.4699 98.6742,424.3226 113.616,439.9605 " fill="none" id="Null&lt;-Bottom" style="stroke: #A80036; stroke-width: 1.0;"/><polygon fill="none" points="33.2475,293.263,36.6233,272.344,47.0296,290.802,33.2475,293.263" style="stroke: #A80036; stroke-width: 1.0;"/><!--MD5=[9c872902a7942d77f1b25070bedc799f]
reverse link File{Open} to Bottom--><path d="M137.5,400.0236 C137.5,413.5792 137.5,428.0381 137.5,439.6784 " fill="none" id="File{Open}&lt;-Bottom" style="stroke: #A80036; stroke-width: 1.0;"/><polygon fill="none" points="130.5,400.0005,137.5,380,144.5,400.0004,130.5,400.0005" style="stroke: #A80036; stroke-width: 1.0;"/><!--MD5=[9e8f76664f84d462f5e99b97cdc37814]
reverse link File{Read} to Bottom--><path d="M228.745,392.4016 C208.625,407.9688 185.552,425.8209 167.642,439.6784 " fill="none" id="File{Read}&lt;-Bottom" style="stroke: #A80036; stroke-width: 1.0;"/><polygon fill="none" points="224.671,386.703,244.773,380,233.239,397.7756,224.671,386.703" style="stroke: #A80036; stroke-width: 1.0;"/><!--MD5=[2efa6e28b70d235906e0123c6c605471]
@startuml
Unknown <|- - Null
Unknown <|- - NotEnded
NotEnded <|- - "File{Open, Read}"
"File{Open, Read}" <|- - "File{Open}"
"File{Open, Read}" <|- - "File{Read}"
Null <|- - Bottom
"File{Open}" <|- - Bottom
"File{Read}" <|- - Bottom
@enduml

PlantUML version 1.2020.03beta11(Unknown compile time)
(GPL source distribution)
Java Runtime: Java(TM) SE Runtime Environment
JVM: Java HotSpot(TM) 64-Bit Server VM
Java Version: 1.7.0_25-b15
Operating System: Linux
Default Encoding: UTF-8
Language: en
Country: US
--></g></svg>